<svg width="490" height="316" viewBox="100 -200 490 516" fill="none" xmlns="http://www.w3.org/2000/svg">
<g opacity="0.517411">
<g opacity="0.8">
<path opacity="0.5" d="M95.3968 0L0 55.5348L155.307 140.994L233.813 95.2628L95.3968 0V0Z" fill="url(#paint0_linear)"/>
<path d="M187.744 68.0836L109.239 113.845L155.308 140.511L233.813 94.75L187.744 68.0836V68.0836Z" fill="url(#paint1_linear)"/>
</g>
</g>
<g style="mix-blend-mode:multiply" opacity="0.5">
<path opacity="0.01" d="M372.47 196.369C371.508 195.235 370.348 194.284 369.047 193.565L259.234 129.991C251.3 125.961 241.926 125.961 233.992 129.991L124.209 193.565C122.905 194.292 121.736 195.241 120.756 196.369H119V201.859V201.859C119.702 204.636 121.616 206.948 124.209 208.154L234.021 271.668C241.945 275.697 251.311 275.697 259.234 271.668L369.047 208.154C371.6 206.927 373.468 204.616 374.137 201.859V201.859V196.369H372.47Z" fill="white"/>
<path opacity="0.02" d="M234.051 271.31C241.951 275.309 251.276 275.309 259.175 271.31L368.541 208.034C371.079 206.804 372.943 204.51 373.631 201.769V201.769V196.31H372.023C371.055 195.173 369.896 194.214 368.6 193.476L259.175 130.199C251.276 126.201 241.951 126.201 234.051 130.199L124.686 193.476C123.395 194.222 122.237 195.18 121.262 196.31H119.506V201.769V201.769C120.194 204.51 122.058 206.804 124.596 208.034L234.051 271.31Z" fill="#FBFBFC"/>
<path opacity="0.03" d="M234.111 270.923C241.975 274.891 251.251 274.891 259.115 270.923L368.064 207.885C370.609 206.655 372.467 204.344 373.125 201.59V201.59V196.22H371.368C370.411 195.092 369.262 194.143 367.975 193.416L259.115 130.408C251.258 126.411 241.969 126.411 234.111 130.408L125.192 193.416C123.891 194.135 122.731 195.085 121.768 196.22H120.012V201.59V201.59C120.689 204.329 122.558 206.618 125.102 207.825L234.111 270.923Z" fill="#F8F7F9"/>
<path opacity="0.05" d="M234.17 270.535C242.004 274.502 251.252 274.502 259.086 270.535L367.558 207.885C370.1 206.651 371.957 204.342 372.619 201.59V201.59V196.161H370.862C369.905 195.033 368.756 194.083 367.469 193.356L259.086 130.587C251.252 126.621 242.004 126.621 234.17 130.587L125.668 193.237C124.381 193.964 123.232 194.913 122.274 196.041H120.548V201.59V201.59C121.208 204.312 123.055 206.591 125.579 207.796L234.17 270.535Z" fill="#F4F4F6"/>
<path opacity="0.07" d="M234.2 270.207C241.977 274.103 251.13 274.103 258.907 270.207L367.052 207.557C369.496 206.387 371.31 204.209 372.023 201.59V201.59V196.071H370.297C369.336 194.954 368.188 194.015 366.903 193.297L258.907 130.766C251.098 126.83 241.89 126.83 234.081 130.766L126.055 193.416C124.769 194.133 123.62 195.072 122.661 196.191H121.054V201.59V201.59C121.8 204.238 123.674 206.421 126.174 207.557L234.2 270.207Z" fill="#F0F0F3"/>
<path opacity="0.08" d="M234.26 269.789C242.026 273.728 251.2 273.728 258.967 269.789L366.576 207.557C369.094 206.369 370.935 204.096 371.577 201.381V201.381V196.011H369.94C368.992 194.893 367.853 193.954 366.576 193.237L258.907 130.975C251.14 127.036 241.967 127.036 234.2 130.975L126.65 193.237C125.373 193.954 124.234 194.893 123.287 196.011H121.56V201.352V201.352C122.241 204.081 124.11 206.36 126.65 207.557L234.26 269.789Z" fill="#EDECF0"/>
<path opacity="0.1" d="M234.319 269.401C242.055 273.339 251.201 273.339 258.937 269.401L366.07 207.557C368.581 206.375 370.421 204.114 371.071 201.411V201.411V195.922H369.344C368.422 194.822 367.313 193.893 366.07 193.177L258.907 131.154C251.175 127.245 242.051 127.245 234.319 131.154L127.156 193.177C125.881 193.884 124.742 194.814 123.793 195.922H121.977V201.262V201.262C122.649 204.045 124.558 206.366 127.156 207.557L234.319 269.401Z" fill="#E9E8ED"/>
<path opacity="0.11" d="M234.379 269.043C242.086 272.922 251.17 272.922 258.877 269.043L365.593 207.288C368.078 206.096 369.902 203.853 370.565 201.173V201.173V195.862H369.046C368.111 194.752 366.981 193.821 365.713 193.118L258.907 131.363C251.196 127.455 242.09 127.455 234.379 131.363L127.662 193.088C126.385 193.805 125.246 194.744 124.299 195.862H122.602V201.173V201.173C123.253 203.859 125.08 206.106 127.573 207.288L234.379 269.043Z" fill="#E5E4EB"/>
<path opacity="0.13" d="M234.408 268.655C242.085 272.533 251.141 272.533 258.818 268.655L365.087 207.169C367.539 206.009 369.356 203.827 370.059 201.202V201.202V195.773H368.362C367.422 194.666 366.293 193.737 365.028 193.028L258.907 131.542C251.23 127.665 242.174 127.665 234.498 131.542L128.139 193.028C126.937 193.766 125.861 194.693 124.953 195.773H123.108V201.083V201.083C123.8 203.703 125.607 205.886 128.049 207.05L234.408 268.655Z" fill="#E2E0E8"/>
<path opacity="0.15" d="M234.468 268.267C242.1 272.157 251.127 272.157 258.758 268.267L364.611 207.05C367.066 205.909 368.872 203.715 369.523 201.083V201.083V195.624H367.826C366.89 194.534 365.772 193.615 364.522 192.909L258.907 131.721C251.265 127.874 242.259 127.874 234.617 131.721L128.645 192.969C127.383 193.646 126.254 194.545 125.311 195.624H123.614V200.904V200.904C124.295 203.53 126.105 205.717 128.555 206.871L234.468 268.267Z" fill="#DEDDE5"/>
<path opacity="0.16" d="M234.528 267.909C242.135 271.769 251.121 271.769 258.728 267.909L364.105 206.901C366.56 205.76 368.366 203.566 369.017 200.934V200.934V195.624H367.32C366.391 194.526 365.272 193.607 364.016 192.909L258.728 131.93C251.121 128.07 242.135 128.07 234.528 131.93L129.121 192.909C127.87 193.614 126.752 194.532 125.817 195.624H124.12V200.874V200.874C124.802 203.491 126.598 205.673 129.032 206.841L234.528 267.909Z" fill="#DAD9E2"/>
<path opacity="0.18" d="M234.557 267.522C242.14 271.351 251.086 271.351 258.669 267.522L363.629 206.781C366.072 205.634 367.866 203.44 368.511 200.815V200.815V195.624H366.814C365.887 194.544 364.779 193.635 363.539 192.939L258.669 132.109C251.086 128.279 242.14 128.279 234.557 132.109L129.627 192.849C128.379 193.545 127.261 194.454 126.323 195.534H124.656V200.785V200.785C125.307 203.417 127.113 205.611 129.567 206.751L234.557 267.522Z" fill="#D7D5DF"/>
<path opacity="0.2" d="M234.617 267.223C242.161 271.041 251.065 271.041 258.609 267.223L363.093 206.662C365.523 205.497 367.311 203.311 367.975 200.695V200.695V195.624H366.308C365.389 194.536 364.279 193.626 363.033 192.939L258.609 132.318C251.065 128.5 242.161 128.5 234.617 132.318L130.103 192.79C128.863 193.485 127.754 194.393 126.829 195.474H125.162V200.695V200.695C125.8 203.315 127.582 205.507 130.014 206.662L234.617 267.223Z" fill="#D3D1DC"/>
<path opacity="0.21" d="M234.676 266.746C242.165 270.532 251.002 270.532 258.49 266.746L362.676 206.543C365.092 205.368 366.868 203.184 367.528 200.576V200.576V195.385H365.861C364.962 194.285 363.873 193.356 362.647 192.64L258.461 132.407C250.965 128.649 242.142 128.649 234.647 132.407L130.609 192.64C129.37 193.337 128.262 194.246 127.335 195.325H125.668V200.516V200.516C126.306 203.136 128.088 205.328 130.52 206.483L234.676 266.746Z" fill="#CFCDD9"/>
<path opacity="0.23" d="M234.736 266.388C242.221 270.189 251.065 270.189 258.55 266.388L362.17 206.423C364.591 205.262 366.361 203.071 366.993 200.457V200.457V195.325H365.326C364.404 194.253 363.307 193.345 362.081 192.64L258.52 132.705C251.032 128.919 242.195 128.919 234.706 132.705L131.086 192.64C129.886 193.344 128.818 194.253 127.93 195.325H126.174V200.486V200.486C126.805 203.1 128.576 205.291 130.996 206.453L234.736 266.388Z" fill="#CCCAD6"/>
<path opacity="0.25" d="M234.766 266C242.251 269.801 251.094 269.801 258.579 266L361.783 206.334C364.192 205.165 365.951 202.975 366.576 200.367V200.367V195.236H364.879C363.962 194.194 362.875 193.317 361.664 192.64L258.46 132.974C250.975 129.173 242.131 129.173 234.646 132.974L131.592 192.64C130.368 193.335 129.271 194.233 128.347 195.295H126.71V200.397V200.397C127.341 203.011 129.112 205.202 131.532 206.364L234.766 266Z" fill="#C8C6D3"/>
<path opacity="0.26" d="M234.825 265.612C242.236 269.371 250.99 269.371 258.401 265.612L361.158 206.185C363.567 205.016 365.326 202.826 365.951 200.218V200.218V195.176H364.313C363.409 194.161 362.343 193.304 361.158 192.64L258.401 132.974C250.99 129.215 242.236 129.215 234.825 132.974L132.068 192.64C130.853 193.335 129.765 194.233 128.853 195.296H127.216V200.397V200.397C127.834 202.999 129.581 205.188 131.979 206.364L234.825 265.612Z" fill="#C4C2D0"/>
<path opacity="0.28" d="M234.885 265.254C242.272 268.983 250.984 268.983 258.371 265.254L360.652 206.065C363.061 204.897 364.82 202.707 365.445 200.099V200.099V195.087H363.808C362.908 194.018 361.818 193.128 360.593 192.461L258.371 133.272C250.981 129.514 242.245 129.514 234.855 133.272L132.574 192.461C131.354 193.136 130.265 194.025 129.359 195.087H127.722V200.188H127.93C128.548 202.79 130.296 204.979 132.693 206.155L234.885 265.254Z" fill="#C1BECD"/>
<path opacity="0.3" d="M234.915 264.866C242.27 268.594 250.956 268.594 258.312 264.866L360.116 205.916C362.468 204.766 364.199 202.639 364.849 200.099V200.099V195.027H363.212C362.344 193.974 361.296 193.085 360.116 192.402L258.312 133.451C250.956 129.724 242.27 129.724 234.915 133.451L133.05 192.402C131.844 193.084 130.766 193.973 129.865 195.027H128.228V200.099V200.099C128.879 202.639 130.609 204.766 132.961 205.916L234.915 264.866Z" fill="#BDBACA"/>
<path opacity="0.31" d="M235.093 264.479C242.406 268.209 251.058 268.209 258.371 264.479L359.67 205.797C362.033 204.676 363.77 202.552 364.403 200.009V200.009V194.938H362.766C361.876 193.879 360.795 192.999 359.58 192.342L258.252 133.66C250.939 129.93 242.287 129.93 234.974 133.66L133.556 192.342C132.353 193.016 131.275 193.894 130.371 194.938H128.764V200.009V200.009C129.396 202.552 131.133 204.676 133.497 205.797L235.093 264.479Z" fill="#B9B6C8"/>
<path opacity="0.33" d="M235.093 264.24C242.389 267.911 250.986 267.911 258.282 264.24L359.193 205.677C361.543 204.546 363.267 202.425 363.897 199.89V199.89V194.878H362.289C361.406 193.817 360.337 192.928 359.134 192.253L258.222 133.839C250.934 130.139 242.322 130.139 235.033 133.839L134.062 192.253C132.856 192.923 131.786 193.813 130.907 194.878H129.27V199.89V199.89C129.876 202.436 131.607 204.567 133.973 205.677L235.093 264.24Z" fill="#B6B3C5"/>
<path opacity="0.34" d="M235.093 263.733C242.358 267.403 250.928 267.403 258.193 263.733L358.717 205.558C361.051 204.43 362.764 202.32 363.391 199.8V199.8V194.788H361.783C360.888 193.748 359.821 192.87 358.628 192.193L258.163 134.018C250.898 130.348 242.328 130.348 235.063 134.018L134.539 192.193C133.346 192.87 132.278 193.748 131.383 194.788H129.776V199.8V199.8C130.395 202.324 132.11 204.437 134.449 205.558L235.093 263.733Z" fill="#B2AFC2"/>
<path opacity="0.36" d="M235.093 263.345C242.316 267.013 250.85 267.013 258.073 263.345L358.211 205.439C360.535 204.32 362.238 202.219 362.855 199.711V199.711V194.699H361.247C360.404 193.684 359.398 192.817 358.271 192.133L258.103 134.227C250.88 130.559 242.346 130.559 235.123 134.227L135.045 192.133C133.851 192.797 132.784 193.666 131.889 194.699H130.282V199.711V199.711C130.913 202.221 132.626 204.32 134.955 205.439L235.093 263.345Z" fill="#AEABBF"/>
<path opacity="0.38" d="M235.093 262.987C242.292 266.625 250.785 266.625 257.984 262.987L357.705 205.319C360.034 204.208 361.74 202.104 362.349 199.591V199.591V194.639H360.741C359.903 193.62 358.896 192.752 357.765 192.074L258.044 134.406C250.855 130.769 242.371 130.769 235.182 134.406L135.521 192.074C134.394 192.758 133.388 193.625 132.544 194.639H130.907V199.591V199.591C131.535 202.094 133.235 204.191 135.551 205.319L235.093 262.987Z" fill="#ABA7BC"/>
<path opacity="0.39" d="M235.242 262.599C242.405 266.211 250.851 266.211 258.014 262.599L357.14 205.2C359.453 204.091 361.147 201.999 361.753 199.502V199.502V194.55H360.146C359.309 193.536 358.302 192.678 357.169 192.014L258.014 134.615C250.848 130.974 242.379 130.974 235.212 134.615L136.027 192.014C134.891 192.674 133.883 193.532 133.05 194.55H131.324V199.502V199.502C131.945 202.001 133.648 204.091 135.967 205.2L235.242 262.599Z" fill="#A7A3B9"/>
<path opacity="0.41" d="M235.272 262.211C242.403 265.822 250.823 265.822 257.954 262.211L356.723 205.081C359.027 203.975 360.718 201.896 361.337 199.412V199.412V194.49H359.819C358.982 193.477 357.974 192.619 356.842 191.954L257.954 134.794C250.823 131.183 242.403 131.183 235.272 134.794L136.503 191.954C135.371 192.619 134.363 193.477 133.527 194.49H131.83V199.412V199.412C132.434 201.894 134.116 203.974 136.414 205.081L235.272 262.211Z" fill="#A3A0B6"/>
<path opacity="0.43" d="M235.331 261.823C242.421 265.432 250.804 265.432 257.895 261.823L356.127 204.932C358.417 203.845 360.099 201.786 360.712 199.323V199.323V194.4H359.134C358.29 193.394 357.284 192.537 356.157 191.865L257.925 134.973C250.827 131.393 242.458 131.393 235.361 134.973L137.128 191.865C136.008 192.547 135.004 193.403 134.152 194.4H132.336V199.323V199.323C132.936 201.792 134.622 203.855 136.92 204.932L235.331 261.823Z" fill="#A09CB3"/>
<path opacity="0.44" d="M235.391 261.465C242.457 265.044 250.799 265.044 257.865 261.465L355.74 204.782C358.029 203.702 359.705 201.639 360.295 199.174V199.174V194.341H358.717C357.882 193.326 356.874 192.468 355.74 191.805L257.865 135.122C250.799 131.543 242.457 131.543 235.391 135.122L137.486 191.805C136.363 192.483 135.358 193.34 134.509 194.341H132.872V199.204V199.204C133.481 201.659 135.151 203.715 137.426 204.812L235.391 261.465Z" fill="#9C98B0"/>
<path opacity="0.46" d="M235.42 261.078C242.462 264.626 250.764 264.626 257.806 261.078L355.264 204.574C357.537 203.496 359.201 201.445 359.789 198.995V198.995V194.251H358.211C357.37 193.251 356.363 192.403 355.234 191.745L257.806 135.361C250.764 131.812 242.462 131.812 235.42 135.361L137.992 191.745C136.865 192.406 135.859 193.253 135.015 194.251H133.378V199.114V199.114C134.036 201.527 135.725 203.526 137.992 204.574L235.42 261.078Z" fill="#9894AD"/>
<path opacity="0.48" d="M235.48 260.69C242.479 264.241 250.747 264.241 257.746 260.69L354.758 204.574C357.014 203.489 358.672 201.456 359.283 199.025V199.025V194.192H357.735C356.902 193.183 355.893 192.334 354.758 191.686L257.746 135.569C250.747 132.018 242.479 132.018 235.48 135.569L138.468 191.686C137.333 192.334 136.325 193.183 135.491 194.192H133.884V199.025V199.025C134.501 201.472 136.184 203.51 138.468 204.574L235.48 260.69Z" fill="#9590AA"/>
<path opacity="0.49" d="M235.539 260.332C242.514 263.853 250.741 263.853 257.716 260.332L354.163 204.574C356.411 203.495 358.068 201.475 358.687 199.054V199.054V194.102H357.139C356.303 193.105 355.295 192.266 354.163 191.626L257.716 135.748C250.741 132.227 242.514 132.227 235.539 135.748L138.974 191.626C137.847 192.274 136.84 193.112 135.997 194.102H134.39V198.935V198.935C134.974 201.42 136.664 203.498 138.974 204.574L235.539 260.332Z" fill="#918CA7"/>
<path opacity="0.51" d="M235.569 259.944C242.513 263.464 250.713 263.464 257.657 259.944L353.776 204.335C356.015 203.26 357.654 201.234 358.241 198.816V198.816V194.043H356.693C355.861 193.041 354.852 192.202 353.716 191.566L257.657 135.957C250.706 132.466 242.52 132.466 235.569 135.957L139.45 191.566C138.315 192.202 137.306 193.041 136.473 194.043H134.926V198.816V198.816C135.512 201.234 137.152 203.26 139.391 204.335L235.569 259.944Z" fill="#8D89A5"/>
<path opacity="0.52" d="M235.629 259.556C242.538 263.045 250.688 263.045 257.597 259.556L353.27 204.216C355.535 203.128 357.18 201.062 357.735 198.607V198.607V193.834H356.187C355.353 192.842 354.344 192.013 353.21 191.387L257.597 136.136C250.688 132.647 242.538 132.647 235.629 136.136L139.837 191.477C138.708 192.122 137.701 192.96 136.86 193.953H135.432V198.607V198.607C135.993 201.041 137.608 203.097 139.837 204.216L235.629 259.556Z" fill="#8985A2"/>
<path opacity="0.54" d="M235.688 259.198C242.573 262.657 250.683 262.657 257.568 259.198L352.823 204.096C355.004 203 356.585 200.988 357.14 198.607V198.607V193.893H355.621C354.777 192.904 353.77 192.067 352.645 191.417L257.389 136.315C250.515 132.857 242.414 132.857 235.54 136.315L140.284 191.417C139.155 192.062 138.148 192.9 137.307 193.893H135.938V198.607V198.607C136.54 201.002 138.177 203.004 140.403 204.066L235.688 259.198Z" fill="#86819F"/>
<path opacity="0.56" d="M235.748 258.81C242.59 262.272 250.666 262.272 257.508 258.81L352.287 203.947C354.49 202.924 356.118 200.963 356.723 198.607V198.607V193.804H355.205C354.365 192.818 353.357 191.989 352.228 191.358L257.508 136.524C250.655 133.062 242.57 133.062 235.718 136.524L140.938 191.358C139.815 191.997 138.808 192.825 137.962 193.804H136.444V198.607V198.607C137.014 200.993 138.635 202.99 140.849 204.037L235.748 258.81Z" fill="#827D9C"/>
<path opacity="0.57" d="M235.778 258.422C242.583 261.907 250.643 261.907 257.448 258.422L351.811 203.828C354.005 202.777 355.611 200.795 356.187 198.428V198.428V193.714H354.758C353.919 192.736 352.911 191.917 351.781 191.298L257.448 136.703C250.643 133.218 242.583 133.218 235.778 136.703L141.445 191.298C140.317 191.92 139.309 192.738 138.468 193.714H136.86V198.428V198.428C137.439 200.803 139.058 202.788 141.266 203.828L235.778 258.422Z" fill="#7E7999"/>
<path opacity="0.59" d="M235.837 258.065C242.61 261.509 250.616 261.509 257.389 258.065L351.186 203.708C353.375 202.668 354.982 200.696 355.562 198.339V198.339V193.655H354.163C353.324 192.676 352.315 191.857 351.186 191.238L257.389 136.882C250.616 133.438 242.61 133.438 235.837 136.882L141.921 191.238C140.797 191.865 139.79 192.683 138.944 193.655H137.456V198.339V198.339C138.036 200.696 139.642 202.668 141.832 203.708L235.837 258.065Z" fill="#7B7596"/>
<path opacity="0.61" d="M235.897 257.677C242.645 261.091 250.611 261.091 257.359 257.677L350.829 203.589C352.995 202.541 354.586 200.586 355.175 198.249V198.249V193.565H353.687C352.842 192.6 351.834 191.793 350.71 191.179L257.359 137.091C250.611 133.677 242.645 133.677 235.897 137.091L142.427 191.179C141.305 191.796 140.297 192.603 139.45 193.565H137.962V198.249V198.249C138.55 200.596 140.155 202.555 142.338 203.589L235.897 257.677Z" fill="#777293"/>
<path opacity="0.62" d="M235.927 257.289C242.651 260.673 250.575 260.673 257.3 257.289L350.323 203.589C352.496 202.551 354.091 200.592 354.669 198.249V198.249V193.506H353.181C352.343 192.534 351.334 191.725 350.204 191.119L257.181 137.419C250.456 134.035 242.532 134.035 235.807 137.419L142.814 191.089C141.694 191.723 140.688 192.54 139.837 193.506H138.349V198.13V198.13C138.948 200.498 140.592 202.464 142.814 203.47L235.927 257.289Z" fill="#736E90"/>
<path opacity="0.64" d="M235.986 256.901C242.664 260.302 250.562 260.302 257.24 256.901L349.847 203.35C351.997 202.305 353.577 200.362 354.163 198.04V198.04V193.416H352.674C351.832 192.449 350.824 191.641 349.698 191.029L257.091 137.33C250.413 133.928 242.515 133.928 235.837 137.33L143.261 191.029C142.131 191.635 141.122 192.444 140.284 193.416H138.795V198.04V198.04C139.435 200.428 141.137 202.387 143.409 203.35L235.986 256.901Z" fill="#706A8D"/>
<path opacity="0.66" d="M236.046 256.543C242.7 259.914 250.556 259.914 257.21 256.543L349.34 203.231C351.475 202.189 353.043 200.257 353.627 197.951V197.951V193.356H352.139C351.296 192.389 350.288 191.581 349.162 190.97L257.21 137.658C250.556 134.287 242.7 134.287 236.046 137.658L143.767 190.97C142.64 191.581 141.632 192.389 140.79 193.356H139.54V197.951V197.951C140.123 200.257 141.691 202.189 143.826 203.231L236.046 256.543Z" fill="#6C668A"/>
<path opacity="0.67" d="M236.105 256.155C242.724 259.496 250.531 259.496 257.151 256.155L348.864 203.082C350.994 202.056 352.555 200.13 353.121 197.831V197.831V193.267H351.662C350.806 192.323 349.8 191.527 348.686 190.91L257.151 137.837C250.521 134.496 242.705 134.496 236.075 137.837L144.392 190.91C143.274 191.521 142.267 192.318 141.415 193.267H140.046V197.831V197.831C140.628 200.15 142.225 202.08 144.392 203.082L236.105 256.155Z" fill="#686287"/>
<path opacity="0.69" d="M236.135 255.767C242.691 259.066 250.416 259.066 256.972 255.767L348.239 202.963C350.364 201.946 351.925 200.032 352.496 197.742V197.742V193.207H351.186C350.353 192.238 349.342 191.438 348.209 190.85L257.091 138.046C250.535 134.747 242.81 134.747 236.254 138.046L144.868 190.85C143.74 191.447 142.731 192.246 141.891 193.207H140.552V197.742V197.742C141.096 200.035 142.651 201.957 144.778 202.963L236.135 255.767Z" fill="#655F84"/>
<path opacity="0.7" d="M236.194 255.29C242.749 258.594 250.477 258.594 257.032 255.29L347.882 202.843C349.997 201.837 351.549 199.931 352.109 197.652V197.652V193.118H350.65C349.803 192.172 348.795 191.384 347.673 190.791L257.032 138.225C250.479 134.911 242.747 134.911 236.194 138.225L145.374 190.791C144.249 191.379 143.24 192.167 142.397 193.118H141.058V197.652V197.652C141.606 199.937 143.161 201.847 145.285 202.843L236.194 255.29Z" fill="#615B82"/>
<path opacity="0.72" d="M236.254 255.022C242.799 258.364 250.546 258.364 257.091 255.022L347.376 202.724C349.483 201.73 351.027 199.832 351.573 197.563V197.563V193.058H350.114C349.283 192.096 348.272 191.305 347.138 190.731L257.002 138.433C250.456 135.091 242.71 135.091 236.165 138.433L145.791 190.731C144.716 191.329 143.757 192.118 142.963 193.058H141.594V197.563V197.563C142.163 199.82 143.699 201.71 145.791 202.724L236.254 255.022Z" fill="#5D577F"/>
<path opacity="0.74" d="M236.284 254.634C242.781 257.915 250.445 257.915 256.942 254.634L346.87 202.605C349.023 201.64 350.614 199.737 351.186 197.444V197.444V192.969H349.698C348.856 192.017 347.847 191.228 346.721 190.642L256.942 138.612C250.445 135.331 242.781 135.331 236.284 138.612L146.356 190.642C145.294 191.259 144.339 192.045 143.528 192.969H142.1V197.444V197.444C142.669 199.701 144.205 201.591 146.297 202.605L236.284 254.634Z" fill="#5A537C"/>
<path opacity="0.75" d="M236.343 254.276C242.805 257.527 250.42 257.527 256.883 254.276L346.393 202.485C348.477 201.484 350.006 199.602 350.561 197.354V197.354V192.879H349.132C348.338 191.958 347.391 191.181 346.334 190.582L256.883 138.941C250.42 135.689 242.805 135.689 236.343 138.941L146.862 190.582C145.796 191.181 144.84 191.958 144.034 192.879H142.605V197.354H142.814C143.35 199.575 144.829 201.45 146.862 202.485L236.343 254.276Z" fill="#564F79"/>
<path opacity="0.77" d="M236.403 253.888C242.834 257.137 250.422 257.137 256.853 253.888L345.887 202.366C347.962 201.368 349.488 199.5 350.055 197.264V197.264V192.819H348.626C347.839 191.891 346.891 191.112 345.828 190.522L256.853 138.941C250.422 135.691 242.834 135.691 236.403 138.941L147.339 190.522C146.275 191.112 145.327 191.891 144.54 192.819H143.112V197.264V197.264C143.664 199.498 145.181 201.368 147.249 202.366L236.403 253.888Z" fill="#524B76"/>
<path opacity="0.79" d="M236.433 253.5C242.831 256.753 250.395 256.753 256.794 253.5L345.411 202.247C347.479 201.255 348.989 199.38 349.519 197.145V197.145V192.64H348.209C347.418 191.737 346.482 190.97 345.441 190.373L256.794 139.179C250.388 135.955 242.838 135.955 236.433 139.179L147.845 190.463C146.789 191.052 145.843 191.819 145.047 192.73H143.647V197.145V197.145C144.192 199.382 145.712 201.255 147.785 202.247L236.433 253.5Z" fill="#4F4873"/>
<path opacity="0.8" d="M236.492 253.142C242.856 256.364 250.37 256.364 256.734 253.142L344.905 202.097C346.967 201.129 348.478 199.274 349.013 197.056V197.056V192.64H347.614C346.845 191.713 345.905 190.943 344.846 190.373L256.734 139.388C250.37 136.166 242.856 136.166 236.492 139.388L148.321 190.403C147.266 190.981 146.328 191.75 145.553 192.67H144.154V197.056V197.056C144.7 199.268 146.208 201.118 148.261 202.097L236.492 253.142Z" fill="#4B4470"/>
<path opacity="0.82" d="M236.552 252.754C242.891 255.946 250.364 255.946 256.704 252.754L344.429 202.038C346.472 201.068 347.971 199.227 348.507 197.026V197.026V192.64H347.108C346.334 191.738 345.407 190.98 344.369 190.403L256.615 139.686C250.285 136.495 242.822 136.495 236.492 139.686L148.767 190.343C147.716 190.913 146.777 191.671 145.999 192.581H144.659V196.966V196.966C145.21 199.169 146.718 201.009 148.767 201.978L236.552 252.754Z" fill="#47406D"/>
<path opacity="0.84" d="M236.611 252.307C242.91 255.497 250.346 255.497 256.645 252.307L343.923 201.859C345.962 200.899 347.46 199.069 348.001 196.877V196.877V192.64H346.602C345.822 191.737 344.896 190.97 343.863 190.373L256.645 139.776C250.336 136.585 242.89 136.585 236.581 139.776L149.303 190.254C148.271 190.851 147.345 191.617 146.565 192.521H145.166V196.877V196.877C145.691 199.067 147.181 200.899 149.214 201.859L236.611 252.307Z" fill="#443C6A"/>
<path opacity="0.85" d="M236.641 251.979C242.907 255.172 250.319 255.172 256.585 251.979L343.447 201.739C345.464 200.759 346.946 198.936 347.495 196.757V196.757V192.432H346.096C345.319 191.545 344.404 190.789 343.387 190.194L256.585 139.955C250.311 136.795 242.915 136.795 236.641 139.955L149.809 190.194C148.778 190.781 147.853 191.538 147.071 192.432H145.791V196.757V196.757C146.317 198.947 147.806 200.78 149.839 201.739L236.641 251.979Z" fill="#403867"/>
<path opacity="0.87" d="M236.701 251.621C242.932 254.784 250.294 254.784 256.526 251.621L342.941 201.59C344.958 200.633 346.436 198.813 346.959 196.638V196.638V192.372H345.59C344.834 191.463 343.916 190.704 342.881 190.134L256.526 140.134C250.294 136.971 242.932 136.971 236.701 140.134L150.375 190.134C149.351 190.72 148.435 191.477 147.666 192.372H146.208V196.668V196.668C146.752 198.843 148.252 200.654 150.286 201.59L236.701 251.621Z" fill="#3C3564"/>
<path opacity="0.89" d="M236.76 251.233C242.967 254.366 250.288 254.366 256.496 251.233L342.464 201.59C344.458 200.626 345.92 198.822 346.453 196.668V196.668V192.282H345.232C344.48 191.39 343.572 190.642 342.553 190.075L256.496 140.343C250.295 137.181 242.96 137.181 236.76 140.343L150.792 190.075C149.764 190.643 148.847 191.39 148.083 192.282H146.713V196.578V196.578C147.238 198.785 148.74 200.631 150.792 201.59L236.76 251.233Z" fill="#393161"/>
<path opacity="0.9" d="M236.79 250.845C242.966 253.976 250.26 253.976 256.436 250.845L341.958 201.381C343.948 200.427 345.41 198.633 345.947 196.489V196.489V192.223H344.637C343.885 191.331 342.977 190.583 341.958 190.015L256.436 140.522C250.26 137.39 242.966 137.39 236.79 140.522L151.268 190.015C150.255 190.591 149.348 191.338 148.589 192.223H147.219V196.489V196.489C147.742 198.631 149.195 200.427 151.179 201.381L236.79 250.845Z" fill="#352D5F"/>
<path opacity="0.92" d="M236.849 250.487C242.991 253.588 250.235 253.588 256.377 250.487L341.482 201.262C343.458 200.297 344.907 198.506 345.441 196.37V196.37V192.133H344.072C343.314 191.266 342.419 190.531 341.422 189.955L256.377 140.731C250.243 137.596 242.983 137.596 236.849 140.731L151.744 189.955C150.734 190.523 149.828 191.259 149.065 192.133H147.755V196.37V196.37C148.285 198.518 149.749 200.314 151.744 201.262L236.849 250.487Z" fill="#31295C"/>
<path opacity="0.93" d="M236.909 250.099C243.018 253.203 250.238 253.203 256.347 250.099L340.976 201.113C342.94 200.171 344.381 198.398 344.905 196.28V196.28V192.073H343.536C342.801 191.183 341.902 190.443 340.887 189.896L256.347 140.91C250.238 137.805 243.018 137.805 236.909 140.91L152.25 189.866C151.246 190.442 150.349 191.189 149.601 192.073H148.261V196.28V196.28C148.786 198.398 150.227 200.171 152.191 201.113L236.909 250.099Z" fill="#2E2559"/>
<path opacity="0.95" d="M236.938 249.711C243.023 252.785 250.202 252.785 256.287 249.711L340.47 200.994C342.429 200.061 343.871 198.299 344.399 196.191V196.191V191.984H343.059C342.308 191.11 341.412 190.374 340.41 189.806L256.287 141.089C250.202 138.014 243.023 138.014 236.938 141.089L152.756 189.806C151.754 190.374 150.858 191.11 150.107 191.984H148.767V196.191V196.191C149.296 198.299 150.737 200.061 152.697 200.994L236.938 249.711Z" fill="#2A2156"/>
<path opacity="0.97" d="M236.998 249.323C243.048 252.367 250.178 252.367 256.228 249.323L339.993 200.874C341.939 199.931 343.367 198.172 343.893 196.071V196.071V191.895H342.553C341.806 191.037 340.92 190.311 339.934 189.747L256.228 141.297C250.184 138.225 243.041 138.225 236.998 141.297L153.262 189.657C152.262 190.214 151.366 190.941 150.613 191.805H149.273V195.982V195.982C149.802 198.09 151.243 199.852 153.203 200.785L236.998 249.323Z" fill="#261E53"/>
<path opacity="0.98" d="M237.058 248.965C243.077 252.007 250.179 252.007 256.198 248.965L339.547 200.755C341.491 199.825 342.921 198.075 343.447 195.982V195.982V191.835H342.256C341.516 190.97 340.629 190.242 339.636 189.687L256.287 141.476C250.279 138.435 243.186 138.435 237.177 141.476L153.739 189.657C152.746 190.213 151.859 190.94 151.119 191.805H149.809V195.952V195.952C150.325 198.042 151.744 199.792 153.679 200.725L237.058 248.965Z" fill="#231A50"/>
<path d="M341.601 191.745C340.863 190.898 339.987 190.182 339.011 189.627L256.139 141.685C250.151 138.645 243.076 138.645 237.088 141.685L154.245 189.657C153.255 190.204 152.368 190.921 151.625 191.775H150.315V195.922V195.922C150.831 198.004 152.251 199.745 154.185 200.665L237.117 248.578C243.094 251.623 250.162 251.623 256.139 248.578L339.011 200.636C340.937 199.705 342.354 197.969 342.881 195.892V195.892V191.745H341.601Z" fill="#1F164D"/>
</g>
<g opacity="0.499107">
<g style="mix-blend-mode:lighten" opacity="0.7">
<g opacity="0.01">
<path d="M269.875 308.842C254.911 317.476 230.37 317.476 215.406 308.842L46.223 211.361C31.259 202.728 31.259 188.597 46.223 179.963L215.376 82.4828C230.34 73.849 254.881 73.849 269.875 82.4828L439.029 179.963C453.993 188.597 453.993 202.728 439.029 211.361L269.875 308.842Z" fill="#3F3CAB"/>
</g>
<g opacity="0.01">
<path d="M269.846 307.796C254.882 316.43 230.4 316.43 215.436 307.796L48.0487 211.331C33.0847 202.728 33.0847 188.597 48.0487 179.993L215.436 83.5284C230.4 74.8946 254.882 74.8946 269.846 83.5284L437.233 179.993C452.197 188.627 452.197 202.728 437.233 211.331L269.846 307.796Z" fill="#3F3FAC"/>
</g>
<g opacity="0.03">
<path d="M269.786 306.751C254.822 315.354 230.43 315.354 215.496 306.751L49.9642 211.302C35.0002 202.698 35.0002 188.627 49.9642 180.023L215.466 84.574C230.43 75.9701 254.852 75.9701 269.786 84.574L435.408 180.172C450.372 188.776 450.372 202.847 435.408 211.451L269.786 306.751Z" fill="#4042AE"/>
</g>
<g opacity="0.04">
<path d="M269.756 305.705C254.792 314.309 230.43 314.309 215.526 305.705L51.6698 211.302C36.7058 202.698 36.7058 188.627 51.6698 180.023L215.526 85.6196C230.49 77.0158 254.821 77.0158 269.756 85.6196L433.612 180.053C448.576 188.627 448.576 202.698 433.612 211.302L269.756 305.705Z" fill="#4045AF"/>
</g>
<g opacity="0.05">
<path d="M269.696 304.659C254.732 313.263 230.46 313.263 215.586 304.659L53.4955 211.272C38.5315 202.668 38.5315 188.657 53.4955 180.053L215.556 86.6652C230.52 78.0912 254.822 78.0912 269.696 86.6652L431.786 180.053C446.75 188.657 446.75 202.698 431.786 211.272L269.696 304.659Z" fill="#4048B1"/>
</g>
<g opacity="0.07">
<path d="M269.666 303.614C254.702 312.188 230.49 312.188 215.616 303.614L55.2914 211.242C40.3274 202.668 40.3274 188.657 55.2914 180.083L215.616 87.7108C230.58 79.1368 254.792 79.1368 269.666 87.7108L430.051 180.083C445.015 188.657 445.015 202.668 430.051 211.242L269.666 303.614Z" fill="#414BB2"/>
</g>
<g opacity="0.08">
<path d="M269.636 302.568C254.672 311.142 230.49 311.142 215.765 302.568L57.1466 211.212C42.1826 202.668 42.1826 188.657 57.1466 180.113L215.765 88.7564C230.729 80.1824 254.911 80.1824 269.636 88.7564L428.255 180.113C443.219 188.657 443.219 202.668 428.255 211.212L269.636 302.568Z" fill="#414EB4"/>
</g>
<g opacity="0.1">
<path d="M269.576 301.523C254.762 310.067 230.67 310.067 215.706 301.523L58.9423 211.182C44.1279 202.638 44.1279 188.687 58.9423 180.142L215.706 89.802C230.52 81.2579 254.762 81.2579 269.576 89.802L426.339 180.142C441.303 188.687 441.303 202.638 426.339 211.182L269.576 301.523Z" fill="#4151B5"/>
</g>
<g opacity="0.11">
<path d="M269.546 300.477C254.582 309.021 230.64 309.021 215.676 300.477L60.7382 211.152C45.9538 202.638 45.9538 188.687 60.7382 180.172L215.736 90.9373C230.52 82.3931 254.642 82.3931 269.606 90.9373L424.604 180.262C439.418 188.776 439.418 202.728 424.604 211.242L269.546 300.477Z" fill="#4254B6"/>
</g>
<g opacity="0.12">
<path d="M269.486 299.431C254.732 307.946 230.58 307.946 215.795 299.431L62.5637 211.152C47.7792 202.638 47.7792 188.687 62.5637 180.202L215.795 91.8932C230.55 83.379 254.702 83.379 269.486 91.8932L422.718 180.202C437.472 188.716 437.472 202.638 422.718 211.152L269.486 299.431Z" fill="#4257B8"/>
</g>
<g opacity="0.14">
<path d="M269.456 298.386C254.702 306.9 230.55 306.9 215.825 298.386L64.3894 211.122C49.6349 202.608 49.6349 188.716 64.3894 180.202L215.825 92.9388C230.58 84.4246 254.732 84.4246 269.456 92.9388L420.892 180.202C435.647 188.716 435.647 202.608 420.892 211.122L269.456 298.386Z" fill="#425AB9"/>
</g>
<g opacity="0.15">
<path d="M269.397 297.34C254.672 305.825 230.49 305.825 215.885 297.34L66.2449 211.092C51.5203 202.608 51.5203 188.716 66.2449 180.232L215.855 93.9247C230.58 85.4403 254.762 85.4403 269.397 93.9247L419.037 180.172C433.761 188.657 433.761 202.548 419.037 211.033L269.397 297.34Z" fill="#425DBB"/>
</g>
<g opacity="0.16">
<path d="M269.367 296.295C254.672 304.779 230.46 304.779 215.915 296.295L67.9209 211.063C53.2262 202.578 53.2262 188.746 67.9209 180.262L215.915 95.03C230.61 86.5457 254.822 86.5457 269.367 95.03L417.271 180.262C431.966 188.746 431.966 202.608 417.271 211.063L269.367 296.295Z" fill="#4360BC"/>
</g>
<g opacity="0.18">
<path d="M269.307 295.249C254.642 303.733 230.64 303.733 215.975 295.249L69.8064 211.033C55.1417 202.578 55.1417 188.746 69.8064 180.292L215.945 96.0757C230.64 87.6212 254.642 87.6212 269.307 96.0757L415.446 180.292C430.14 188.746 430.14 202.578 415.446 211.033L269.307 295.249Z" fill="#4364BE"/>
</g>
<g opacity="0.19">
<path d="M269.277 294.084C254.612 302.538 230.67 302.538 216.005 294.084L71.6321 211.003C56.9674 202.578 56.9674 188.746 71.6321 180.322L216.005 97.1213C230.64 88.6668 254.612 88.6668 269.277 97.1213L413.65 180.322C428.285 188.746 428.285 202.578 413.65 211.003L269.277 294.084Z" fill="#4367BF"/>
</g>
<g opacity="0.21">
<path d="M269.247 293.158C254.612 301.612 230.67 301.612 216.035 293.158L73.4576 211.003C58.9425 202.548 58.9425 188.776 73.4576 180.352L216.035 98.1669C230.67 89.7124 254.612 89.7124 269.217 98.1669L411.824 180.352C426.459 188.776 426.459 202.548 411.824 211.003L269.247 293.158Z" fill="#446AC0"/>
</g>
<g opacity="0.22">
<path d="M269.187 292.142C254.582 300.537 230.7 300.537 216.095 292.142L75.2532 210.973C60.6483 202.548 60.6483 188.776 75.2532 180.352L216.095 99.2125C230.7 90.9372 254.582 90.9372 269.187 99.2125L410.028 180.352C424.633 188.776 424.633 202.548 410.028 210.973L269.187 292.142Z" fill="#446DC2"/>
</g>
<g opacity="0.23">
<path d="M269.157 291.096C254.582 299.491 230.7 299.491 216.125 291.096L77.0789 210.943C62.504 202.548 62.504 188.776 77.0789 180.382L216.125 100.258C230.7 91.8335 254.552 91.8335 269.127 100.258L408.203 180.382C422.778 188.806 422.778 202.548 408.203 210.943L269.157 291.096Z" fill="#4470C3"/>
</g>
<g opacity="0.25">
<path d="M269.097 290.051C254.552 298.416 230.73 298.416 216.185 290.051L78.8746 210.913C64.3296 202.519 64.3296 188.806 78.8746 180.411L216.185 101.304C230.73 92.909 254.552 92.909 269.097 101.304L406.377 180.561C420.952 188.956 420.952 202.668 406.377 211.063L269.097 290.051Z" fill="#4573C5"/>
</g>
<g opacity="0.26">
<path d="M269.067 289.005C254.522 297.37 230.76 297.37 216.215 289.005L80.7003 210.883C66.1552 202.519 66.1552 188.806 80.7003 180.441L216.215 102.349C230.76 93.9247 254.522 93.9247 269.067 102.349L404.582 180.561C419.097 188.926 419.097 202.638 404.582 211.003L269.067 289.005Z" fill="#4576C6"/>
</g>
<g opacity="0.27">
<path d="M269.007 288.109C254.522 296.444 230.759 296.444 216.274 288.109L82.5257 210.853C67.9208 202.489 67.9208 188.836 82.5257 180.561L216.244 103.395C230.759 95.03 254.492 95.03 269.007 103.395L402.756 180.561C417.271 188.926 417.271 202.608 402.756 210.943L269.007 288.109Z" fill="#4579C8"/>
</g>
<g opacity="0.29">
<path d="M268.978 286.914C254.492 295.249 230.789 295.249 216.304 286.914L84.3214 210.853C69.8362 202.489 69.8362 188.836 84.3214 180.501L216.304 104.441C230.789 96.0757 254.492 96.0757 268.978 104.441L400.96 180.561C415.445 188.896 415.445 202.548 400.96 210.913L268.978 286.914Z" fill="#467CC9"/>
</g>
<g opacity="0.3">
<path d="M268.918 285.868C254.462 294.084 230.819 294.084 216.364 285.868L86.1469 210.824C71.6916 202.489 71.6916 188.836 86.1469 180.501L216.334 105.486C230.789 97.1511 254.462 97.1511 268.918 105.486L399.134 180.561C413.59 188.896 413.59 202.548 399.134 210.883L268.918 285.868Z" fill="#467FCA"/>
</g>
<g opacity="0.32">
<path d="M268.888 284.823C254.462 293.128 230.819 293.128 216.394 284.823L87.9425 210.794C73.5172 202.459 73.5172 188.866 87.9425 180.531L216.394 106.532C230.819 98.1967 254.432 98.1967 268.888 106.532L397.309 180.561C411.764 188.896 411.764 202.489 397.309 210.824L268.888 284.823Z" fill="#4682CC"/>
</g>
<g opacity="0.33">
<path d="M268.828 283.777C254.432 292.082 230.849 292.082 216.424 283.777L89.7682 210.764C75.3429 202.459 75.3429 188.866 89.7682 180.561L216.424 107.577C230.849 99.2722 254.432 99.2722 268.828 107.577L395.513 180.561C409.909 188.866 409.909 202.459 395.513 210.764L268.828 283.777Z" fill="#4785CD"/>
</g>
<g opacity="0.34">
<path d="M268.798 282.732C254.403 291.096 230.879 291.096 216.484 282.732L91.5939 210.734C77.1985 202.459 77.1985 188.866 91.5939 180.591L216.484 108.623C230.849 100.318 254.403 100.318 268.798 108.623L393.688 180.561C408.083 188.866 408.083 202.429 393.688 210.704L268.798 282.732Z" fill="#4788CF"/>
</g>
<g opacity="0.36">
<path d="M268.768 281.686C254.403 289.961 230.879 289.961 216.514 281.686L93.3896 210.704C79.0241 202.429 79.0241 188.896 93.3896 180.621L216.514 109.669C230.879 101.363 254.373 101.363 268.738 109.669L391.892 180.561C406.257 188.836 406.257 202.369 391.892 210.644L268.768 281.686Z" fill="#478BD0"/>
</g>
<g opacity="0.37">
<path d="M268.708 280.64C254.373 288.886 230.909 288.886 216.574 280.64L95.2153 210.704C80.8797 202.429 80.8797 188.896 95.2153 180.65L216.574 110.714C230.909 102.439 254.373 102.439 268.708 110.714L390.066 180.561C404.402 188.806 404.402 202.339 390.066 210.615L268.708 280.64Z" fill="#478ED2"/>
</g>
<g opacity="0.38">
<path d="M268.678 279.595C254.343 287.84 230.939 287.84 216.604 279.595L96.8913 210.674C82.5857 202.399 82.5857 188.926 96.8913 180.8L216.604 111.849C230.909 103.574 254.343 103.574 268.678 111.849L388.151 180.561C402.487 188.836 402.487 202.339 388.151 210.435L268.678 279.595Z" fill="#4891D3"/>
</g>
<g opacity="0.4">
<path d="M268.618 278.549C254.343 286.765 230.939 286.765 216.663 278.549L98.8366 210.644C84.531 202.399 84.531 188.926 98.8366 180.77L216.633 112.776C230.939 104.56 254.343 104.56 268.618 112.776L386.445 180.561C400.721 188.806 400.721 202.28 386.445 210.435L268.618 278.549Z" fill="#4894D5"/>
</g>
<g opacity="0.41">
<path d="M268.589 277.504C254.313 285.719 230.969 285.719 216.693 277.504L100.662 210.615C86.3866 202.399 86.3866 188.926 100.662 180.74L216.693 113.821C230.969 105.606 254.313 105.606 268.589 113.821L384.62 180.71C398.895 188.926 398.895 202.399 384.62 210.585L268.589 277.504Z" fill="#4897D6"/>
</g>
<g opacity="0.43">
<path d="M268.439 276.458C254.193 284.644 230.909 284.644 216.663 276.458L102.368 210.734C88.1222 202.519 88.1222 189.105 102.368 180.859L216.723 114.837C230.969 106.651 254.283 106.651 268.528 114.837L382.824 180.71C397.069 188.926 397.069 202.339 382.824 210.585L268.439 276.458Z" fill="#499AD7"/>
</g>
<g opacity="0.44">
<path d="M268.439 275.412C254.223 283.598 230.939 283.598 216.723 275.412L104.284 210.435C90.0679 202.25 90.0679 188.836 104.284 180.561L216.783 115.912C230.999 107.727 254.283 107.727 268.499 115.912L380.999 180.77C395.214 188.955 395.214 202.369 380.999 210.644L268.439 275.412Z" fill="#499DD9"/>
</g>
<g opacity="0.45">
<path d="M268.439 274.367C254.253 282.552 231.029 282.552 216.813 274.367L106.079 210.435C91.8932 202.25 91.8932 188.836 106.079 180.561L216.813 116.719C231.029 108.862 254.253 108.862 268.439 116.958L379.173 180.8C393.388 188.985 393.388 202.369 379.173 210.674L268.439 274.367Z" fill="#49A0DA"/>
</g>
<g opacity="0.47">
<path d="M268.439 273.321C254.253 281.477 231.059 281.477 216.903 273.321L107.905 210.435C93.7187 202.25 93.7187 188.896 107.905 180.561L216.873 117.824C231.029 109.669 254.223 109.669 268.409 117.824L377.377 180.561C391.533 188.746 391.533 202.1 377.377 210.435L268.439 273.321Z" fill="#4AA3DC"/>
</g>
<g opacity="0.48">
<path d="M268.439 272.275C254.283 280.431 231.119 280.431 216.963 272.275L109.82 210.435C95.6644 202.28 95.6644 188.926 109.82 180.77L216.903 119.049C231.059 110.893 254.223 110.893 268.349 119.049L375.552 180.83C389.708 188.985 389.708 202.339 375.552 210.495L268.439 272.275Z" fill="#4AA6DD"/>
</g>
<g opacity="0.49">
<path d="M268.439 271.23C254.313 279.356 231.208 279.356 217.082 271.23L111.526 210.435C97.4001 202.28 97.4001 188.985 111.526 180.83L216.963 120.095C231.089 111.849 254.193 111.849 268.439 120.095L373.756 180.86C387.852 189.015 387.852 202.339 373.756 210.465L268.439 271.23Z" fill="#4AA9DF"/>
</g>
<g opacity="0.51">
<path d="M268.439 270.184C254.343 278.31 231.238 278.31 217.142 270.184L113.352 210.435C99.2558 202.309 99.2558 189.015 113.352 180.889L216.993 121.14C231.089 113.014 254.163 113.014 268.289 121.14L371.93 180.889C386.026 189.015 386.026 202.309 371.93 210.435L268.439 270.184Z" fill="#4BACE0"/>
</g>
<g opacity="0.52">
<path d="M268.229 269.139C254.163 277.235 231.119 277.235 217.052 269.139L115.147 210.435C101.081 202.339 101.081 189.045 115.147 180.949L217.052 122.186C231.119 114.09 254.163 114.09 268.229 122.186L369.985 180.919C384.081 189.015 384.081 202.309 369.985 210.405L268.229 269.139Z" fill="#4BAFE1"/>
</g>
<g opacity="0.54">
<path d="M268.199 268.093C254.133 276.159 231.149 276.159 217.082 268.093L116.973 210.435C102.907 202.339 102.907 189.105 116.973 181.009L217.082 123.232C231.149 115.136 254.133 115.136 268.199 123.232L368.309 180.949C382.345 189.045 382.345 202.28 368.309 210.405L268.199 268.093Z" fill="#4BB3E3"/>
</g>
<g opacity="0.55">
<path d="M268.139 267.197C254.133 275.263 231.148 275.263 217.262 267.197L118.798 210.435C104.762 202.339 104.762 189.105 118.798 181.009L217.112 124.247C231.148 116.181 254.103 116.181 268.139 124.247L366.483 181.009C380.519 189.105 380.519 202.339 366.483 210.435L268.139 267.197Z" fill="#4CB6E4"/>
</g>
<g opacity="0.56">
<path d="M268.109 266.002C254.103 274.068 231.178 274.068 217.232 266.002L120.594 210.435C106.588 202.369 106.588 189.165 120.594 181.069L217.172 125.323C231.178 117.257 254.103 117.257 268.05 125.323L364.598 180.979C378.604 189.075 378.604 202.28 364.598 210.346L268.109 266.002Z" fill="#4CB9E6"/>
</g>
<g opacity="0.58">
<path d="M268.05 264.956C254.073 273.022 231.208 273.022 217.172 264.956L122.42 210.435C108.443 202.369 108.443 189.195 122.42 181.128L217.202 126.368C231.208 118.332 254.073 118.332 268.08 126.368L362.892 181.009C376.868 189.075 376.868 202.25 362.892 210.316L268.05 264.956Z" fill="#4CBCE7"/>
</g>
<g opacity="0.59">
<path d="M268.02 263.911C254.073 271.947 231.208 271.947 217.142 263.911L124.245 210.435C110.269 202.399 110.269 189.224 124.245 181.188L217.262 127.414C231.208 119.378 254.043 119.378 268.14 127.414L361.156 181.039C375.132 189.075 375.132 202.25 361.156 210.286L268.02 263.911Z" fill="#4CBFE9"/>
</g>
<g opacity="0.6">
<path d="M267.99 262.865C254.043 270.901 231.238 270.901 217.292 262.865L126.041 210.256C112.095 202.22 112.095 189.105 126.041 181.069L217.292 128.46C231.238 120.453 254.043 120.453 267.96 128.46L359.241 181.069C373.157 189.105 373.157 202.25 359.241 210.256L267.99 262.865Z" fill="#4DC2EA"/>
</g>
<g opacity="0.62">
<path d="M267.93 261.819C254.014 269.826 231.268 269.826 217.352 261.819L127.777 210.226C113.86 202.22 113.86 189.105 127.777 181.099L217.262 129.505C231.149 121.499 253.924 121.499 267.84 129.505L357.325 181.099C371.242 189.105 371.242 202.22 357.325 210.256L267.93 261.819Z" fill="#4DC5EB"/>
</g>
<g opacity="0.63">
<path d="M267.9 260.774C254.014 268.78 231.268 268.78 217.382 260.774L129.663 210.226C115.776 202.22 115.776 189.105 129.663 181.099L217.382 130.551C231.268 122.544 253.984 122.544 267.9 130.551L355.589 181.099C369.476 189.105 369.476 202.22 355.589 210.226L267.9 260.774Z" fill="#4DC8ED"/>
</g>
<g opacity="0.65">
<path d="M267.84 259.728C253.984 267.705 231.298 267.705 217.442 259.728L131.488 210.196C117.632 202.19 117.632 189.135 131.488 181.128L217.561 131.596C231.418 123.62 254.103 123.62 267.96 131.596L353.914 181.128C367.77 189.135 367.77 202.19 353.914 210.196L267.84 259.728Z" fill="#4ECBEE"/>
</g>
<g opacity="0.66">
<path d="M267.81 258.683C253.954 266.659 231.328 266.659 217.471 258.683L133.314 210.166C119.457 202.19 119.457 189.254 133.314 181.158L217.561 132.762C231.388 124.785 254.043 124.785 267.9 132.762L351.968 181.158C365.825 189.135 365.825 202.07 351.968 210.166L267.81 258.683Z" fill="#4ECEF0"/>
</g>
<g opacity="0.67">
<path d="M267.75 257.637C253.954 265.584 231.328 265.584 217.531 257.637L135.109 210.137C121.313 202.19 121.313 189.224 135.109 181.188L217.561 133.688C231.388 125.741 254.014 125.741 267.81 133.688L350.232 181.188C364.029 189.165 364.029 202.1 350.232 210.137L267.75 257.637Z" fill="#4ED1F1"/>
</g>
<g opacity="0.69">
<path d="M267.721 256.591C253.924 264.538 231.358 264.538 217.561 256.591L136.935 210.107C123.138 202.16 123.138 189.194 136.935 181.218L217.561 134.733C231.358 126.787 253.924 126.787 267.721 134.733L348.347 181.218C362.144 189.165 362.144 202.13 348.347 210.107L267.721 256.591Z" fill="#4FD4F3"/>
</g>
<path d="M267.661 255.546C253.894 263.463 231.358 263.463 217.621 255.546L138.731 210.077C124.964 202.16 124.964 189.165 138.731 181.248L217.561 135.749C231.328 127.832 253.864 127.832 267.631 135.749L346.491 181.218C360.258 189.135 360.258 202.13 346.491 210.077L267.661 255.546Z" fill="#4FD7F4"/>
</g>
</g>
<g opacity="0.561942">
<path opacity="0.5" d="M394.304 4L489.623 58.8383L334.472 143.226L256 98.0681L394.304 4V4Z" fill="url(#paint2_linear)"/>
</g>
<path d="M340.354 174.248L254.804 124.672C248.143 121.315 240.294 121.315 233.633 124.672L148.083 174.248H137.004V185.129V185.129C137.596 187.462 139.195 189.407 141.364 190.434L233.633 243.786C240.287 247.172 248.15 247.172 254.804 243.786L347.043 190.434C349.206 189.414 350.788 187.462 351.343 185.129V185.129V174.248H340.354Z" fill="#827FB5"/>
<g style="mix-blend-mode:overlay" opacity="0.8">
<path d="M340.354 174.248L254.804 124.672C248.143 121.315 240.294 121.315 233.633 124.672L148.083 174.248H137.004V185.129V185.129C137.596 187.462 139.195 189.407 141.364 190.434L233.633 243.786C240.287 247.172 248.15 247.172 254.804 243.786L347.043 190.434C349.206 189.414 350.788 187.462 351.343 185.129V185.129V174.248H340.354Z" fill="url(#paint3_linear)"/>
</g>
<g style="mix-blend-mode:screen">
<path d="M254.804 237.372C248.143 240.729 240.294 240.729 233.633 237.372L141.364 183.84C135.541 180.453 135.541 174.848 141.364 171.551L233.633 118.108C240.287 114.722 248.15 114.722 254.804 118.108L347.043 171.611C353.015 174.998 353.015 180.603 347.043 183.9L254.804 237.372Z" fill="url(#paint4_linear)"/>
</g>
<path d="M254.804 235.514C248.143 238.871 240.294 238.871 233.633 235.514L141.364 182.041C135.541 178.684 135.541 173.049 141.364 169.782L233.633 116.31C240.287 112.924 248.15 112.924 254.804 116.31L347.043 169.782C353.015 173.139 353.015 178.774 347.043 182.041L254.804 235.514Z" fill="#BFBCE0"/>
<g style="mix-blend-mode:color">
<path d="M254.804 235.514C248.143 238.871 240.294 238.871 233.633 235.514L141.364 182.041C135.541 178.684 135.541 173.049 141.364 169.782L233.633 116.31C240.287 112.924 248.15 112.924 254.804 116.31L347.043 169.782C353.015 173.139 353.015 178.774 347.043 182.041L254.804 235.514Z" fill="url(#paint5_linear)"/>
</g>
<g style="mix-blend-mode:multiply">
<path d="M333.427 146.043H287.441L254.565 126.891C247.795 123.46 239.805 123.46 233.036 126.891L200.189 145.954H154.174V177.096V177.096C154.702 179.512 156.327 181.542 158.564 182.581L233.036 225.802C239.805 229.233 247.795 229.233 254.565 225.802L328.977 182.581C331.2 181.524 332.818 179.502 333.367 177.096V177.096L333.427 146.043Z" fill="#2A2551"/>
</g>
<path d="M333.427 143.196H287.441L254.595 124.133C247.825 120.703 239.835 120.703 233.066 124.133L200.219 143.196H154.174V174.248V174.248C154.702 176.665 156.327 178.694 158.564 179.733L233.036 222.805C239.805 226.235 247.795 226.235 254.565 222.805L328.977 179.733C331.2 178.676 332.818 176.655 333.367 174.248V174.248L333.427 143.196Z" fill="url(#paint6_linear)"/>
<g style="mix-blend-mode:screen">
<path d="M254.565 193.911C247.795 197.341 239.805 197.341 233.036 193.911L158.623 150.869C152.651 147.422 152.651 141.877 158.623 138.4L233.036 95.1788C239.805 91.7486 247.795 91.7486 254.565 95.1788L328.978 138.31C334.95 141.757 334.95 147.302 328.978 150.779L254.565 193.911Z" fill="url(#paint7_linear)"/>
</g>
<path d="M254.565 192.562C247.795 195.992 239.805 195.992 233.036 192.562L158.623 149.43C152.651 145.983 152.651 140.438 158.623 136.962L233.036 93.9199C239.805 90.4898 247.795 90.4898 254.565 93.9199L328.978 136.962C334.95 140.408 334.95 145.954 328.978 149.43L254.565 192.562Z" fill="url(#paint8_linear)"/>
<path d="M325.991 118.498H283.828L253.669 101.024C247.47 97.8477 240.13 97.8477 233.932 101.024L203.772 118.498H161.609V140.978V140.978C162.118 143.185 163.602 145.039 165.641 146.013L233.932 185.548C240.13 188.724 247.47 188.724 253.669 185.548L321.901 146.013C323.939 145.039 325.423 143.185 325.932 140.978V140.978L325.991 118.498Z" fill="#4FFFFF"/>
<path d="M333.427 99.5249H287.441L254.595 80.4918C247.825 77.0617 239.835 77.0617 233.066 80.4918L200.219 99.5249H154.174V130.577V130.577C154.702 132.994 156.327 135.023 158.564 136.062L233.036 179.194C239.805 182.624 247.795 182.624 254.565 179.194L328.977 136.062C331.2 135.005 332.818 132.984 333.367 130.577V130.577L333.427 99.5249Z" fill="url(#paint9_linear)"/>
<g style="mix-blend-mode:screen">
<path d="M254.565 150.24C247.795 153.67 239.805 153.67 233.036 150.24L158.623 107.108C152.651 103.661 152.651 98.1162 158.623 94.6392L233.036 51.5077C239.805 48.0776 247.795 48.0776 254.565 51.5077L328.978 94.6392C334.95 98.0862 334.95 103.631 328.978 107.108L254.565 150.24Z" fill="url(#paint10_linear)"/>
</g>
<path d="M254.565 148.891C247.795 152.321 239.805 152.321 233.036 148.891L158.623 105.909C152.651 102.492 152.651 96.9172 158.623 93.4403L233.036 50.1589C239.805 46.7288 247.795 46.7288 254.565 50.1589L328.978 93.2905C334.95 96.7374 334.95 102.282 328.978 105.759L254.565 148.891Z" fill="url(#paint11_linear)"/>
<path d="M325.991 74.8269H283.828L253.669 57.3525C247.47 54.1766 240.13 54.1766 233.932 57.3525L203.772 74.8269H161.609V97.3069V97.3069C162.118 99.5144 163.602 101.368 165.641 102.342L233.932 141.877C240.13 145.053 247.47 145.053 253.669 141.877L321.901 102.342C323.939 101.368 325.423 99.5144 325.932 97.3069V97.3069L325.991 74.8269Z" fill="#4FFFFF"/>
<path d="M333.427 55.9437H287.441L254.565 36.9706C247.795 33.5405 239.805 33.5405 233.036 36.9706L200.189 56.0336H154.174V130.607V130.607C154.711 133.02 156.332 135.046 158.564 136.092L233.036 179.224C239.805 182.654 247.795 182.654 254.565 179.224L328.977 136.092C331.194 135.028 332.809 133.01 333.367 130.607V130.607L333.427 55.9437Z" fill="url(#paint12_linear)"/>
<g style="mix-blend-mode:screen">
<path d="M254.565 106.659C247.795 110.089 239.805 110.089 233.036 106.659L158.623 63.527C152.651 60.08 152.651 54.535 158.623 51.0581L233.036 7.9265C239.805 4.49638 247.795 4.49638 254.565 7.9265L328.978 51.0581C334.95 54.505 334.95 60.0501 328.978 63.527L254.565 106.659Z" fill="url(#paint13_linear)"/>
</g>
<path d="M254.565 105.31C247.795 108.74 239.805 108.74 233.036 105.31L158.623 62.1782C152.651 58.7312 152.651 53.1862 158.623 49.7093L233.036 6.57771C239.805 3.1476 247.795 3.1476 254.565 6.57771L328.978 49.7093C334.95 53.1562 334.95 58.7013 328.978 62.1782L254.565 105.31Z" fill="url(#paint14_linear)"/>
<path d="M272.989 159.112L253.281 170.562V166.066L272.989 154.616V159.112V159.112Z" fill="#4FD7F4"/>
<path d="M272.989 152.158L253.281 163.578V159.082L272.989 147.662V152.158V152.158Z" fill="#4FD7F4"/>
<path d="M272.989 145.174L253.281 156.594V152.098L272.989 140.678V145.174V145.174Z" fill="#4FD7F4"/>
<path d="M272.989 138.19L253.281 149.64V145.144L272.989 133.694V138.19V138.19Z" fill="#4FD7F4"/>
<path d="M272.989 131.237L253.281 142.656V138.16L272.989 126.741V131.237V131.237Z" fill="#4FD7F4"/>
<path d="M272.989 124.253L253.281 135.673V131.177L272.989 119.757V124.253V124.253Z" fill="#4FD7F4"/>
<path d="M272.989 117.299L253.281 128.719V124.223L272.989 112.803V117.299V117.299Z" fill="#4FD7F4"/>
<path d="M272.989 110.315L253.281 121.735V117.239L272.989 105.819V110.315V110.315Z" fill="#4FD7F4"/>
<path d="M177.376 131.656L161.609 122.514V118.918L177.376 128.059V131.656V131.656Z" fill="#4FD7F4"/>
<path d="M177.376 126.081L161.609 116.939V113.343L177.376 122.484V126.081V126.081Z" fill="#4FD7F4"/>
<path d="M177.376 120.506L161.609 111.364V107.768L177.376 116.909V120.506V120.506Z" fill="#4FD7F4"/>
<path d="M177.376 114.931L161.609 105.789V102.193L177.376 111.334V114.931V114.931Z" fill="#4FD7F4"/>
<path d="M177.376 109.356L161.609 100.214V96.6175L177.376 105.759V109.356V109.356Z" fill="#4FD7F4"/>
<path d="M177.376 103.751L161.609 94.6093V91.0424L177.376 100.154V103.751V103.751Z" fill="#4FD7F4"/>
<path d="M177.376 98.1761L161.609 89.0342V85.4374L177.376 94.5793V98.1761V98.1761Z" fill="#4FD7F4"/>
<path d="M177.376 92.6011L161.609 83.4592V79.8624L177.376 89.0043V92.6011V92.6011Z" fill="#4FD7F4"/>
<g style="mix-blend-mode:multiply">
<path d="M189.111 57.0528C187.897 57.653 186.473 57.653 185.259 57.0528C184.791 56.8783 184.48 56.43 184.48 55.9288C184.48 55.4275 184.791 54.9792 185.259 54.8048C186.473 54.2045 187.897 54.2045 189.111 54.8048C189.579 54.9792 189.89 55.4275 189.89 55.9288C189.89 56.43 189.579 56.8783 189.111 57.0528Z" fill="url(#paint15_linear)"/>
</g>
<path d="M189.111 56.753C187.897 57.3533 186.473 57.3533 185.259 56.753C184.214 56.1236 184.214 55.1345 185.259 54.535C186.466 53.9058 187.903 53.9058 189.111 54.535C190.156 55.1345 190.156 56.1236 189.111 56.753Z" fill="url(#paint16_linear)"/>
<path d="M189.111 55.614C187.897 56.2143 186.473 56.2143 185.259 55.614C184.783 55.455 184.463 55.0082 184.463 54.505C184.463 54.0018 184.783 53.5551 185.259 53.396C186.467 52.7668 187.904 52.7668 189.111 53.396C189.587 53.5551 189.907 54.0018 189.907 54.505C189.907 55.0082 189.587 55.455 189.111 55.614Z" fill="#96A2CC"/>
<g style="mix-blend-mode:overlay" opacity="0.6">
<path d="M189.111 55.614C187.897 56.2143 186.473 56.2143 185.259 55.614C184.783 55.455 184.463 55.0082 184.463 54.505C184.463 54.0018 184.783 53.5551 185.259 53.396C186.467 52.7668 187.904 52.7668 189.111 53.396C189.587 53.5551 189.907 54.0018 189.907 54.505C189.907 55.0082 189.587 55.455 189.111 55.614Z" fill="url(#paint17_linear)"/>
</g>
<path d="M185.558 53.2461L185.259 53.396H185.11L188.932 55.614H189.111L189.35 55.4342L185.558 53.2461Z" fill="#3F3CAB"/>
<g style="mix-blend-mode:multiply">
<path d="M299.595 57.0528C298.391 57.6524 296.977 57.6524 295.773 57.0528C295.305 56.8783 294.994 56.43 294.994 55.9288C294.994 55.4275 295.305 54.9792 295.773 54.8048C296.977 54.2051 298.391 54.2051 299.595 54.8048C300.063 54.9792 300.374 55.4275 300.374 55.9288C300.374 56.43 300.063 56.8783 299.595 57.0528Z" fill="url(#paint18_linear)"/>
</g>
<path d="M297.684 57.2026C299.185 57.2026 300.401 56.5048 300.401 55.644C300.401 54.7832 299.185 54.0854 297.684 54.0854C296.183 54.0854 294.967 54.7832 294.967 55.644C294.967 56.5048 296.183 57.2026 297.684 57.2026Z" fill="url(#paint19_linear)"/>
<path d="M299.595 55.614C298.391 56.2136 296.977 56.2136 295.773 55.614C295.297 55.455 294.976 55.0082 294.976 54.505C294.976 54.0018 295.297 53.5551 295.773 53.396C296.97 52.767 298.398 52.767 299.595 53.396C300.07 53.5551 300.391 54.0018 300.391 54.505C300.391 55.0082 300.07 55.455 299.595 55.614Z" fill="#96A2CC"/>
<g style="mix-blend-mode:overlay" opacity="0.6">
<path d="M299.595 55.614C298.391 56.2136 296.977 56.2136 295.773 55.614C295.297 55.455 294.976 55.0082 294.976 54.505C294.976 54.0018 295.297 53.5551 295.773 53.396C296.97 52.767 298.398 52.767 299.595 53.396C300.07 53.5551 300.391 54.0018 300.391 54.505C300.391 55.0082 300.07 55.455 299.595 55.614Z" fill="url(#paint20_linear)"/>
</g>
<path d="M296.071 53.2461L295.773 53.396H295.624L299.416 55.614H299.595L299.834 55.4342L296.071 53.2461Z" fill="#3F3CAB"/>
<g style="mix-blend-mode:multiply">
<path d="M244.831 88.7944C243.623 89.4236 242.186 89.4236 240.979 88.7944C239.934 88.195 239.934 87.2059 240.979 86.5764C242.193 85.9762 243.616 85.9762 244.831 86.5764C245.876 87.2059 245.876 88.195 244.831 88.7944Z" fill="url(#paint21_linear)"/>
</g>
<path d="M244.831 88.5247C243.616 89.125 242.193 89.125 240.979 88.5247C240.511 88.3503 240.2 87.9019 240.2 87.4007C240.2 86.8995 240.511 86.4511 240.979 86.2767C242.193 85.6764 243.616 85.6764 244.831 86.2767C245.299 86.4511 245.61 86.8995 245.61 87.4007C245.61 87.9019 245.299 88.3503 244.831 88.5247V88.5247Z" fill="url(#paint22_linear)"/>
<path d="M242.92 87.8353C244.42 87.8353 245.637 87.1375 245.637 86.2767C245.637 85.4159 244.42 84.7181 242.92 84.7181C241.419 84.7181 240.202 85.4159 240.202 86.2767C240.202 87.1375 241.419 87.8353 242.92 87.8353Z" fill="#96A2CC"/>
<g style="mix-blend-mode:overlay" opacity="0.6">
<path d="M242.92 87.8353C244.42 87.8353 245.637 87.1375 245.637 86.2767C245.637 85.4159 244.42 84.7181 242.92 84.7181C241.419 84.7181 240.202 85.4159 240.202 86.2767C240.202 87.1375 241.419 87.8353 242.92 87.8353Z" fill="url(#paint23_linear)"/>
</g>
<path d="M241.307 84.9279H240.979V84.9279L244.771 87.116H244.95L245.189 86.9361L241.307 84.9279Z" fill="#3F3CAB"/>
<g style="mix-blend-mode:multiply">
<path d="M242.92 25.4309C244.42 25.4309 245.637 24.7331 245.637 23.8723C245.637 23.0115 244.42 22.3137 242.92 22.3137C241.419 22.3137 240.202 23.0115 240.202 23.8723C240.202 24.7331 241.419 25.4309 242.92 25.4309Z" fill="url(#paint24_linear)"/>
</g>
<path d="M244.831 24.6816C243.623 25.3108 242.186 25.3108 240.979 24.6816C239.934 24.0821 239.934 23.093 240.979 22.4636C242.193 21.8633 243.616 21.8633 244.831 22.4636C245.876 23.093 245.876 24.0821 244.831 24.6816Z" fill="url(#paint25_linear)"/>
<path d="M244.831 23.5426C243.623 24.1718 242.186 24.1718 240.979 23.5426C239.934 22.9431 239.934 21.954 240.979 21.3246C242.193 20.7243 243.616 20.7243 244.831 21.3246C245.876 21.984 245.876 22.9431 244.831 23.5426Z" fill="#96A2CC"/>
<g style="mix-blend-mode:overlay" opacity="0.6">
<path d="M244.831 23.5426C243.623 24.1718 242.186 24.1718 240.979 23.5426C239.934 22.9431 239.934 21.954 240.979 21.3246C242.193 20.7243 243.616 20.7243 244.831 21.3246C245.876 21.984 245.876 22.9431 244.831 23.5426Z" fill="url(#paint26_linear)"/>
</g>
<path d="M241.307 21.1747H240.979V21.1747L244.771 23.3927H244.95C245.047 23.3599 245.131 23.2969 245.189 23.2129L241.307 21.1747Z" fill="#3F3CAB"/>
<g style="mix-blend-mode:multiply">
<path d="M277.677 51.3878L247.787 33.9733C244.546 32.2933 240.696 32.2933 237.455 33.9733L207.595 51.2679H199.711V58.4615V58.4615C200.101 59.3971 200.81 60.1624 201.712 60.6196L237.545 81.3011C240.782 82.9512 244.609 82.9512 247.847 81.3011L283.53 60.6196C284.432 60.1624 285.141 59.3971 285.531 58.4615H285.68V51.2679L277.677 51.3878Z" fill="url(#paint27_linear)"/>
</g>
<path d="M277.677 50.5485L247.817 33.224C244.569 31.5735 240.733 31.5735 237.485 33.224L207.624 50.5485H199.711V57.7121V57.7121C200.084 58.6584 200.799 59.429 201.712 59.8702L237.545 80.5518C240.782 82.2018 244.609 82.2018 247.847 80.5518L283.53 59.8702C284.443 59.429 285.158 58.6584 285.531 57.7121H285.68V50.5485H277.677Z" fill="url(#paint28_linear)"/>
<g style="mix-blend-mode:screen">
<path d="M247.787 75.4264C244.55 77.0764 240.722 77.0764 237.485 75.4264L201.802 54.7448C200.153 54.7448 198.816 53.4028 198.816 51.7475C198.816 50.0921 200.153 48.7501 201.802 48.7501L237.455 27.9786C240.703 26.3282 244.539 26.3282 247.787 27.9786L283.47 48.6602C284.769 49.0775 285.65 50.2891 285.65 51.6575C285.65 53.026 284.769 54.2376 283.47 54.6549L247.787 75.4264Z" fill="#493990"/>
</g>
<path d="M247.787 74.8569C244.55 76.5069 240.722 76.5069 237.485 74.8569L201.802 54.1753C200.153 54.1753 198.816 52.8334 198.816 51.178C198.816 49.5226 200.153 48.1807 201.802 48.1807L237.455 27.4991C240.703 25.8486 244.539 25.8486 247.787 27.4991L283.47 48.1807C284.769 48.5979 285.65 49.8095 285.65 51.178C285.65 52.5464 284.769 53.7581 283.47 54.1753L247.787 74.8569Z" fill="#493990"/>
<path opacity="0.2" d="M247.787 74.8569C244.55 76.5069 240.722 76.5069 237.485 74.8569L201.802 54.1753C200.153 54.1753 198.816 52.8334 198.816 51.178C198.816 49.5226 200.153 48.1807 201.802 48.1807L237.455 27.4991C240.703 25.8486 244.539 25.8486 247.787 27.4991L283.47 48.1807C284.769 48.5979 285.65 49.8095 285.65 51.178C285.65 52.5464 284.769 53.7581 283.47 54.1753L247.787 74.8569Z" fill="url(#paint29_linear)"/>
<g style="mix-blend-mode:screen">
<path d="M263.165 62.5379C250.26 69.1018 235.012 69.1018 222.107 62.5379C210.76 55.9437 210.76 45.3032 222.107 38.7391C235.012 32.1751 250.26 32.1751 263.165 38.7391C274.363 45.3032 274.363 55.9437 263.165 62.5379Z" fill="#493990"/>
</g>
<path d="M263.165 62.8076C250.26 69.3715 235.012 69.3715 222.107 62.8076C210.76 56.2434 210.76 45.573 222.107 39.0088C235.012 32.4449 250.26 32.4449 263.165 39.0088C274.363 45.573 274.363 56.2434 263.165 62.8076Z" fill="url(#paint30_linear)"/>
<path d="M263.165 71.35C250.26 77.9139 235.012 77.9139 222.107 71.35C210.76 64.7858 210.76 54.1153 222.107 47.5512C235.012 40.9872 250.26 40.9872 263.165 47.5512C274.363 54.1153 274.363 64.7858 263.165 71.35Z" fill="#4FFFFF"/>
<path fill-rule="evenodd" clip-rule="evenodd" d="M249.668 41.1069C244.443 43.8945 243.517 47.0417 243.517 49.1698C242.005 49.0768 240.487 49.1979 239.008 49.5294C237.87 46.7625 237.509 43.7357 237.963 40.7772C241.862 40.3612 245.799 40.4721 249.668 41.1069ZM235.574 50.8183L236.679 50.2787C233.523 48.7387 231.697 45.3503 232.14 41.8563C229.554 42.5033 227.071 43.5123 224.764 44.8536C224.158 45.192 223.57 45.5622 223.003 45.9626C226.306 48.5415 229.929 50.6776 233.782 52.317C234.282 51.722 234.877 51.2154 235.544 50.8183H235.574ZM217.359 55.3143C217.379 52.9697 218.225 50.7079 219.748 48.93C223.552 51.8276 228.172 53.4433 232.946 53.5458C232.617 54.3734 232.617 55.2961 232.946 56.1236C227.737 56.308 222.522 56.0372 217.359 55.3143ZM246.294 49.5594C247.476 49.8055 248.613 50.23 249.668 50.8183L250.056 51.088C254.153 48.4131 258.968 47.0636 263.852 47.2215C262.817 46.3161 261.697 45.5131 260.508 44.8236C258.856 43.8633 257.103 43.0893 255.282 42.5157C251.898 44.3165 248.855 46.7007 246.294 49.5594ZM244.054 60.6196C245.472 60.5117 246.869 60.2091 248.205 59.7204C250.949 62.0482 253.177 64.9276 254.745 68.1729C251.208 69.2554 247.542 69.8503 243.845 69.9413C246.451 67.4177 246.544 63.2582 244.054 60.6196ZM249.967 58.8212C254.091 59.6696 257.631 62.3021 259.642 66.0147L260.508 65.5352C262.746 64.3109 264.684 62.6009 266.181 60.5296C261.685 58.6823 256.998 57.3452 252.206 56.5432C251.679 57.4922 250.905 58.2796 249.967 58.8212ZM233.514 57.2625C234.066 57.9748 234.757 58.5664 235.544 59.001L236.112 59.3007C232.016 61.5259 227.69 63.2949 223.212 64.576C221.009 63.1726 219.24 61.1794 218.106 58.8212C223.287 59.7366 228.619 59.1972 233.514 57.2625ZM266.479 50.3687C261.446 50.5468 256.443 51.2398 251.549 52.4368C252.171 53.1615 252.511 54.0879 252.505 55.0445C257.579 54.3868 262.736 55.1115 267.435 57.1426C268.027 54.8504 267.695 52.4162 266.51 50.3687H266.479ZM227.572 66.9739C234.529 65.1155 236.918 61.8784 237.754 59.9601H237.784C239.134 60.353 240.529 60.5646 241.934 60.5896C241.295 63.8739 239.882 66.957 237.814 69.5816C234.294 69.1999 230.846 68.322 227.572 66.9739Z" fill="#4571A5"/>
<path d="M253.132 54.475V48.7801H231.991V55.4642C232.148 57.3493 233.282 59.012 234.977 59.8403C239.676 62.1989 245.208 62.1989 249.907 59.8403C252.654 58.3716 253.64 56.3634 253.132 54.475Z" fill="#282056"/>
<path fill-rule="evenodd" clip-rule="evenodd" d="M249.668 38.5592C244.443 41.3167 243.517 44.4939 243.517 46.592C242.004 46.5241 240.488 46.6551 239.008 46.9817C237.87 44.2148 237.509 41.188 237.963 38.2295C241.861 37.7986 245.8 37.9095 249.668 38.5592ZM235.574 48.2705C235.668 48.2147 235.763 48.161 235.859 48.1093C235.97 48.05 236.082 47.9933 236.196 47.9396C236.354 47.8645 236.515 47.7949 236.679 47.731C233.512 46.1873 231.684 42.7828 232.14 39.2786C229.558 39.9398 227.077 40.948 224.764 42.2759C224.152 42.6033 223.563 42.9739 223.003 43.3849C226.3 45.9651 229.925 48.0921 233.782 49.7093C234.286 49.1349 234.881 48.6487 235.544 48.2705H235.574ZM217.359 52.7665C217.385 50.414 218.23 48.1447 219.748 46.3523C223.551 49.257 228.169 50.8829 232.946 50.9981C232.619 51.8156 232.619 52.7284 232.946 53.5459C227.738 53.727 222.524 53.4663 217.359 52.7665ZM246.294 46.9817C247.473 47.2516 248.609 47.6854 249.668 48.2706L250.056 48.5103C254.164 45.8599 258.971 44.5125 263.852 44.6438C262.823 43.7389 261.702 42.9453 260.508 42.2759C258.849 41.3282 257.098 40.5548 255.282 39.968C251.913 41.7795 248.874 44.151 246.294 46.9817ZM244.054 58.0718C245.476 57.9684 246.875 57.6553 248.205 57.1426C250.923 59.4482 253.148 62.2827 254.745 65.4752C251.211 66.5723 247.543 67.1676 243.845 67.2437C246.37 64.744 246.462 60.6847 244.054 58.0718ZM249.967 56.2734C254.101 57.0984 257.651 59.7376 259.642 63.467L260.508 62.9874C262.748 61.7529 264.686 60.0327 266.181 57.9519C261.684 56.1143 256.997 54.7873 252.206 53.9955C251.662 54.9309 250.891 55.7142 249.967 56.2734ZM233.514 54.7148C234.073 55.4193 234.763 56.0095 235.544 56.4533L236.112 56.723C232.022 58.9607 227.695 60.7303 223.212 61.9983C221.002 60.6036 219.231 58.6081 218.106 56.2434C223.285 57.1498 228.612 56.6213 233.514 54.7148ZM266.479 47.821C261.444 47.9843 256.44 48.6775 251.549 49.8891C252.169 50.6032 252.509 51.5196 252.505 52.4668C257.579 51.8091 262.736 52.5338 267.435 54.5649C268.039 52.2832 267.706 49.8537 266.51 47.821H266.479ZM227.572 64.3962C234.529 62.5678 236.918 59.3008 237.754 57.3824H237.784C239.127 57.8036 240.527 58.0158 241.934 58.0119C241.295 61.2962 239.882 64.3793 237.814 67.0039C234.289 66.651 230.837 65.7721 227.572 64.3962Z" fill="#493990"/>
<g style="mix-blend-mode:screen">
<path d="M250.146 54.4151C245.447 56.7737 239.915 56.7737 235.216 54.4151C231.065 52.0172 231.065 48.1207 235.216 45.6929C239.915 43.3342 245.447 43.3342 250.146 45.6929C254.297 48.1207 254.297 51.9573 250.146 54.4151Z" fill="#493990"/>
</g>
<path d="M250.146 54.1453C245.447 56.504 239.915 56.504 235.216 54.1453C231.065 51.7175 231.065 47.821 235.216 45.4231C239.908 43.0358 245.453 43.0358 250.146 45.4231C254.297 47.821 254.297 51.7175 250.146 54.1453Z" fill="#493990"/>
<g style="mix-blend-mode:multiply" opacity="0.4">
<path d="M248.533 53.1862C244.787 55.1276 240.336 55.1276 236.589 53.1862C235.119 52.701 234.125 51.323 234.125 49.7692C234.125 48.2155 235.119 46.8374 236.589 46.3523C240.336 44.4109 244.787 44.4109 248.533 46.3523C250.004 46.8374 250.998 48.2155 250.998 49.7692C250.998 51.323 250.004 52.701 248.533 53.1862Z" fill="#9C98B0"/>
</g>
<g opacity="0.200614">
<path opacity="0.5" d="M106.319 275.226L11 220.387L166.181 136L244.623 181.157L106.319 275.226V275.226Z" fill="url(#paint31_linear)"/>
<path opacity="0.52" d="M14.2859 218.689L166.181 136L244.623 181.157L108.799 273.081L14.2859 218.689V218.689Z" fill="url(#paint32_linear)"/>
<path opacity="0.55" d="M17.5718 217.021L166.181 136L244.623 181.157L111.278 270.936L17.5718 217.021V217.021Z" fill="url(#paint33_linear)"/>
<path opacity="0.57" d="M20.8574 215.323L166.181 136L244.623 181.157L113.757 268.791L20.8574 215.323V215.323Z" fill="url(#paint34_linear)"/>
<path opacity="0.6" d="M24.1433 213.626L166.181 136L244.623 181.157L116.236 266.617L24.1433 213.626V213.626Z" fill="url(#paint35_linear)"/>
<path opacity="0.62" d="M27.4292 211.957L166.181 136L244.623 181.157L118.716 264.472L27.4292 211.957V211.957Z" fill="url(#paint36_linear)"/>
<path opacity="0.64" d="M30.7151 210.26L166.181 136L244.623 181.157L121.195 262.328L30.7151 210.26V210.26Z" fill="url(#paint37_linear)"/>
<path opacity="0.67" d="M34.001 208.562L166.181 136L244.623 181.157L123.704 260.183L34.001 208.562V208.562Z" fill="url(#paint38_linear)"/>
<path opacity="0.69" d="M37.2866 206.864L166.181 136L244.623 181.157L126.184 258.038L37.2866 206.864V206.864Z" fill="url(#paint39_linear)"/>
<path opacity="0.71" d="M40.5725 205.196L166.181 136L244.623 181.157L128.663 255.864L40.5725 205.196V205.196Z" fill="url(#paint40_linear)"/>
<path opacity="0.74" d="M43.8584 203.498L166.181 136L244.623 181.157L131.142 253.719L43.8584 203.498V203.498Z" fill="url(#paint41_linear)"/>
<path opacity="0.76" d="M47.1443 201.8L166.181 136L244.623 181.157L133.622 251.574L47.1443 201.8V201.8Z" fill="url(#paint42_linear)"/>
<path opacity="0.79" d="M50.4302 200.102L166.181 136L244.623 181.157L136.101 249.43L50.4302 200.102V200.102Z" fill="url(#paint43_linear)"/>
<path opacity="0.81" d="M53.7158 198.434L166.181 136L244.623 181.157L138.58 247.285L53.7158 198.434V198.434Z" fill="url(#paint44_linear)"/>
<path opacity="0.83" d="M56.9719 196.736L166.181 136L244.623 181.157L141.06 245.14L56.9719 196.736V196.736Z" fill="url(#paint45_linear)"/>
<path opacity="0.86" d="M60.2876 195.038L166.181 136L244.623 181.157L143.539 242.966L60.2876 195.038V195.038Z" fill="url(#paint46_linear)"/>
<path opacity="0.88" d="M63.5435 193.37L166.181 136L244.623 181.157L146.018 240.821L63.5435 193.37V193.37Z" fill="url(#paint47_linear)"/>
<path opacity="0.9" d="M66.8293 191.672L166.181 136L244.623 181.157L148.497 238.677L66.8293 191.672V191.672Z" fill="url(#paint48_linear)"/>
<path opacity="0.93" d="M70.1152 189.974L166.181 136L244.623 181.157L150.977 236.532L70.1152 189.974V189.974Z" fill="url(#paint49_linear)"/>
<path opacity="0.95" d="M73.4011 188.277L166.181 136L244.623 181.157L153.456 234.387L73.4011 188.277V188.277Z" fill="url(#paint50_linear)"/>
<path opacity="0.98" d="M76.687 186.609L166.181 136L244.623 181.157L155.965 232.213L76.687 186.609V186.609Z" fill="url(#paint51_linear)"/>
<path d="M158.444 230.068L79.9727 184.911L166.181 136L244.623 181.157L158.444 230.068V230.068Z" fill="url(#paint52_linear)"/>
<path d="M197.875 208.472L119.403 163.315L165.434 136.983L243.906 182.14L197.875 208.472V208.472Z" fill="url(#paint53_linear)"/>
</g>
<g opacity="0.517411">
<g opacity="0.8">
<path opacity="0.5" d="M383.603 278L479 222.465L323.693 137.006L245.187 182.737L383.603 278V278Z" fill="url(#paint54_linear)"/>
<path d="M291.256 209.916L369.761 164.155L323.692 137.489L245.187 183.25L291.256 209.916V209.916Z" fill="url(#paint55_linear)"/>
</g>
</g>
<defs>
<linearGradient id="paint0_linear" x1="83.8444" y1="16.8078" x2="97.0274" y2="123.583" gradientUnits="userSpaceOnUse">
<stop stop-color="#4FFFFF"/>
<stop offset="0.22" stop-color="#4FFFFF"/>
<stop offset="0.96" stop-color="#4FFFFF"/>
</linearGradient>
<linearGradient id="paint1_linear" x1="132.627" y1="100.512" x2="132.627" y2="145.76" gradientUnits="userSpaceOnUse">
<stop stop-color="#4FFFFF"/>
<stop offset="0.96" stop-color="#4FFFFF"/>
</linearGradient>
<linearGradient id="paint2_linear" x1="176.415" y1="-3.13069" x2="147.248" y2="121.754" gradientUnits="userSpaceOnUse">
<stop stop-color="#4FFFFF"/>
<stop offset="0.22" stop-color="#4FFFFF"/>
<stop offset="0.54" stop-color="#4FFFFF"/>
<stop offset="0.96" stop-color="#4FFFFF"/>
</linearGradient>
<linearGradient id="paint3_linear" x1="137.004" y1="246.401" x2="351.433" y2="246.401" gradientUnits="userSpaceOnUse">
<stop stop-color="#112552"/>
<stop offset="0.21" stop-color="#224A9E"/>
<stop offset="0.39" stop-color="#4B02AA"/>
<stop offset="0.61" stop-color="#8024AA"/>
<stop offset="0.84" stop-color="#D88282"/>
<stop offset="1" stop-color="#B24EA6"/>
</linearGradient>
<linearGradient id="paint4_linear" x1="137.004" y1="239.888" x2="351.433" y2="239.888" gradientUnits="userSpaceOnUse">
<stop stop-color="#214B9E"/>
<stop offset="0.22" stop-color="#4C00AA"/>
<stop offset="0.8" stop-color="#AE45AA"/>
<stop offset="1" stop-color="#D89D82"/>
</linearGradient>
<linearGradient id="paint5_linear" x1="137.004" y1="237.999" x2="351.433" y2="237.999" gradientUnits="userSpaceOnUse">
<stop stop-color="#214B9E"/>
<stop offset="0.22" stop-color="#4C00AA"/>
<stop offset="0.8" stop-color="#AE45AA"/>
<stop offset="1" stop-color="#D89D82"/>
</linearGradient>
<linearGradient id="paint6_linear" x1="147.067" y1="237.306" x2="367.408" y2="237.306" gradientUnits="userSpaceOnUse">
<stop stop-color="#112552"/>
<stop offset="0.14" stop-color="#224A9E"/>
<stop offset="0.4" stop-color="#4902A6"/>
<stop offset="0.44" stop-color="#613FAA"/>
<stop offset="0.54" stop-color="#543485"/>
</linearGradient>
<linearGradient id="paint7_linear" x1="154.174" y1="196.466" x2="333.427" y2="196.466" gradientUnits="userSpaceOnUse">
<stop stop-color="#214B9E"/>
<stop offset="0.23" stop-color="#5300BF"/>
<stop offset="0.76" stop-color="#4FFFFF"/>
<stop offset="1" stop-color="#5F5186"/>
</linearGradient>
<linearGradient id="paint8_linear" x1="154.174" y1="195.072" x2="333.427" y2="195.072" gradientUnits="userSpaceOnUse">
<stop stop-color="#214B9E"/>
<stop offset="0.23" stop-color="#5300BF"/>
<stop offset="0.76" stop-color="#4FFFFF"/>
<stop offset="1" stop-color="#5F5186"/>
</linearGradient>
<linearGradient id="paint9_linear" x1="147.067" y1="193.653" x2="367.408" y2="193.653" gradientUnits="userSpaceOnUse">
<stop stop-color="#112552"/>
<stop offset="0.14" stop-color="#224A9E"/>
<stop offset="0.4" stop-color="#4902A6"/>
<stop offset="0.44" stop-color="#613FAA"/>
<stop offset="0.62" stop-color="#875A79"/>
<stop offset="0.85" stop-color="#673B84"/>
</linearGradient>
<linearGradient id="paint10_linear" x1="154.174" y1="152.795" x2="333.427" y2="152.795" gradientUnits="userSpaceOnUse">
<stop stop-color="#214B9E"/>
<stop offset="0.22" stop-color="#4C00AA"/>
<stop offset="0.8" stop-color="#4FFFFF"/>
<stop offset="1" stop-color="#D89D82"/>
</linearGradient>
<linearGradient id="paint11_linear" x1="154.174" y1="151.446" x2="333.427" y2="151.446" gradientUnits="userSpaceOnUse">
<stop stop-color="#214B9E"/>
<stop offset="0.23" stop-color="#5300BF"/>
<stop offset="0.76" stop-color="#4FFFFF"/>
<stop offset="1" stop-color="#5F5186"/>
</linearGradient>
<linearGradient id="paint12_linear" x1="132.047" y1="215.363" x2="393.088" y2="215.363" gradientUnits="userSpaceOnUse">
<stop stop-color="#112552"/>
<stop offset="0.14" stop-color="#224A9E"/>
<stop offset="0.4" stop-color="#4902A6"/>
<stop offset="0.44" stop-color="#613FAA"/>
<stop offset="0.62" stop-color="#875A79"/>
<stop offset="0.85" stop-color="#673B84"/>
</linearGradient>
<linearGradient id="paint13_linear" x1="154.174" y1="109.214" x2="333.427" y2="109.214" gradientUnits="userSpaceOnUse">
<stop stop-color="#214B9E"/>
<stop offset="0.22" stop-color="#4C00AA"/>
<stop offset="0.8" stop-color="#AE45AA"/>
<stop offset="1" stop-color="#D89D82"/>
</linearGradient>
<linearGradient id="paint14_linear" x1="114.133" y1="59.8439" x2="181.097" y2="180.308" gradientUnits="userSpaceOnUse">
<stop offset="0.14" stop-color="#3B2F75"/>
<stop offset="0.46" stop-color="#493990"/>
<stop offset="0.8" stop-color="#794C7E"/>
<stop offset="0.97" stop-color="#936D77"/>
</linearGradient>
<linearGradient id="paint15_linear" x1="184.453" y1="57.4953" x2="189.887" y2="57.4953" gradientUnits="userSpaceOnUse">
<stop stop-color="#112552"/>
<stop offset="0.14" stop-color="#224A9E"/>
<stop offset="0.4" stop-color="#4902A6"/>
<stop offset="0.44" stop-color="#613FAA"/>
<stop offset="0.54" stop-color="#112552"/>
</linearGradient>
<linearGradient id="paint16_linear" x1="184.453" y1="57.2184" x2="189.887" y2="57.2184" gradientUnits="userSpaceOnUse">
<stop stop-color="#112552"/>
<stop offset="0.14" stop-color="#224A9E"/>
<stop offset="0.4" stop-color="#4902A6"/>
<stop offset="0.44" stop-color="#613FAA"/>
<stop offset="0.54" stop-color="#112552"/>
</linearGradient>
<linearGradient id="paint17_linear" x1="184.453" y1="56.0721" x2="189.887" y2="56.0721" gradientUnits="userSpaceOnUse">
<stop stop-color="#214B9E"/>
<stop offset="0.22" stop-color="#4C00AA"/>
<stop offset="0.8" stop-color="#AE45AA"/>
<stop offset="1" stop-color="#D89D82"/>
</linearGradient>
<linearGradient id="paint18_linear" x1="294.966" y1="57.5035" x2="300.401" y2="57.5035" gradientUnits="userSpaceOnUse">
<stop stop-color="#112552"/>
<stop offset="0.14" stop-color="#224A9E"/>
<stop offset="0.4" stop-color="#4902A6"/>
<stop offset="0.44" stop-color="#613FAA"/>
<stop offset="0.54" stop-color="#112552"/>
</linearGradient>
<linearGradient id="paint19_linear" x1="294.967" y1="57.2026" x2="300.401" y2="57.2026" gradientUnits="userSpaceOnUse">
<stop stop-color="#112552"/>
<stop offset="0.14" stop-color="#224A9E"/>
<stop offset="0.4" stop-color="#4902A6"/>
<stop offset="0.44" stop-color="#613FAA"/>
<stop offset="0.54" stop-color="#112552"/>
</linearGradient>
<linearGradient id="paint20_linear" x1="294.966" y1="56.0804" x2="300.401" y2="56.0804" gradientUnits="userSpaceOnUse">
<stop stop-color="#214B9E"/>
<stop offset="0.22" stop-color="#4C00AA"/>
<stop offset="0.8" stop-color="#AE45AA"/>
<stop offset="1" stop-color="#D89D82"/>
</linearGradient>
<linearGradient id="paint21_linear" x1="240.202" y1="89.2512" x2="245.607" y2="89.2512" gradientUnits="userSpaceOnUse">
<stop stop-color="#112552"/>
<stop offset="0.14" stop-color="#224A9E"/>
<stop offset="0.4" stop-color="#4902A6"/>
<stop offset="0.44" stop-color="#613FAA"/>
<stop offset="0.54" stop-color="#112552"/>
</linearGradient>
<linearGradient id="paint22_linear" x1="240.202" y1="88.9885" x2="245.607" y2="88.9885" gradientUnits="userSpaceOnUse">
<stop stop-color="#112552"/>
<stop offset="0.14" stop-color="#224A9E"/>
<stop offset="0.4" stop-color="#4902A6"/>
<stop offset="0.44" stop-color="#613FAA"/>
<stop offset="0.54" stop-color="#112552"/>
</linearGradient>
<linearGradient id="paint23_linear" x1="240.202" y1="87.8267" x2="245.607" y2="87.8267" gradientUnits="userSpaceOnUse">
<stop stop-color="#214B9E"/>
<stop offset="0.22" stop-color="#4C00AA"/>
<stop offset="0.8" stop-color="#AE45AA"/>
<stop offset="1" stop-color="#D89D82"/>
</linearGradient>
<linearGradient id="paint24_linear" x1="240.202" y1="25.4223" x2="245.607" y2="25.4223" gradientUnits="userSpaceOnUse">
<stop stop-color="#112552"/>
<stop offset="0.14" stop-color="#224A9E"/>
<stop offset="0.4" stop-color="#4902A6"/>
<stop offset="0.44" stop-color="#613FAA"/>
<stop offset="0.54" stop-color="#112552"/>
</linearGradient>
<linearGradient id="paint25_linear" x1="240.202" y1="25.1383" x2="245.607" y2="25.1383" gradientUnits="userSpaceOnUse">
<stop stop-color="#112552"/>
<stop offset="0.14" stop-color="#224A9E"/>
<stop offset="0.4" stop-color="#4902A6"/>
<stop offset="0.44" stop-color="#613FAA"/>
<stop offset="0.54" stop-color="#112552"/>
</linearGradient>
<linearGradient id="paint26_linear" x1="240.202" y1="23.9993" x2="245.607" y2="23.9993" gradientUnits="userSpaceOnUse">
<stop stop-color="#214B9E"/>
<stop offset="0.22" stop-color="#4C00AA"/>
<stop offset="0.8" stop-color="#AE45AA"/>
<stop offset="1" stop-color="#D89D82"/>
</linearGradient>
<linearGradient id="paint27_linear" x1="199.682" y1="82.6462" x2="285.62" y2="82.6462" gradientUnits="userSpaceOnUse">
<stop stop-color="#112552"/>
<stop offset="0.14" stop-color="#224A9E"/>
<stop offset="0.4" stop-color="#4902A6"/>
<stop offset="0.44" stop-color="#613FAA"/>
<stop offset="0.54" stop-color="#112552"/>
</linearGradient>
<linearGradient id="paint28_linear" x1="199.682" y1="81.7958" x2="285.62" y2="81.7958" gradientUnits="userSpaceOnUse">
<stop stop-color="#112552"/>
<stop offset="0.14" stop-color="#224A9E"/>
<stop offset="0.4" stop-color="#4902A6"/>
<stop offset="0.44" stop-color="#613FAA"/>
<stop offset="0.54" stop-color="#112552"/>
</linearGradient>
<linearGradient id="paint29_linear" x1="199.652" y1="75.8762" x2="285.62" y2="75.8762" gradientUnits="userSpaceOnUse">
<stop stop-color="#214B9E"/>
<stop offset="0.22" stop-color="#4C00AA"/>
<stop offset="0.8" stop-color="#AE45AA"/>
<stop offset="1" stop-color="#D89D82"/>
</linearGradient>
<linearGradient id="paint30_linear" x1="213.597" y1="67.7544" x2="271.645" y2="67.7544" gradientUnits="userSpaceOnUse">
<stop stop-color="#112552"/>
<stop offset="0.14" stop-color="#224A9E"/>
<stop offset="0.4" stop-color="#4902A6"/>
<stop offset="0.44" stop-color="#613FAA"/>
<stop offset="0.54" stop-color="#112552"/>
</linearGradient>
<linearGradient id="paint31_linear" x1="123.7" y1="286.977" x2="264.292" y2="196.888" gradientUnits="userSpaceOnUse">
<stop stop-color="#4FFFFF"/>
<stop offset="0.22" stop-color="#4FFFFF"/>
<stop offset="0.96" stop-color="#4FFFFF"/>
</linearGradient>
<linearGradient id="paint32_linear" x1="-161.118" y1="7734.15" x2="-138.795" y2="7609.4" gradientUnits="userSpaceOnUse">
<stop stop-color="#4FFFFF"/>
<stop offset="0.22" stop-color="#4FFFFF"/>
<stop offset="0.96" stop-color="#4FFFFF"/>
</linearGradient>
<linearGradient id="paint33_linear" x1="-162.668" y1="7731.66" x2="-140.777" y2="7608.96" gradientUnits="userSpaceOnUse">
<stop stop-color="#4FFFFF"/>
<stop offset="0.22" stop-color="#4FFFFF"/>
<stop offset="0.96" stop-color="#4FFFFF"/>
</linearGradient>
<linearGradient id="paint34_linear" x1="-164.188" y1="7729.17" x2="-142.729" y2="7608.52" gradientUnits="userSpaceOnUse">
<stop stop-color="#4FFFFF"/>
<stop offset="0.22" stop-color="#4FFFFF"/>
<stop offset="0.96" stop-color="#4FFFFF"/>
</linearGradient>
<linearGradient id="paint35_linear" x1="-165.717" y1="7726.68" x2="-144.686" y2="7608.09" gradientUnits="userSpaceOnUse">
<stop stop-color="#4FFFFF"/>
<stop offset="0.22" stop-color="#4FFFFF"/>
<stop offset="0.96" stop-color="#4FFFFF"/>
</linearGradient>
<linearGradient id="paint36_linear" x1="-167.262" y1="7724.18" x2="-146.674" y2="7607.67" gradientUnits="userSpaceOnUse">
<stop stop-color="#4FFFFF"/>
<stop offset="0.22" stop-color="#4FFFFF"/>
<stop offset="0.96" stop-color="#4FFFFF"/>
</linearGradient>
<linearGradient id="paint37_linear" x1="-168.813" y1="7721.7" x2="-148.642" y2="7607.24" gradientUnits="userSpaceOnUse">
<stop stop-color="#4FFFFF"/>
<stop offset="0.22" stop-color="#4FFFFF"/>
<stop offset="0.96" stop-color="#4FFFFF"/>
</linearGradient>
<linearGradient id="paint38_linear" x1="-170.363" y1="7719.22" x2="-150.61" y2="7606.8" gradientUnits="userSpaceOnUse">
<stop stop-color="#4FFFFF"/>
<stop offset="0.22" stop-color="#4FFFFF"/>
<stop offset="0.96" stop-color="#4FFFFF"/>
</linearGradient>
<linearGradient id="paint39_linear" x1="-171.885" y1="7716.72" x2="-152.573" y2="7606.37" gradientUnits="userSpaceOnUse">
<stop stop-color="#4FFFFF"/>
<stop offset="0.22" stop-color="#4FFFFF"/>
<stop offset="0.96" stop-color="#4FFFFF"/>
</linearGradient>
<linearGradient id="paint40_linear" x1="-173.389" y1="7714.26" x2="-154.505" y2="7605.93" gradientUnits="userSpaceOnUse">
<stop stop-color="#4FFFFF"/>
<stop offset="0.22" stop-color="#4FFFFF"/>
<stop offset="0.96" stop-color="#4FFFFF"/>
</linearGradient>
<linearGradient id="paint41_linear" x1="-174.911" y1="7711.77" x2="-156.455" y2="7605.49" gradientUnits="userSpaceOnUse">
<stop stop-color="#4FFFFF"/>
<stop offset="0.22" stop-color="#4FFFFF"/>
<stop offset="0.96" stop-color="#4FFFFF"/>
</linearGradient>
<linearGradient id="paint42_linear" x1="-176.463" y1="7709.28" x2="-158.434" y2="7605.06" gradientUnits="userSpaceOnUse">
<stop stop-color="#4FFFFF"/>
<stop offset="0.22" stop-color="#4FFFFF"/>
<stop offset="0.96" stop-color="#4FFFFF"/>
</linearGradient>
<linearGradient id="paint43_linear" x1="-177.985" y1="7706.79" x2="-160.384" y2="7604.62" gradientUnits="userSpaceOnUse">
<stop stop-color="#4FFFFF"/>
<stop offset="0.22" stop-color="#4FFFFF"/>
<stop offset="0.96" stop-color="#4FFFFF"/>
</linearGradient>
<linearGradient id="paint44_linear" x1="-182.793" y1="7703.75" x2="-166.293" y2="7607.63" gradientUnits="userSpaceOnUse">
<stop stop-color="#4FFFFF"/>
<stop offset="1" stop-color="#4FFFFF" stop-opacity="0.01"/>
</linearGradient>
<linearGradient id="paint45_linear" x1="-181.104" y1="7701.81" x2="-164.348" y2="7603.78" gradientUnits="userSpaceOnUse">
<stop stop-color="#4FFFFF"/>
<stop offset="0.22" stop-color="#4FFFFF"/>
<stop offset="0.96" stop-color="#4FFFFF"/>
</linearGradient>
<linearGradient id="paint46_linear" x1="-182.619" y1="7699.32" x2="-166.292" y2="7603.34" gradientUnits="userSpaceOnUse">
<stop stop-color="#4FFFFF"/>
<stop offset="0.22" stop-color="#4FFFFF"/>
<stop offset="0.96" stop-color="#4FFFFF"/>
</linearGradient>
<linearGradient id="paint47_linear" x1="-184.16" y1="7696.83" x2="-168.263" y2="7602.91" gradientUnits="userSpaceOnUse">
<stop stop-color="#4FFFFF"/>
<stop offset="0.22" stop-color="#4FFFFF"/>
<stop offset="0.96" stop-color="#4FFFFF"/>
</linearGradient>
<linearGradient id="paint48_linear" x1="-185.685" y1="7694.34" x2="-170.212" y2="7602.47" gradientUnits="userSpaceOnUse">
<stop stop-color="#4FFFFF"/>
<stop offset="0.22" stop-color="#4FFFFF"/>
<stop offset="0.96" stop-color="#4FFFFF"/>
</linearGradient>
<linearGradient id="paint49_linear" x1="-187.24" y1="7691.86" x2="-172.178" y2="7602.04" gradientUnits="userSpaceOnUse">
<stop stop-color="#4FFFFF"/>
<stop offset="0.22" stop-color="#4FFFFF"/>
<stop offset="0.96" stop-color="#4FFFFF"/>
</linearGradient>
<linearGradient id="paint50_linear" x1="-188.769" y1="7689.41" x2="-174.118" y2="7601.61" gradientUnits="userSpaceOnUse">
<stop stop-color="#4FFFFF"/>
<stop offset="0.22" stop-color="#4FFFFF"/>
<stop offset="0.96" stop-color="#4FFFFF"/>
</linearGradient>
<linearGradient id="paint51_linear" x1="-190.273" y1="7686.91" x2="-176.064" y2="7601.17" gradientUnits="userSpaceOnUse">
<stop stop-color="#4FFFFF"/>
<stop offset="0.22" stop-color="#4FFFFF"/>
<stop offset="0.96" stop-color="#4FFFFF"/>
</linearGradient>
<linearGradient id="paint52_linear" x1="-191.829" y1="7684.43" x2="-178.03" y2="7600.74" gradientUnits="userSpaceOnUse">
<stop stop-color="#4FFFFF"/>
<stop offset="0.22" stop-color="#4FFFFF"/>
<stop offset="0.96" stop-color="#4FFFFF"/>
</linearGradient>
<linearGradient id="paint53_linear" x1="204.422" y1="177.069" x2="210.102" y2="149.015" gradientUnits="userSpaceOnUse">
<stop stop-color="#4FFFFF"/>
<stop offset="0.96" stop-color="#4FFFFF"/>
</linearGradient>
<linearGradient id="paint54_linear" x1="395.156" y1="261.192" x2="381.973" y2="154.417" gradientUnits="userSpaceOnUse">
<stop stop-color="#4FFFFF"/>
<stop offset="0.22" stop-color="#4FFFFF"/>
<stop offset="0.96" stop-color="#4FFFFF"/>
</linearGradient>
<linearGradient id="paint55_linear" x1="346.373" y1="177.488" x2="346.373" y2="132.24" gradientUnits="userSpaceOnUse">
<stop stop-color="#4FFFFF"/>
<stop offset="0.96" stop-color="#4FFFFF"/>
</linearGradient>
</defs>
</svg>

