<svg xmlns="http://www.w3.org/2000/svg" viewBox="0 0 469.03 58.48"><defs><style>.cls-1{fill:#fff;}</style></defs><title>LOGO</title><g id="Layer_2" data-name="Layer 2"><g id="Layer_1-2" data-name="Layer 1"><g id="_Group_" data-name="&lt;Group&gt;"><path id="_Path_" data-name="&lt;Path&gt;" class="cls-1" d="M31.26,20.55s11.36,2.74,11.36,11S38.3,41.81,26.48,44.07c-13,2.48-14.26,7.35-14.26,9.33V46.65S12,40,23.39,36.49c12.67-3.85,14.19-4.08,14.15-8.5C37.54,28,37.2,23.68,31.26,20.55Z"/><path id="_Path_2" data-name="&lt;Path&gt;" class="cls-1" d="M28.41,46.84A15.73,15.73,0,0,0,32.79,55a14.67,14.67,0,0,0,9.91,3.48s-1.54-5.25-5-8.46S28.41,46.84,28.41,46.84Z"/><g id="_Group_2" data-name="&lt;Group&gt;"><polygon id="_Path_3" data-name="&lt;Path&gt;" class="cls-1" points="0 5.78 9.21 8.98 10.7 15.89 0 5.78"/><polygon id="_Path_4" data-name="&lt;Path&gt;" class="cls-1" points="37.37 5.78 28.16 8.98 26.68 15.89 37.37 5.78"/><polygon id="_Path_5" data-name="&lt;Path&gt;" class="cls-1" points="9.27 4.48 11.69 15.83 18.13 11.57 9.27 4.48"/><polygon id="_Path_6" data-name="&lt;Path&gt;" class="cls-1" points="28.11 4.48 25.69 15.83 19.25 11.57 28.11 4.48"/><polygon id="_Path_7" data-name="&lt;Path&gt;" class="cls-1" points="18.68 10.49 21.97 7.97 18.68 0 18.68 0 18.68 0 18.68 0 18.68 0 15.4 7.97 18.68 10.49 18.68 10.49 18.68 10.49 18.68 10.49 18.68 10.49"/></g><path id="_Path_8" data-name="&lt;Path&gt;" class="cls-1" d="M26.23,57.29H24.52s-1,0-1.3-.59a4.38,4.38,0,0,1-.37-1.18,79.87,79.87,0,0,1-1.37-9.2,16.44,16.44,0,0,0-5.88,3c-.24,1.87-.89,5.44-1.19,6.82l-.14.55a1,1,0,0,1-1,.63H11.06v1.18H26.24Z"/><path id="_Path_9" data-name="&lt;Path&gt;" class="cls-1" d="M24.62,16.6l-5.94-3.9h0l-5.91,3.88L7.1,20.3h.83c1.78,0,5.91.3,6.43,2.17l.06.31a64.55,64.55,0,0,1,1.81,16,13.94,13.94,0,0,1,2.65-1.64,24,24,0,0,1,2.35-.92A64.58,64.58,0,0,1,22.88,23a7.06,7.06,0,0,1,.21-.79c.63-1.74,4.63-1.91,6.33-1.95h.85Z"/></g><g id="_Group_3" data-name="&lt;Group&gt;"><path id="_Compound_Path_" data-name="&lt;Compound Path&gt;" class="cls-1" d="M94.38,46q-.8,4.36-5.2,4.37A10.15,10.15,0,0,1,86,50a4.65,4.65,0,0,1-2.11-1.34,5.29,5.29,0,0,1-1.15-2.28,31.73,31.73,0,0,1-.35-6.06,2.51,2.51,0,0,0-.5-1.82A2.87,2.87,0,0,0,79.94,38q-.85,0-1.29,0V49.13H81V50H65.67v-.82h2.76V27.31H65.67v-.82H85.14q4.62,0,6,1.66A5.92,5.92,0,0,1,92.47,32a5.84,5.84,0,0,1-1,3.49,5.77,5.77,0,0,1-3,2.09,6.17,6.17,0,0,1,3.13,2,5.53,5.53,0,0,1,.7,3l-.11,3.59c0,.66.15,1,.44,1s.32-.13.52-.39a2.52,2.52,0,0,0,.41-1Zm-12-11.32v-5a2.71,2.71,0,0,0-.51-2,3.17,3.17,0,0,0-2.08-.48H78.65V37.2h.61a4,4,0,0,0,2.49-.56A2.43,2.43,0,0,0,82.41,34.7Z"/><path id="_Compound_Path_2" data-name="&lt;Compound Path&gt;" class="cls-1" d="M123,50H108.6v-.82h2.64L109,42.75h-8.14a7,7,0,0,0-.31,2,5,5,0,0,0,.94,3.1,3.89,3.89,0,0,0,3.31,1.27V50H95.69v-.82a4.6,4.6,0,0,0,2.09-1.86,14.8,14.8,0,0,0,1.74-3.44l6.25-17.34h8l7.89,22.64H123Zm-14.19-8L105,31h-.07l-3.76,10.91Z"/><path id="_Compound_Path_3" data-name="&lt;Compound Path&gt;" class="cls-1" d="M159.32,50H143.49v-.82h2.94V29.82h-.07L138.59,50H136.3l-8-20.1V42.29a14.74,14.74,0,0,0,.38,3.39,5.72,5.72,0,0,0,1.19,2.55,3.1,3.1,0,0,0,2.43.9h.4V50h-9v-.82a2.9,2.9,0,0,0,2.72-1.92,10.28,10.28,0,0,0,.9-4.39V28.71l-.82-1.4h-2.23v-.82h13.25l4.78,11.67,4.51-11.67h12.49v.82h-2.85V49.13h2.85Z"/><path id="_Compound_Path_4" data-name="&lt;Compound Path&gt;" class="cls-1" d="M187.79,50H173.42v-.82h2.64l-2.22-6.38h-8.13a7,7,0,0,0-.32,2,5,5,0,0,0,.94,3.1,3.9,3.9,0,0,0,3.31,1.27V50h-9.13v-.82a4.6,4.6,0,0,0,2.09-1.86,14.06,14.06,0,0,0,1.74-3.44l6.25-17.34h8l7.89,22.64h1.3Zm-14.19-8L169.8,31h-.07L166,41.92Z"/><path id="_Compound_Path_5" data-name="&lt;Compound Path&gt;" class="cls-1" d="M226.8,27.31a3.31,3.31,0,0,0-2.73,1.79,9,9,0,0,0-1,4.51V44a6.08,6.08,0,0,1-2.25,4.88q-2.25,1.89-6.64,1.89a19.92,19.92,0,0,1-5.52-.69,7.67,7.67,0,0,1-3.48-1.84,5.58,5.58,0,0,1-1.4-2.19,13.26,13.26,0,0,1-.31-3.34V27.31h-2.79v-.82H216.2v.82h-2.47V46.09a6.25,6.25,0,0,0,.24,2.14,1.56,1.56,0,0,0,.86.83,3.46,3.46,0,0,0,1.44.28A7,7,0,0,0,220.19,48a4.83,4.83,0,0,0,2-4.33v-9a12.87,12.87,0,0,0-.9-5.43,3.42,3.42,0,0,0-3.4-1.87v-.82h8.92Z"/><path id="_Compound_Path_6" data-name="&lt;Compound Path&gt;" class="cls-1" d="M255.62,27.31c-2.49.2-3.73,2.4-3.73,6.58V50h-5.65L232.33,30.78V42q0,7.14,4.37,7.17V50h-9.06v-.82a3.15,3.15,0,0,0,2.88-1.92,9.45,9.45,0,0,0,.85-4V29.47l-1.54-2.16h-2.19v-.82h13.58L251,39.93V34.19A10.59,10.59,0,0,0,250,29a3.2,3.2,0,0,0-2.95-1.7h-.79v-.82h9.38Z"/><path id="_Compound_Path_7" data-name="&lt;Compound Path&gt;" class="cls-1" d="M272.94,50H257.17v-.82h2.72V27.31h-2.72v-.82h15.77v.82H270.1V49.13h2.84Z"/><path id="_Compound_Path_8" data-name="&lt;Compound Path&gt;" class="cls-1" d="M299.58,34.66h-1a11.07,11.07,0,0,0-2.26-5.07,7.56,7.56,0,0,0-4.3-2.28V49.13h3.05V50H279v-.82h3V27.31a7.59,7.59,0,0,0-4.3,2.28,11.07,11.07,0,0,0-2.26,5.07h-.93V26.49h25.07Z"/><path id="_Compound_Path_9" data-name="&lt;Compound Path&gt;" class="cls-1" d="M324.67,50H301.28v-.82H304V27.31h-2.68v-.82h22.64v7.37h-.79a6.7,6.7,0,0,0-2.19-4.52c-1.38-1.35-3.5-2-6.34-2h-.42V37.48h.71a3.89,3.89,0,0,0,2.85-1.27C318.59,35.37,319,34,319,32h.76V43.66H319a5.9,5.9,0,0,0-1.19-3.95,3.7,3.7,0,0,0-2.92-1.41h-.71V49.13A10.11,10.11,0,0,0,320.6,47a9,9,0,0,0,3.32-5.75h.75Z"/><path id="_Compound_Path_10" data-name="&lt;Compound Path&gt;" class="cls-1" d="M328.12,26.49h17.76q5.72,0,8.29,3.75A13.57,13.57,0,0,1,356.74,38a13.91,13.91,0,0,1-2.67,8.12A8.53,8.53,0,0,1,346.66,50H328.12v-.82h2.71V27.31h-2.71Zm17.34,19.3V30.64a6,6,0,0,0-.39-2.7c-.25-.42-1-.63-2.24-.63h-1.78V49.13h1.43a3.23,3.23,0,0,0,2.36-.65A4.1,4.1,0,0,0,345.46,45.79Z"/><path id="_Compound_Path_11" data-name="&lt;Compound Path&gt;" class="cls-1" d="M393,45.83a13.27,13.27,0,0,1-4.2,3.71,11.5,11.5,0,0,1-5.39,1.13,12.7,12.7,0,0,1-9.21-3.48,12,12,0,0,1-3.6-9,12,12,0,0,1,3.53-9.06,12.66,12.66,0,0,1,9.19-3.4,9,9,0,0,1,5.95,1.89l3.59-1.86v9.71h-.82a8.18,8.18,0,0,0-1.3-4.54,9.44,9.44,0,0,0-3-3.05,6.83,6.83,0,0,0-3.53-1.05,2.33,2.33,0,0,0-1.41.41,1.73,1.73,0,0,0-.7,1.08,10.17,10.17,0,0,0-.14,2V45.83a5.09,5.09,0,0,0,.63,2.89,2.4,2.4,0,0,0,2.11.88q4.2,0,7.53-4.33Z"/><path id="_Compound_Path_12" data-name="&lt;Compound Path&gt;" class="cls-1" d="M408.3,25.74q6.1,0,9.64,3.36t3.52,9.17A12.1,12.1,0,0,1,418,47.22q-3.47,3.45-9.49,3.45t-9.65-3.4a12,12,0,0,1-3.64-9.18,11.76,11.76,0,0,1,3.56-9Q402.34,25.74,408.3,25.74Zm2,21.52V29.13c0-1.52-.6-2.29-1.8-2.29s-2,.8-2,2.4V47.38a2.66,2.66,0,0,0,.44,1.71,2,2,0,0,0,1.52.51Q410.28,49.6,410.28,47.26Z"/><path id="_Compound_Path_13" data-name="&lt;Compound Path&gt;" class="cls-1" d="M439.45,50H423.68v-.82h2.71V27.31h-2.71v-.82h15.77v.82h-2.84V49.13h2.84Z"/><path id="_Compound_Path_14" data-name="&lt;Compound Path&gt;" class="cls-1" d="M469,27.31c-2.48.2-3.73,2.4-3.73,6.58V50h-5.65L445.74,30.78V42q0,7.14,4.38,7.17V50h-9.07v-.82a3.13,3.13,0,0,0,2.88-1.92,9.31,9.31,0,0,0,.85-4V29.47l-1.54-2.16h-2.19v-.82h13.58l9.75,13.44V34.19a10.7,10.7,0,0,0-1-5.18,3.21,3.21,0,0,0-3-1.7h-.79v-.82H469Z"/></g></g></g></svg>