<?xml version="1.0" encoding="utf-8"?>
<!-- Generator: Adobe Illustrator 22.0.0, SVG Export Plug-In . SVG Version: 6.00 Build 0)  -->
<svg version="1.1" xmlns="http://www.w3.org/2000/svg" xmlns:xlink="http://www.w3.org/1999/xlink" x="0px" y="0px"
	 viewBox="0 0 175 40" style="enable-background:new 0 0 175 40;" xml:space="preserve">
<style type="text/css">
	.st0{fill:url(#SVGID_1_);}
	.st1{fill:url(#SVGID_2_);}
	.st2{fill:url(#SVGID_3_);}
	.st3{fill:#4BC1C5;}
	.st4{fill:url(#SVGID_4_);}
	.st5{fill:url(#SVGID_5_);}
	.st6{fill:url(#SVGID_6_);}
	.st7{fill:url(#SVGID_7_);}
	.st8{fill:url(#SVGID_8_);}
	.st9{fill:url(#SVGID_9_);}
	.st10{fill:url(#SVGID_10_);}
	.st11{fill:url(#SVGID_11_);}
	.st12{fill:url(#SVGID_12_);}
	.st13{fill:url(#SVGID_13_);}
	.st14{fill:url(#SVGID_14_);}
	.st15{fill:#342764;}
	.st16{fill:url(#SVGID_15_);}
	.st17{fill:url(#SVGID_16_);}
	.st18{fill:url(#SVGID_17_);}
	.st19{fill:url(#SVGID_18_);}
	.st20{fill:url(#SVGID_19_);}
	.st21{fill:url(#SVGID_20_);}
	.st22{fill:url(#SVGID_21_);}
	.st23{fill:url(#SVGID_22_);}
	.st24{fill:url(#SVGID_23_);}
	.st25{fill:url(#SVGID_24_);}
	.st26{fill:url(#SVGID_25_);}
	.st27{fill:url(#SVGID_26_);}
	.st28{fill:url(#SVGID_27_);}
	.st29{fill:url(#SVGID_28_);}
	.st30{fill:url(#SVGID_29_);}
	.st31{fill:url(#SVGID_30_);}
	.st32{fill:url(#SVGID_31_);}
	.st33{fill:url(#SVGID_32_);}
	.st34{fill:url(#SVGID_33_);}
	.st35{fill:url(#SVGID_34_);}
	.st36{fill:#FFFFFF;}
</style>
<g id="Layer_2">
	<linearGradient id="SVGID_1_" gradientUnits="userSpaceOnUse" x1="227.0949" y1="502.3012" x2="228.595" y2="82.2675">
		<stop  offset="0" style="stop-color:#42B9C2"/>
		<stop  offset="1" style="stop-color:#382664"/>
	</linearGradient>
	<rect x="58.5" y="165" class="st0" width="338.5" height="326.5"/>
	<linearGradient id="SVGID_2_" gradientUnits="userSpaceOnUse" x1="1618.0397" y1="-280.8483" x2="1472.5397" y2="-341.3483">
		<stop  offset="0" style="stop-color:#42B9C2"/>
		<stop  offset="1" style="stop-color:#382664"/>
	</linearGradient>
	<polygon class="st1" points="1475,-317.3 1536.9,-382.4 1554.5,-272.1 1602.5,-324 1610.8,-316.1 1543.4,-244.1 1526.5,-354.9 
		1483.5,-309.1 	"/>
	<g>
		<linearGradient id="SVGID_3_" gradientUnits="userSpaceOnUse" x1="550.2918" y1="-93.3959" x2="848.2918" y2="-270.3959">
			<stop  offset="0" style="stop-color:#42B9C2"/>
			<stop  offset="0.1378" style="stop-color:#42B6C0"/>
			<stop  offset="0.267" style="stop-color:#41AEBA"/>
			<stop  offset="0.3927" style="stop-color:#41A0B1"/>
			<stop  offset="0.5164" style="stop-color:#418FA5"/>
			<stop  offset="0.6385" style="stop-color:#407A96"/>
			<stop  offset="0.7595" style="stop-color:#3E6386"/>
			<stop  offset="0.8797" style="stop-color:#3B4875"/>
			<stop  offset="0.9963" style="stop-color:#382764"/>
			<stop  offset="1" style="stop-color:#382664"/>
		</linearGradient>
		<polygon class="st2" points="546.7,-80.9 610.1,-148.8 614,-123.2 600.4,-108.9 598.7,-119.9 561,-79.9 		"/>
		<polygon class="st3" points="546.7,-80.9 572,-79.1 580.7,-71 555.3,-73.2 		"/>
		<linearGradient id="SVGID_4_" gradientUnits="userSpaceOnUse" x1="718.9364" y1="-40.5961" x2="577.9364" y2="-101.5961">
			<stop  offset="0" style="stop-color:#42B9C2"/>
			<stop  offset="0.1378" style="stop-color:#42B6C0"/>
			<stop  offset="0.267" style="stop-color:#41AEBA"/>
			<stop  offset="0.3927" style="stop-color:#41A0B1"/>
			<stop  offset="0.5164" style="stop-color:#418FA5"/>
			<stop  offset="0.6385" style="stop-color:#407A96"/>
			<stop  offset="0.7595" style="stop-color:#3E6386"/>
			<stop  offset="0.8797" style="stop-color:#3B4875"/>
			<stop  offset="0.9963" style="stop-color:#382764"/>
			<stop  offset="1" style="stop-color:#382664"/>
		</linearGradient>
		<polygon class="st4" points="572,-79.1 634.6,-144.8 652.2,-34.6 700.2,-86.4 708.5,-78.6 641.1,-6.5 624.2,-117.3 580.7,-71 		
			"/>
		<linearGradient id="SVGID_5_" gradientUnits="userSpaceOnUse" x1="592.6773" y1="-127.0281" x2="636.0106" y2="-5.0281">
			<stop  offset="0" style="stop-color:#42B9C2"/>
			<stop  offset="1" style="stop-color:#382664"/>
		</linearGradient>
		<polygon class="st5" points="603.5,-95.3 616.6,-109.3 627.5,-37.6 635.2,-45.2 637.3,-31.3 616.7,-9.6 		"/>
		<linearGradient id="SVGID_6_" gradientUnits="userSpaceOnUse" x1="556.3198" y1="-105.3249" x2="671.1568" y2="-67.2977">
			<stop  offset="0" style="stop-color:#42B9C2"/>
			<stop  offset="1" style="stop-color:#382664"/>
		</linearGradient>
		<polygon class="st6" points="648.1,-60 675.6,-88.8 700,-86.5 694.2,-80.3 683.4,-80.2 650.4,-45.4 		"/>
	</g>
	<g>
		<linearGradient id="SVGID_7_" gradientUnits="userSpaceOnUse" x1="-50.5478" y1="-277.7241" x2="244.2119" y2="-452.7994">
			<stop  offset="0" style="stop-color:#42B9C2"/>
			<stop  offset="0.1378" style="stop-color:#42B6C0"/>
			<stop  offset="0.267" style="stop-color:#41AEBA"/>
			<stop  offset="0.3927" style="stop-color:#41A0B1"/>
			<stop  offset="0.5164" style="stop-color:#418FA5"/>
			<stop  offset="0.6385" style="stop-color:#407A96"/>
			<stop  offset="0.7595" style="stop-color:#3E6386"/>
			<stop  offset="0.8797" style="stop-color:#3B4875"/>
			<stop  offset="0.9963" style="stop-color:#382764"/>
			<stop  offset="1" style="stop-color:#382664"/>
		</linearGradient>
		<polygon class="st7" points="-54.1,-265.3 8.6,-332.5 12.5,-307.2 -1,-293.1 -2.7,-304 -39.9,-264.3 		"/>
		<polygon class="st3" points="-54.1,-265.3 -29.1,-263.6 -20.5,-255.6 -45.6,-257.7 		"/>
		<linearGradient id="SVGID_8_" gradientUnits="userSpaceOnUse" x1="116.2631" y1="-225.4983" x2="-23.2037" y2="-285.835">
			<stop  offset="0" style="stop-color:#42B9C2"/>
			<stop  offset="0.1378" style="stop-color:#42B6C0"/>
			<stop  offset="0.267" style="stop-color:#41AEBA"/>
			<stop  offset="0.3927" style="stop-color:#41A0B1"/>
			<stop  offset="0.5164" style="stop-color:#418FA5"/>
			<stop  offset="0.6385" style="stop-color:#407A96"/>
			<stop  offset="0.7595" style="stop-color:#3E6386"/>
			<stop  offset="0.8797" style="stop-color:#3B4875"/>
			<stop  offset="0.9963" style="stop-color:#382764"/>
			<stop  offset="1" style="stop-color:#382664"/>
		</linearGradient>
		<polygon class="st8" points="-29.1,-263.6 32.8,-328.6 50.2,-219.6 97.8,-270.8 105.9,-263.1 39.3,-191.8 22.5,-301.4 
			-20.5,-255.6 		"/>
		<linearGradient id="SVGID_9_" gradientUnits="userSpaceOnUse" x1="-8.6232" y1="-310.9905" x2="34.239" y2="-190.3171">
			<stop  offset="0" style="stop-color:#42B9C2"/>
			<stop  offset="1" style="stop-color:#382664"/>
		</linearGradient>
		<polygon class="st9" points="2,-279.6 15.1,-293.4 25.8,-222.5 33.5,-230.1 35.5,-216.3 15.2,-194.9 		"/>
		<linearGradient id="SVGID_10_" gradientUnits="userSpaceOnUse" x1="-44.5854" y1="-289.5233" x2="69.003" y2="-251.9096">
			<stop  offset="0" style="stop-color:#42B9C2"/>
			<stop  offset="1" style="stop-color:#382664"/>
		</linearGradient>
		<polygon class="st10" points="46.2,-244.7 73.4,-273.2 97.5,-270.9 91.8,-264.8 81.1,-264.7 48.5,-230.3 		"/>
	</g>
	<g>
		<text transform="matrix(1 0 0 1 531.693 51.7871)" class="st15" style="font-family:'MyriadPro-Bold'; font-size:58px;">ZINEUM</text>
	</g>
	<g>
		<linearGradient id="SVGID_11_" gradientUnits="userSpaceOnUse" x1="3.7201" y1="-38.4353" x2="78.3089" y2="-82.738">
			<stop  offset="0" style="stop-color:#42B9C2"/>
			<stop  offset="0.1378" style="stop-color:#42B6C0"/>
			<stop  offset="0.267" style="stop-color:#41AEBA"/>
			<stop  offset="0.3927" style="stop-color:#41A0B1"/>
			<stop  offset="0.5164" style="stop-color:#418FA5"/>
			<stop  offset="0.6385" style="stop-color:#407A96"/>
			<stop  offset="0.7595" style="stop-color:#3E6386"/>
			<stop  offset="0.8797" style="stop-color:#3B4875"/>
			<stop  offset="0.9963" style="stop-color:#382764"/>
			<stop  offset="1" style="stop-color:#382664"/>
		</linearGradient>
		<polygon class="st11" points="2.8,-35.3 18.7,-52.3 19.7,-45.9 16.3,-42.3 15.8,-45.1 6.4,-35 		"/>
		<polygon class="st3" points="2.8,-35.3 9.1,-34.9 11.3,-32.8 5,-33.4 		"/>
		<linearGradient id="SVGID_12_" gradientUnits="userSpaceOnUse" x1="45.9315" y1="-25.2196" x2="10.6395" y2="-40.4877">
			<stop  offset="0" style="stop-color:#42B9C2"/>
			<stop  offset="0.1378" style="stop-color:#42B6C0"/>
			<stop  offset="0.267" style="stop-color:#41AEBA"/>
			<stop  offset="0.3927" style="stop-color:#41A0B1"/>
			<stop  offset="0.5164" style="stop-color:#418FA5"/>
			<stop  offset="0.6385" style="stop-color:#407A96"/>
			<stop  offset="0.7595" style="stop-color:#3E6386"/>
			<stop  offset="0.8797" style="stop-color:#3B4875"/>
			<stop  offset="0.9963" style="stop-color:#382764"/>
			<stop  offset="1" style="stop-color:#382664"/>
		</linearGradient>
		<polygon class="st12" points="9.1,-34.9 24.8,-51.3 29.2,-23.7 41.3,-36.7 43.3,-34.7 26.5,-16.7 22.2,-44.4 11.3,-32.8 		"/>
		<linearGradient id="SVGID_13_" gradientUnits="userSpaceOnUse" x1="14.3291" y1="-46.8533" x2="25.1753" y2="-16.317">
			<stop  offset="0" style="stop-color:#42B9C2"/>
			<stop  offset="1" style="stop-color:#382664"/>
		</linearGradient>
		<polygon class="st13" points="17,-38.9 20.3,-42.4 23,-24.5 25,-26.4 25.5,-22.9 20.4,-17.5 		"/>
		<linearGradient id="SVGID_14_" gradientUnits="userSpaceOnUse" x1="5.2289" y1="-41.4211" x2="33.9723" y2="-31.9029">
			<stop  offset="0" style="stop-color:#42B9C2"/>
			<stop  offset="1" style="stop-color:#382664"/>
		</linearGradient>
		<polygon class="st14" points="28.2,-30.1 35.1,-37.3 41.2,-36.7 39.7,-35.2 37,-35.1 28.8,-26.4 		"/>
	</g>
	<g>
		<path class="st15" d="M52.1-24.5l10.6-15.2v-0.1h-9.6v-4.2h16.1v2.9l-10.4,15v0.1h10.5v4.2H52.1V-24.5z"/>
		<path class="st15" d="M77.6-44.1v22.2h-5v-22.2H77.6z"/>
		<path class="st15" d="M81.9-21.8v-22.2h5.9l4.6,8.1c1.3,2.3,2.6,5.1,3.6,7.6h0.1c-0.3-2.9-0.4-5.9-0.4-9.3v-6.5h4.6v22.2H95
			l-4.8-8.6c-1.3-2.4-2.8-5.2-3.9-7.9l-0.1,0c0.1,2.9,0.2,6.1,0.2,9.7v6.7H81.9z"/>
		<path class="st15" d="M117.9-31.2h-8.2v5.3h9.1v4.1h-14.2v-22.2h13.7v4.1h-8.7v4.6h8.2V-31.2z"/>
		<path class="st15" d="M127.3-44.1v12.8c0,3.8,1.5,5.8,4,5.8c2.6,0,4.1-1.8,4.1-5.8v-12.8h5v12.5c0,6.9-3.5,10.1-9.3,10.1
			c-5.6,0-8.9-3.1-8.9-10.2v-12.4H127.3z"/>
		<path class="st15" d="M163.6-30.3c-0.1-2.7-0.2-5.9-0.2-9.1h-0.1c-0.7,2.8-1.6,6-2.5,8.6l-2.7,8.7h-3.9l-2.4-8.6
			c-0.7-2.6-1.5-5.8-2-8.7h-0.1c-0.1,3-0.2,6.4-0.4,9.2l-0.4,8.4h-4.7l1.4-22.2h6.7l2.2,7.4c0.7,2.6,1.4,5.3,1.9,8h0.1
			c0.6-2.6,1.4-5.5,2.1-8l2.4-7.4h6.6l1.2,22.2h-4.9L163.6-30.3z"/>
	</g>
	<g>
		<g>
			<linearGradient id="SVGID_15_" gradientUnits="userSpaceOnUse" x1="1676.799" y1="-496.1895" x2="1784.799" y2="-436.1895">
				<stop  offset="0" style="stop-color:#FFFFFF"/>
				<stop  offset="1" style="stop-color:#A7A7A7"/>
			</linearGradient>
			<polygon class="st16" points="1676.1,-445 1739.5,-513 1743.4,-487.3 1729.8,-473.1 1729.1,-485.2 1690.4,-444 			"/>
			<linearGradient id="SVGID_16_" gradientUnits="userSpaceOnUse" x1="1656.3165" y1="-445.6963" x2="1808.8165" y2="-423.1963">
				<stop  offset="0" style="stop-color:#FFFFFF"/>
				<stop  offset="1" style="stop-color:#A7A7A7"/>
			</linearGradient>
			<polygon class="st17" points="1676.1,-445 1701.4,-443.2 1710,-435.2 1684.6,-437.3 			"/>
			<linearGradient id="SVGID_17_" gradientUnits="userSpaceOnUse" x1="1815.6337" y1="-392.3347" x2="1696.3003" y2="-523.6681">
				<stop  offset="0" style="stop-color:#FFFFFF"/>
				<stop  offset="1" style="stop-color:#A7A7A7"/>
			</linearGradient>
			<polygon class="st18" points="1701.4,-443.2 1763.9,-509 1781.6,-398.7 1829.6,-450.5 1837.9,-442.7 1770.5,-370.7 
				1753.5,-481.4 1710,-435.2 			"/>
			<linearGradient id="SVGID_18_" gradientUnits="userSpaceOnUse" x1="1732.5995" y1="-455.1902" x2="1765.5995" y2="-377.6902">
				<stop  offset="0" style="stop-color:#FFFFFF"/>
				<stop  offset="1" style="stop-color:#A7A7A7"/>
			</linearGradient>
			<polygon class="st19" points="1732.8,-459.4 1746,-473.4 1756.8,-401.7 1764.6,-409.4 1766.7,-395.4 1746.1,-373.8 			"/>
			<linearGradient id="SVGID_19_" gradientUnits="userSpaceOnUse" x1="1685.6969" y1="-469.4581" x2="1800.5339" y2="-431.4309">
				<stop  offset="0" style="stop-color:#FFFFFF"/>
				<stop  offset="1" style="stop-color:#A7A7A7"/>
			</linearGradient>
			<polygon class="st20" points="1777.5,-424.2 1805,-452.9 1829.4,-450.6 1823.6,-444.4 1812.8,-444.4 1779.8,-409.6 			"/>
		</g>
		<text transform="matrix(1 0 0 1 1661.0701 -312.3461)" style="font-family:'MyriadPro-Bold'; font-size:58px;">ZINEUM</text>
	</g>
	<g>
		<linearGradient id="SVGID_20_" gradientUnits="userSpaceOnUse" x1="548.0143" y1="234.5953" x2="656.0143" y2="294.5953">
			<stop  offset="0" style="stop-color:#FFFFFF"/>
			<stop  offset="1" style="stop-color:#A7A7A7"/>
		</linearGradient>
		<polygon class="st21" points="547.3,285.8 610.7,217.8 614.6,243.4 601,257.7 600.3,245.6 561.6,286.8 		"/>
		<linearGradient id="SVGID_21_" gradientUnits="userSpaceOnUse" x1="527.5318" y1="285.0885" x2="680.0318" y2="307.5885">
			<stop  offset="0" style="stop-color:#FFFFFF"/>
			<stop  offset="1" style="stop-color:#A7A7A7"/>
		</linearGradient>
		<polygon class="st22" points="547.3,285.8 572.6,287.5 581.2,295.6 555.9,293.5 		"/>
		<linearGradient id="SVGID_22_" gradientUnits="userSpaceOnUse" x1="686.8489" y1="338.45" x2="567.5156" y2="207.1167">
			<stop  offset="0" style="stop-color:#FFFFFF"/>
			<stop  offset="1" style="stop-color:#A7A7A7"/>
		</linearGradient>
		<polygon class="st23" points="572.6,287.5 635.2,221.8 652.8,332.1 700.8,280.3 709.1,288.1 641.7,360.1 624.8,249.3 581.2,295.6 
					"/>
		<linearGradient id="SVGID_23_" gradientUnits="userSpaceOnUse" x1="570.0226" y1="220.7075" x2="688.0226" y2="436.7075">
			<stop  offset="0" style="stop-color:#FFFFFF"/>
			<stop  offset="1" style="stop-color:#A7A7A7"/>
		</linearGradient>
		<polygon class="st24" points="604.1,271.3 617.2,257.4 628.1,329.1 635.8,321.4 637.9,335.4 617.3,357 		"/>
		<linearGradient id="SVGID_24_" gradientUnits="userSpaceOnUse" x1="556.9122" y1="261.3266" x2="671.7493" y2="299.3538">
			<stop  offset="0" style="stop-color:#FFFFFF"/>
			<stop  offset="1" style="stop-color:#A7A7A7"/>
		</linearGradient>
		<polygon class="st25" points="648.7,306.6 676.2,277.8 700.6,280.2 694.8,286.4 684,286.4 651,321.2 		"/>
	</g>
	<g>
		<linearGradient id="SVGID_25_" gradientUnits="userSpaceOnUse" x1="-53.3865" y1="-506.964" x2="53.4391" y2="-447.6164">
			<stop  offset="0" style="stop-color:#FFFFFF"/>
			<stop  offset="1" style="stop-color:#A7A7A7"/>
		</linearGradient>
		<polygon class="st26" points="-54.1,-456.3 8.6,-523.5 12.5,-498.2 -1,-484.1 -1.6,-496.1 -39.9,-455.3 		"/>
		<linearGradient id="SVGID_26_" gradientUnits="userSpaceOnUse" x1="-73.6463" y1="-457.0199" x2="77.1955" y2="-434.7645">
			<stop  offset="0" style="stop-color:#FFFFFF"/>
			<stop  offset="1" style="stop-color:#A7A7A7"/>
		</linearGradient>
		<polygon class="st27" points="-54.1,-456.3 -29.1,-454.6 -20.5,-446.6 -45.6,-448.7 		"/>
		<linearGradient id="SVGID_27_" gradientUnits="userSpaceOnUse" x1="83.9385" y1="-404.2386" x2="-34.0973" y2="-534.1438">
			<stop  offset="0" style="stop-color:#FFFFFF"/>
			<stop  offset="1" style="stop-color:#A7A7A7"/>
		</linearGradient>
		<polygon class="st28" points="-29.1,-454.6 32.8,-519.6 50.2,-410.6 97.8,-461.8 105.9,-454.1 39.3,-382.8 22.5,-492.4 
			-20.5,-446.6 		"/>
		<linearGradient id="SVGID_28_" gradientUnits="userSpaceOnUse" x1="-31.6175" y1="-520.7008" x2="85.0994" y2="-307.0495">
			<stop  offset="0" style="stop-color:#FFFFFF"/>
			<stop  offset="1" style="stop-color:#A7A7A7"/>
		</linearGradient>
		<polygon class="st29" points="2,-470.6 15.1,-484.4 25.8,-413.5 33.5,-421.1 35.5,-407.3 15.2,-385.9 		"/>
		<linearGradient id="SVGID_29_" gradientUnits="userSpaceOnUse" x1="-44.5854" y1="-480.5233" x2="69.003" y2="-442.9096">
			<stop  offset="0" style="stop-color:#FFFFFF"/>
			<stop  offset="1" style="stop-color:#A7A7A7"/>
		</linearGradient>
		<polygon class="st30" points="46.2,-435.7 73.4,-464.2 97.5,-461.9 91.8,-455.8 81.1,-455.7 48.5,-421.3 		"/>
	</g>
	<g>
		<linearGradient id="SVGID_30_" gradientUnits="userSpaceOnUse" x1="2.7006" y1="6.2155" x2="30.0744" y2="21.4232">
			<stop  offset="0" style="stop-color:#FFFFFF"/>
			<stop  offset="1" style="stop-color:#A7A7A7"/>
		</linearGradient>
		<polygon class="st31" points="2.5,19.2 18.6,2 19.6,8.5 16.1,12.1 16,9 6.2,19.4 		"/>
		<linearGradient id="SVGID_31_" gradientUnits="userSpaceOnUse" x1="-2.4909" y1="19.0136" x2="36.1619" y2="24.7164">
			<stop  offset="0" style="stop-color:#FFFFFF"/>
			<stop  offset="1" style="stop-color:#A7A7A7"/>
		</linearGradient>
		<polygon class="st32" points="2.5,19.2 8.9,19.6 11.1,21.7 4.7,21.1 		"/>
		<linearGradient id="SVGID_32_" gradientUnits="userSpaceOnUse" x1="37.8897" y1="32.5386" x2="7.6434" y2="-0.7492">
			<stop  offset="0" style="stop-color:#FFFFFF"/>
			<stop  offset="1" style="stop-color:#A7A7A7"/>
		</linearGradient>
		<polygon class="st33" points="8.9,19.6 24.8,3 29.3,30.9 41.4,17.8 43.5,19.8 26.4,38 22.2,10 11.1,21.7 		"/>
		<linearGradient id="SVGID_33_" gradientUnits="userSpaceOnUse" x1="8.2788" y1="2.6955" x2="38.1872" y2="57.443">
			<stop  offset="0" style="stop-color:#FFFFFF"/>
			<stop  offset="1" style="stop-color:#A7A7A7"/>
		</linearGradient>
		<polygon class="st34" points="16.9,15.5 20.2,12 23,30.2 25,28.2 25.5,31.8 20.3,37.2 		"/>
		<linearGradient id="SVGID_34_" gradientUnits="userSpaceOnUse" x1="4.9559" y1="12.9909" x2="34.0626" y2="22.6293">
			<stop  offset="0" style="stop-color:#FFFFFF"/>
			<stop  offset="1" style="stop-color:#A7A7A7"/>
		</linearGradient>
		<polygon class="st35" points="28.2,24.5 35.2,17.2 41.4,17.8 39.9,19.3 37.2,19.3 28.8,28.2 		"/>
	</g>
	<g>
		<path class="st36" d="M52.1,27l10.6-15.3v-0.1H53V7.4h16.1v2.9L58.8,25.4v0.1h10.5v4.2H52.1V27z"/>
		<path class="st36" d="M77.5,7.4v22.4h-5V7.4H77.5z"/>
		<path class="st36" d="M81.8,29.7V7.4h5.9l4.6,8.2c1.3,2.4,2.6,5.1,3.6,7.7H96c-0.3-3-0.4-6-0.4-9.3V7.4h4.6v22.4h-5.3l-4.7-8.6
			c-1.3-2.4-2.8-5.3-3.8-7.9l-0.1,0c0.1,3,0.2,6.1,0.2,9.8v6.7H81.8z"/>
		<path class="st36" d="M117.7,20.3h-8.2v5.3h9.1v4.2h-14.1V7.4h13.7v4.2h-8.6v4.6h8.2V20.3z"/>
		<path class="st36" d="M127.1,7.4v12.9c0,3.9,1.4,5.8,4,5.8c2.6,0,4.1-1.9,4.1-5.8V7.4h5v12.6c0,6.9-3.5,10.2-9.2,10.2
			c-5.6,0-8.9-3.1-8.9-10.3V7.4H127.1z"/>
		<path class="st36" d="M163.2,21.2c-0.1-2.7-0.2-5.9-0.2-9.2h-0.1c-0.7,2.9-1.6,6-2.5,8.7l-2.7,8.7h-3.9l-2.4-8.7
			c-0.7-2.6-1.5-5.8-2-8.7h-0.1c-0.1,3-0.2,6.5-0.4,9.3l-0.4,8.5H144l1.4-22.4h6.7l2.2,7.5c0.7,2.6,1.4,5.4,1.9,8h0.1
			c0.6-2.6,1.4-5.5,2.1-8l2.4-7.4h6.5l1.2,22.4h-4.9L163.2,21.2z"/>
	</g>
</g>
<g id="Layer_1">
</g>
</svg>
