<?xml version="1.0" encoding="UTF-8"?>
<svg width="403px" height="88px" viewBox="0 0 403 88" version="1.1" xmlns="http://www.w3.org/2000/svg" xmlns:xlink="http://www.w3.org/1999/xlink">
    <!-- Generator: Sketch 48.2 (47327) - http://www.bohemiancoding.com/sketch -->
    <title>quillhash</title>
    <desc>Created with Sketch.</desc>
    <defs></defs>
    <g id="Page-1" stroke="none" stroke-width="1" fill="none" fill-rule="evenodd">
        <g id="quillhash" fill="#0081FF">
            <g id="ICON" transform="translate(0.363781, 0.260772)" fill-rule="nonzero">
                <path d="M91.2404096,76.0657267 L91.2404096,71.5213694 L64.3873892,60.3153974 L64.3873892,65.7892823 L84.3722332,73.793548 L64.3873892,81.8494542 L64.3873892,87.3233391 L91.2404096,76.0657267 Z M0.404903933,64.0335079 L0.404903933,68.6295056 L27.2579244,79.8354776 L27.2579244,74.3615927 L7.27308032,66.3056866 L27.2579244,58.2497804 L27.2579244,52.8275359 L0.404903933,64.0335079 Z" id="Shape"></path>
                <path d="M71.4094569,45.0343097 C76.6599682,45.0343097 83.3226336,43.032365 87.6885417,41.4909304 C88.2885954,40.5546811 88.8937806,39.6080033 89.4938343,38.6457654 C86.3642852,37.6525731 83.5139887,36.126533 82.0035086,34.4402579 C85.5055049,34.4402579 89.6077204,33.5400946 93.2701172,32.4952562 C94.2374865,30.8915817 95.1737358,29.3190271 96.0841622,27.7775926 C93.2959402,26.7844002 90.8180908,25.3773777 89.4473198,23.8462062 C92.4889714,23.8462062 96.0013961,23.1633864 99.2706543,22.2994746 C103.129538,15.6005577 116.434177,0.0405441759 116.434177,0.0405441759 C83.9226873,10.8777625 42.5189811,52.2814688 31.6817627,84.7929583 L42.2758145,79.4959324 C42.2758145,79.4959324 47.5728404,66.4188998 52.8698663,60.9563419 C56.8375042,56.8645549 67.2711554,60.1286816 74.0579698,58.3078289 C75.7651019,57.8526157 78.6256614,54.6040491 81.9465656,50.0001059 C77.7152351,49.2139942 73.4009731,47.258564 71.4094569,45.0343097 Z" id="Shape"></path>
            </g>
            <path d="M167.364487,45.7564516 C167.364487,51.6106475 166.187416,56.4751822 163.833237,60.3502016 C161.479059,64.2252209 158.156175,66.8501947 153.864487,68.2252016 L164.739487,79.5377016 L157.020737,79.5377016 L148.114487,69.2252016 L146.395737,69.2877016 C139.666537,69.2877016 134.47388,67.2304305 130.817612,63.1158266 C127.161344,59.0012227 125.333237,53.1939891 125.333237,45.6939516 C125.333237,38.2564144 127.166552,32.490847 130.833237,28.3970766 C134.499922,24.3033061 139.708203,22.2564516 146.458237,22.2564516 C153.02077,22.2564516 158.145719,24.3397641 161.833237,28.5064516 C165.520756,32.6731391 167.364487,38.4230816 167.364487,45.7564516 Z M130.958237,45.7564516 C130.958237,51.9439825 132.275932,56.6366439 134.911362,59.8345766 C137.546792,63.0325092 141.374879,64.6314516 146.395737,64.6314516 C151.458262,64.6314516 155.281141,63.0377175 157.864487,59.8502016 C160.447833,56.6626856 161.739487,51.9648159 161.739487,45.7564516 C161.739487,39.6105875 160.453042,34.9491758 157.880112,31.7720766 C155.307183,28.5949773 151.499929,27.0064516 146.458237,27.0064516 C141.395712,27.0064516 137.546792,28.6053939 134.911362,31.8033266 C132.275932,35.0012592 130.958237,39.6522544 130.958237,45.7564516 Z M201.856675,34.3970766 L201.856675,56.5689516 C201.856675,60.4752211 200.676999,63.5455029 198.317612,65.7798891 C195.958225,68.0142752 192.71607,69.1314516 188.59105,69.1314516 C184.466029,69.1314516 181.274655,68.0064628 179.016831,65.7564516 C176.759007,63.5064403 175.630112,60.4127213 175.630112,56.4752016 L175.630112,34.3970766 L179.614487,34.3970766 L179.614487,56.7564516 C179.614487,59.6158409 180.395729,61.8111314 181.958237,63.3423891 C183.520745,64.8736467 185.817597,65.6392641 188.848862,65.6392641 C191.739502,65.6392641 193.966042,64.8697405 195.52855,63.3306703 C197.091057,61.7916001 197.8723,59.5845909 197.8723,56.7095766 L197.8723,34.3970766 L201.856675,34.3970766 Z M210.926987,68.6627016 L210.926987,34.3970766 L214.911362,34.3970766 L214.911362,68.6627016 L210.926987,68.6627016 Z M224.3098,68.6627016 L224.3098,34.3970766 L228.294175,34.3970766 L228.294175,65.0533266 L243.411362,65.0533266 L243.411362,68.6627016 L224.3098,68.6627016 Z M249.223862,68.6627016 L249.223862,34.3970766 L253.208237,34.3970766 L253.208237,65.0533266 L268.325425,65.0533266 L268.325425,68.6627016 L249.223862,68.6627016 Z M308.864487,68.6627016 L303.551987,68.6627016 L303.551987,47.1627016 L279.489487,47.1627016 L279.489487,68.6627016 L274.176987,68.6627016 L274.176987,22.9752016 L279.489487,22.9752016 L279.489487,42.4127016 L303.551987,42.4127016 L303.551987,22.9752016 L308.864487,22.9752016 L308.864487,68.6627016 Z M341.364487,68.6627016 L337.098862,57.7642641 L323.364487,57.7642641 L319.145737,68.6627016 L315.114487,68.6627016 L328.661362,34.2564516 L332.012925,34.2564516 L345.489487,68.6627016 L341.364487,68.6627016 Z M335.856675,54.1783266 L331.8723,43.5611391 C331.356672,42.2173823 330.825427,40.5689613 330.27855,38.6158266 C329.934798,40.1158341 329.442615,41.7642551 328.801987,43.5611391 L324.770737,54.1783266 L335.856675,54.1783266 Z M369.536362,59.5455141 C369.536362,62.5611541 368.442623,64.9126931 366.255112,66.6002016 C364.067601,68.28771 361.098881,69.1314516 357.348862,69.1314516 C353.286342,69.1314516 350.161373,68.6080193 347.973862,67.5611391 L347.973862,63.7173891 C349.380119,64.311142 350.911354,64.7798873 352.567612,65.1236391 C354.22387,65.4673908 355.864479,65.6392641 357.489487,65.6392641 C360.14575,65.6392641 362.14573,65.1353629 363.489487,64.1275453 C364.833244,63.1197278 365.505112,61.7173981 365.505112,59.9205141 C365.505112,58.7330081 365.266833,57.7603616 364.790268,57.0025453 C364.313703,56.244729 363.516836,55.5455173 362.399643,54.9048891 C361.28245,54.2642609 359.583248,53.5377056 357.301987,52.7252016 C354.114471,51.5845709 351.83715,50.2330219 350.469956,48.6705141 C349.102762,47.1080063 348.419175,45.0689641 348.419175,42.5533266 C348.419175,39.9126884 349.411352,37.8111469 351.395737,36.2486391 C353.380122,34.6861313 356.005096,33.9048891 359.270737,33.9048891 C362.677004,33.9048891 365.809785,34.5298828 368.669175,35.7798891 L367.426987,39.2486391 C364.598848,38.0611331 361.848875,37.4673891 359.176987,37.4673891 C357.067602,37.4673891 355.419181,37.9205095 354.231675,38.8267641 C353.044169,39.7330186 352.450425,40.9908185 352.450425,42.6002016 C352.450425,43.7877075 352.669172,44.760354 353.106675,45.5181703 C353.544177,46.2759866 354.282451,46.9712922 355.321518,47.6041078 C356.360586,48.2369235 357.950414,48.9361352 360.09105,49.7017641 C363.684818,50.9830205 366.157449,52.3580067 367.509018,53.8267641 C368.860588,55.2955214 369.536362,57.2017523 369.536362,59.5455141 Z M402.5598,68.6627016 L398.575425,68.6627016 L398.575425,52.5377016 L380.52855,52.5377016 L380.52855,68.6627016 L376.544175,68.6627016 L376.544175,34.3970766 L380.52855,34.3970766 L380.52855,48.9752016 L398.575425,48.9752016 L398.575425,34.3970766 L402.5598,34.3970766 L402.5598,68.6627016 Z" id="QUILL-HASH"></path>
        </g>
    </g>
</svg>