<?xml version="1.0" encoding="UTF-8"?>
<svg xmlns="http://www.w3.org/2000/svg" xmlns:xlink="http://www.w3.org/1999/xlink" width="30pt" height="33pt" viewBox="0 0 30 33" version="1.1">
<g id="surface1">
<path style=" stroke:none;fill-rule:nonzero;fill:rgb(0%,0%,0%);fill-opacity:1;" d="M 17.105469 28.832031 L 15.632812 30.269531 C 15.007812 30.878906 13.996094 30.878906 13.378906 30.269531 L 0.464844 17.683594 C -0.160156 17.074219 -0.160156 16.089844 0.464844 15.488281 L 13.378906 2.894531 C 14.003906 2.285156 15.011719 2.285156 15.632812 2.894531 L 17.105469 4.335938 C 17.738281 4.949219 17.726562 5.953125 17.082031 6.554688 L 9.074219 13.992188 L 28.167969 13.992188 C 29.050781 13.992188 29.761719 14.683594 29.761719 15.546875 L 29.761719 17.617188 C 29.761719 18.480469 29.050781 19.171875 28.167969 19.171875 L 9.074219 19.171875 L 17.082031 26.609375 C 17.730469 27.210938 17.742188 28.214844 17.105469 28.832031 Z M 17.105469 28.832031 "/>
</g>
</svg>
