<svg xmlns="http://www.w3.org/2000/svg" width="60.361" height="62.732" viewBox="0 0 60.361 62.732"><defs><style>.a{fill:#2498d5;}</style></defs><path class="a" d="M143.128,838.475c35.83,5.426,37.089-16.777,37.089-16.777,1.393-15.9-14.886-20.562-19.8-29.394s6.493-10.154,5.8-4.475,2.651,6.686,2.841,7.128,5.042,5.3,5.739,4.386-1.987-4.386-1.987-4.386a7,7,0,0,0,2.867-3.913c2.271-6.184-8.953-21.068-20.809-11.1-11.609,10.725,3.9,22.335,7.947,28.135s3.889,10.18,1.384,10.976c-2.559.809-4.557-1.739-5.607-5.681-.978-3.676-7.44-15.512-21.194-11.734-10.216,3.285-9.023,7.319-17.226,5.048C117.268,834.312,143.128,838.475,143.128,838.475Z" transform="translate(-119.94 -776.596)"/></svg>