<svg xmlns="http://www.w3.org/2000/svg" width="70.258" height="36.313" viewBox="0 0 70.258 36.313"><defs><style>.a{fill:#2d6dcd;}.b{fill:#fff;}.c{opacity:0.2;}.d{fill:#143f80;}.e{fill:#142d53;}</style></defs><g transform="translate(-367.931 -25.748)"><path class="a" d="M419.41,43.649c.01.48,0,.96-.03,1.43-.01.13-.02.25-.03.37q-.015.315-.06.63a16.7,16.7,0,0,1-.42,2.22,11.77,11.77,0,0,1-.33,1.16c-.08.26-.17.51-.26.77a17.95,17.95,0,0,1-1.95,3.8,18.218,18.218,0,0,1-3.01,3.43,17.734,17.734,0,0,1-3.92,2.67l-.03.01a17.575,17.575,0,0,1-3.78,1.39,18.7,18.7,0,0,1-4.67.53h-.02a18.57,18.57,0,0,1-8.87-2.52,17.487,17.487,0,0,1-1.89-1.29,17.214,17.214,0,0,1-1.81-1.61,14.922,14.922,0,0,1-1.061-1.17,17.778,17.778,0,0,1-1.1-1.47c-.21-.33-.42-.67-.62-1.01a15.891,15.891,0,0,1-.77-1.49,16.774,16.774,0,0,1-.84-2.21c-.11-.35-.21-.71-.3-1.07a17.184,17.184,0,0,1-.35-1.85c-.021-.11-.04-.22-.05-.33v-.01a1.1,1.1,0,0,1-.02-.18c0-.03-.01-.05-.01-.08a1.789,1.789,0,0,1-.02-.23,18.235,18.235,0,0,1,.5-6.19A17.949,17.949,0,0,1,384.93,36c.11-.24.23-.48.36-.71a18.333,18.333,0,0,1,3.67-4.74,18.125,18.125,0,0,1,16.59-4.28c.35.09.7.18,1.04.29a17.857,17.857,0,0,1,3.97,1.76,15.722,15.722,0,0,1,2.03,1.41,14.047,14.047,0,0,1,1.429,1.26,18.243,18.243,0,0,1,2.631,3.28,19.1,19.1,0,0,1,1.31,2.5c.03.07.059.15.09.23.01.03.03.07.04.1.17.42.32.85.46,1.28.13.39.24.79.34,1.2a19.708,19.708,0,0,1,.41,2.25A15.871,15.871,0,0,1,419.41,43.649Z"/><path class="b" d="M416.33,54.029a18.218,18.218,0,0,1-3.01,3.43,17.734,17.734,0,0,1-3.92,2.67l-.03.01-8.45,1.92h-.02a18.57,18.57,0,0,1-8.87-2.52l21.37-4.85Z"/><path class="b" d="M419.41,43.649c.01.48,0,.96-.03,1.43-.01.13-.02.25-.03.37q-.015.315-.06.63a16.7,16.7,0,0,1-.42,2.22l-5.68,1.29-25.921,5.88a17.778,17.778,0,0,1-1.1-1.47c-.21-.33-.42-.67-.62-1.01a15.891,15.891,0,0,1-.77-1.49l27.87-6.32Z"/><path class="b" d="M418.55,38.379l-7.02,1.59-28.24,6.4c-.021-.11-.04-.22-.05-.33v-.01a1.1,1.1,0,0,1-.02-.18c0-.03-.01-.05-.01-.08a1.789,1.789,0,0,1-.02-.23,17.478,17.478,0,0,1,.04-3.69l26.96-6.11,6.46-1.47a19.1,19.1,0,0,1,1.31,2.5c.03.07.059.15.09.23.01.03.03.07.04.1C418.26,37.519,418.41,37.949,418.55,38.379Z"/><path class="b" d="M412.59,29.729l-4.52,1.03L384.93,36c.11-.24.23-.48.36-.71a18.333,18.333,0,0,1,3.67-4.74l16.88-3.82.75-.17a17.857,17.857,0,0,1,3.97,1.76A15.722,15.722,0,0,1,412.59,29.729Z"/><path class="c" d="M419.41,43.649c.01.48,0,.96-.03,1.43-.01.13-.02.25-.03.37q-.015.315-.06.63a16.7,16.7,0,0,1-.42,2.22,11.77,11.77,0,0,1-.33,1.16c-.08.26-.17.51-.26.77a17.95,17.95,0,0,1-1.95,3.8,18.218,18.218,0,0,1-3.01,3.43c.05-.94.08-1.87.08-2.77q.015-2.655-.21-5.1-.18-2.3-.54-4.41a52.911,52.911,0,0,0-1.12-5.21c-.4-1.49-.85-2.9-1.34-4.23a49.058,49.058,0,0,0-2.12-4.98c-.74-1.5-1.5-2.85-2.23-4.03-.1-.16-.2-.31-.29-.46.35.09.7.18,1.04.29a17.857,17.857,0,0,1,3.97,1.76,15.722,15.722,0,0,1,2.03,1.41,14.047,14.047,0,0,1,1.429,1.26,18.243,18.243,0,0,1,2.631,3.28,19.1,19.1,0,0,1,1.31,2.5c.03.07.059.15.09.23.01.03.03.07.04.1.17.42.32.85.46,1.28.13.39.24.79.34,1.2a19.708,19.708,0,0,1,.41,2.25A15.871,15.871,0,0,1,419.41,43.649Z"/><path class="d" d="M404.71,53.429c-19.38,4.75-35.83,5.6-36.74,1.89-.59-2.41,5.56-6.16,15.27-9.8a1.727,1.727,0,0,0,.07.21,2.17,2.17,0,0,0,.07.24c-4.5,2.06-7.12,4.02-6.78,5.4.68,2.75,12.88,2.12,27.26-1.4s25.48-8.61,24.81-11.36c-.39-1.58-4.55-2.04-10.73-1.5-.01-.03-.01-.06-.02-.09-.01-.08-.03-.16-.04-.24,11.45-1.61,19.63-1.24,20.27,1.34C439.05,41.829,424.08,48.679,404.71,53.429Z"/><path class="e" d="M403.81,50.649c-16.91,4.15-31.19,5.18-31.9,2.31-.42-1.72,4.1-4.44,11.4-7.23a2.17,2.17,0,0,0,.07.24c-4.5,2.06-7.12,4.02-6.78,5.4.68,2.75,12.88,2.12,27.26-1.4s25.48-8.61,24.81-11.36c-.39-1.58-4.55-2.04-10.73-1.5-.01-.03-.01-.06-.02-.09,8.74-1.16,14.79-.92,15.24.92C433.86,40.809,420.72,46.509,403.81,50.649Z"/></g></svg>