<svg xmlns="http://www.w3.org/2000/svg" width="143" height="169" viewBox="0 0 143 169"><defs><style>.a{fill:#6fa0ea;}.b{fill:#374967;opacity:0.209;}.c{fill:#d7e5fc;}.d{fill:#2d6dcd;}</style></defs><g transform="translate(-612 -430)"><path class="a" d="M0,0H106a23,23,0,0,1,23,23V158a0,0,0,0,1,0,0H0a0,0,0,0,1,0,0V0A0,0,0,0,1,0,0Z" transform="translate(612 430)"/><path class="b" d="M23646.445,4877.308l-.945,20.458,20.254-.952s-1.086-5.208-7.061-11.621S23646.445,4877.308,23646.445,4877.308Z" transform="translate(-22925 -4447)"/><path class="c" d="M23645.619,4878.306l-.119,19.46h19.293s-.125-6.16-6.1-12.573A21.515,21.515,0,0,0,23645.619,4878.306Z" transform="translate(-22924 -4448)"/><circle class="c" cx="19.5" cy="19.5" r="19.5" transform="translate(716 560)"/><path class="d" d="M11.855,5.245,3.553,20.4a1.425,1.425,0,0,0,1.27,2.1H21.431a1.428,1.428,0,0,0,1.27-2.1L14.4,5.245A1.455,1.455,0,0,0,11.855,5.245Zm2.1,6.286-.169,5.719H12.469L12.3,11.531Zm-.825,8.831a.863.863,0,1,1,.9-.863A.871.871,0,0,1,13.125,20.362Z" transform="translate(722.65 562.5)"/></g></svg>