<?xml version="1.0"?>
<svg xmlns="http://www.w3.org/2000/svg" xmlns:xlink="http://www.w3.org/1999/xlink" version="1.1" viewBox="0 0 224 224" width="48px" height="48px"><g fill="none" fill-rule="nonzero" stroke="none" stroke-width="1" stroke-linecap="butt" stroke-linejoin="miter" stroke-miterlimit="10" stroke-dasharray="" stroke-dashoffset="0" font-family="none" font-weight="none" font-size="none" text-anchor="none" style="mix-blend-mode: normal"><path d="M0,224v-224h224v224z" fill="none"/><path d="M112,224c-61.85589,0 -112,-50.14411 -112,-112v0c0,-61.85589 50.14411,-112 112,-112v0c61.85589,0 112,50.14411 112,112v0c0,61.85589 -50.14411,112 -112,112z" fill="#3498db"/><g id="Layer_1" fill="#ffffff"><g id="surface1"><path d="M53.01903,136.58395c0,5.40659 -4.42357,9.83016 -9.83016,9.83016c-5.40659,0 -9.83016,-4.42357 -9.83016,-9.83016v-44.23573c0,-5.40659 4.42357,-9.83016 9.83016,-9.83016c5.40659,0 9.83016,4.42357 9.83016,9.83016z"/><path d="M190.6413,136.58395c0,5.40659 -4.42357,9.83016 -9.83016,9.83016c-5.40659,0 -9.83016,-4.42357 -9.83016,-9.83016v-44.23573c0,-5.40659 4.42357,-9.83016 9.83016,-9.83016c5.40659,0 9.83016,4.42357 9.83016,9.83016z"/><path d="M102.16984,190.64984c0,5.40659 -4.42357,9.83016 -9.83016,9.83016c-5.40659,0 -9.83016,-4.42357 -9.83016,-9.83016v-44.23573c0,-5.40659 4.42357,-9.83016 9.83016,-9.83016c5.40659,0 9.83016,4.42357 9.83016,9.83016z"/><path d="M141.49049,190.64984c0,5.40659 -4.42357,9.83016 -9.83016,9.83016c-5.40659,0 -9.83016,-4.42357 -9.83016,-9.83016v-44.23573c0,-5.40659 4.42357,-9.83016 9.83016,-9.83016c5.40659,0 9.83016,4.42357 9.83016,9.83016z"/><path d="M62.84919,82.51805v73.72622c0,5.40659 4.42357,9.83016 9.83016,9.83016h78.6413c5.40659,0 9.83016,-4.42357 9.83016,-9.83016v-73.72622z"/><path d="M112,33.36724c-29.49049,0 -47.67629,17.69429 -49.15081,39.32065h98.30162c-1.47452,-21.62636 -19.66032,-39.32065 -49.15081,-39.32065zM92.33968,60.8917c-2.94905,0 -4.91508,-1.96603 -4.91508,-4.91508c0,-2.94905 1.96603,-4.91508 4.91508,-4.91508c2.94905,0 4.91508,1.96603 4.91508,4.91508c0,2.45754 -1.96603,4.91508 -4.91508,4.91508zM131.66032,60.8917c-2.94905,0 -4.91508,-1.96603 -4.91508,-4.91508c0,-2.94905 1.96603,-4.91508 4.91508,-4.91508c2.94905,0 4.91508,1.96603 4.91508,4.91508c0,2.45754 -1.96603,4.91508 -4.91508,4.91508z"/><path d="M133.13485,45.65494c-0.98302,0 -1.96603,-0.49151 -2.94905,-0.98302c-2.45754,-1.47452 -2.94905,-4.42357 -1.47452,-6.88111l8.35564,-12.2877c1.47452,-2.45754 4.42357,-2.94905 6.88111,-1.47452c2.45754,1.47452 2.94905,4.42357 1.47452,6.88111l-8.35564,12.2877c-0.49151,1.47452 -1.96603,2.45754 -3.93206,2.45754z"/><path d="M88.89912,43.68891c-1.47452,0 -3.44056,-0.98302 -3.93206,-2.45754l-6.38961,-10.32167c-1.47452,-2.45754 -0.98302,-5.40659 1.47452,-6.88111c2.45754,-1.47452 5.40659,-0.98302 6.88111,1.47452l6.38961,10.32167c1.47452,2.45754 0.98302,5.40659 -1.47452,6.88111c-0.98302,0.49151 -1.96603,0.98302 -2.94905,0.98302z"/></g></g><path d="M112,224c-61.85589,0 -112,-50.14411 -112,-112v0c0,-61.85589 50.14411,-112 112,-112v0c61.85589,0 112,50.14411 112,112v0c0,61.85589 -50.14411,112 -112,112z" fill="none"/><path d="M112,219.52c-59.38166,0 -107.52,-48.13834 -107.52,-107.52v0c0,-59.38166 48.13834,-107.52 107.52,-107.52h0c59.38166,0 107.52,48.13834 107.52,107.52v0c0,59.38166 -48.13834,107.52 -107.52,107.52z" fill="none"/><path d="M112,224c-61.85589,0 -112,-50.14411 -112,-112v0c0,-61.85589 50.14411,-112 112,-112v0c61.85589,0 112,50.14411 112,112v0c0,61.85589 -50.14411,112 -112,112z" fill="none"/><path d="M112,219.52c-59.38166,0 -107.52,-48.13834 -107.52,-107.52v0c0,-59.38166 48.13834,-107.52 107.52,-107.52h0c59.38166,0 107.52,48.13834 107.52,107.52v0c0,59.38166 -48.13834,107.52 -107.52,107.52z" fill="none"/><path d="M112,224c-61.85589,0 -112,-50.14411 -112,-112v0c0,-61.85589 50.14411,-112 112,-112v0c61.85589,0 112,50.14411 112,112v0c0,61.85589 -50.14411,112 -112,112z" fill="none"/><path d="M112,215.04c-56.90742,0 -103.04,-46.13258 -103.04,-103.04v0c0,-56.90742 46.13258,-103.04 103.04,-103.04v0c56.90742,0 103.04,46.13258 103.04,103.04v0c0,56.90742 -46.13258,103.04 -103.04,103.04z" fill="none"/><path d="M112,224c-61.85589,0 -112,-50.14411 -112,-112v0c0,-61.85589 50.14411,-112 112,-112v0c61.85589,0 112,50.14411 112,112v0c0,61.85589 -50.14411,112 -112,112z" fill="none"/><path d="M112,210.56c-54.43318,0 -98.56,-44.12682 -98.56,-98.56v0c0,-54.43318 44.12682,-98.56 98.56,-98.56v0c54.43318,0 98.56,44.12682 98.56,98.56v0c0,54.43318 -44.12682,98.56 -98.56,98.56z" fill="none"/><path d="M112,224c-61.85589,0 -112,-50.14411 -112,-112v0c0,-61.85589 50.14411,-112 112,-112v0c61.85589,0 112,50.14411 112,112v0c0,61.85589 -50.14411,112 -112,112z" fill="none"/><path d="M112,206.08c-51.95895,0 -94.08,-42.12105 -94.08,-94.08v0c0,-51.95895 42.12105,-94.08 94.08,-94.08h0c51.95895,0 94.08,42.12105 94.08,94.08v0c0,51.95895 -42.12105,94.08 -94.08,94.08z" fill="none"/><path d="M112,224c-61.85589,0 -112,-50.14411 -112,-112v0c0,-61.85589 50.14411,-112 112,-112v0c61.85589,0 112,50.14411 112,112v0c0,61.85589 -50.14411,112 -112,112z" fill="none"/><path d="M112,201.6c-49.48471,0 -89.6,-40.11529 -89.6,-89.6v0c0,-49.48471 40.11529,-89.6 89.6,-89.6v0c49.48471,0 89.6,40.11529 89.6,89.6v0c0,49.48471 -40.11529,89.6 -89.6,89.6z" fill="none"/><path d="M112,224c-61.85589,0 -112,-50.14411 -112,-112v0c0,-61.85589 50.14411,-112 112,-112v0c61.85589,0 112,50.14411 112,112v0c0,61.85589 -50.14411,112 -112,112z" fill="none"/><path d="M112,197.12c-47.01048,0 -85.12,-38.10952 -85.12,-85.12v0c0,-47.01048 38.10952,-85.12 85.12,-85.12v0c47.01048,0 85.12,38.10952 85.12,85.12v0c0,47.01048 -38.10952,85.12 -85.12,85.12z" fill="none"/><path d="M112,224c-61.85589,0 -112,-50.14411 -112,-112v0c0,-61.85589 50.14411,-112 112,-112v0c61.85589,0 112,50.14411 112,112v0c0,61.85589 -50.14411,112 -112,112z" fill="none"/><path d="M112,192.64c-44.53624,0 -80.64,-36.10376 -80.64,-80.64v0c0,-44.53624 36.10376,-80.64 80.64,-80.64h0c44.53624,0 80.64,36.10376 80.64,80.64v0c0,44.53624 -36.10376,80.64 -80.64,80.64z" fill="none"/><path d="M112,224c-61.85589,0 -112,-50.14411 -112,-112v0c0,-61.85589 50.14411,-112 112,-112v0c61.85589,0 112,50.14411 112,112v0c0,61.85589 -50.14411,112 -112,112z" fill="none"/><path d="M112,188.16c-42.06201,0 -76.16,-34.09799 -76.16,-76.16v0c0,-42.06201 34.09799,-76.16 76.16,-76.16v0c42.06201,0 76.16,34.09799 76.16,76.16v0c0,42.06201 -34.09799,76.16 -76.16,76.16z" fill="none"/><path d="M112,224c-61.85589,0 -112,-50.14411 -112,-112v0c0,-61.85589 50.14411,-112 112,-112v0c61.85589,0 112,50.14411 112,112v0c0,61.85589 -50.14411,112 -112,112z" fill="none"/><path d="M112,183.68c-39.58777,0 -71.68,-32.09223 -71.68,-71.68v0c0,-39.58777 32.09223,-71.68 71.68,-71.68h0c39.58777,0 71.68,32.09223 71.68,71.68v0c0,39.58777 -32.09223,71.68 -71.68,71.68z" fill="none"/><path d="M112,224c-61.85589,0 -112,-50.14411 -112,-112v0c0,-61.85589 50.14411,-112 112,-112v0c61.85589,0 112,50.14411 112,112v0c0,61.85589 -50.14411,112 -112,112z" fill="none"/><path d="M112,179.2c-37.11354,0 -67.2,-30.08646 -67.2,-67.2v0c0,-37.11354 30.08646,-67.2 67.2,-67.2v0c37.11354,0 67.2,30.08646 67.2,67.2v0c0,37.11354 -30.08646,67.2 -67.2,67.2z" fill="none"/><path d="M112,224c-61.85589,0 -112,-50.14411 -112,-112v0c0,-61.85589 50.14411,-112 112,-112v0c61.85589,0 112,50.14411 112,112v0c0,61.85589 -50.14411,112 -112,112z" fill="none"/><path d="M112,179.2c-37.11354,0 -67.2,-30.08646 -67.2,-67.2v0c0,-37.11354 30.08646,-67.2 67.2,-67.2v0c37.11354,0 67.2,30.08646 67.2,67.2v0c0,37.11354 -30.08646,67.2 -67.2,67.2z" fill="none"/><path d="M112,224c-61.85589,0 -112,-50.14411 -112,-112v0c0,-61.85589 50.14411,-112 112,-112v0c61.85589,0 112,50.14411 112,112v0c0,61.85589 -50.14411,112 -112,112z" fill="none"/><path d="M112,179.2c-37.11354,0 -67.2,-30.08646 -67.2,-67.2v0c0,-37.11354 30.08646,-67.2 67.2,-67.2v0c37.11354,0 67.2,30.08646 67.2,67.2v0c0,37.11354 -30.08646,67.2 -67.2,67.2z" fill="none"/><path d="M112,224c-61.85589,0 -112,-50.14411 -112,-112v0c0,-61.85589 50.14411,-112 112,-112v0c61.85589,0 112,50.14411 112,112v0c0,61.85589 -50.14411,112 -112,112z" fill="none"/><path d="M112,179.2c-37.11354,0 -67.2,-30.08646 -67.2,-67.2v0c0,-37.11354 30.08646,-67.2 67.2,-67.2v0c37.11354,0 67.2,30.08646 67.2,67.2v0c0,37.11354 -30.08646,67.2 -67.2,67.2z" fill="none"/><path d="M112,224c-61.85589,0 -112,-50.14411 -112,-112v0c0,-61.85589 50.14411,-112 112,-112v0c61.85589,0 112,50.14411 112,112v0c0,61.85589 -50.14411,112 -112,112z" fill="none"/><path d="M112,179.2c-37.11354,0 -67.2,-30.08646 -67.2,-67.2v0c0,-37.11354 30.08646,-67.2 67.2,-67.2v0c37.11354,0 67.2,30.08646 67.2,67.2v0c0,37.11354 -30.08646,67.2 -67.2,67.2z" fill="none"/><path d="M112,224c-61.85589,0 -112,-50.14411 -112,-112v0c0,-61.85589 50.14411,-112 112,-112v0c61.85589,0 112,50.14411 112,112v0c0,61.85589 -50.14411,112 -112,112z" fill="none"/><path d="M112,179.2c-37.11354,0 -67.2,-30.08646 -67.2,-67.2v0c0,-37.11354 30.08646,-67.2 67.2,-67.2v0c37.11354,0 67.2,30.08646 67.2,67.2v0c0,37.11354 -30.08646,67.2 -67.2,67.2z" fill="none"/><path d="M112,224c-61.85589,0 -112,-50.14411 -112,-112v0c0,-61.85589 50.14411,-112 112,-112v0c61.85589,0 112,50.14411 112,112v0c0,61.85589 -50.14411,112 -112,112z" fill="none"/><path d="M112,179.2c-37.11354,0 -67.2,-30.08646 -67.2,-67.2v0c0,-37.11354 30.08646,-67.2 67.2,-67.2v0c37.11354,0 67.2,30.08646 67.2,67.2v0c0,37.11354 -30.08646,67.2 -67.2,67.2z" fill="none"/><path d="M112,224c-61.85589,0 -112,-50.14411 -112,-112v0c0,-61.85589 50.14411,-112 112,-112v0c61.85589,0 112,50.14411 112,112v0c0,61.85589 -50.14411,112 -112,112z" fill="none"/><path d="M112,179.2c-37.11354,0 -67.2,-30.08646 -67.2,-67.2v0c0,-37.11354 30.08646,-67.2 67.2,-67.2v0c37.11354,0 67.2,30.08646 67.2,67.2v0c0,37.11354 -30.08646,67.2 -67.2,67.2z" fill="none"/><path d="M112,224c-61.85589,0 -112,-50.14411 -112,-112v0c0,-61.85589 50.14411,-112 112,-112v0c61.85589,0 112,50.14411 112,112v0c0,61.85589 -50.14411,112 -112,112z" fill="none"/><path d="M112,179.2c-37.11354,0 -67.2,-30.08646 -67.2,-67.2v0c0,-37.11354 30.08646,-67.2 67.2,-67.2v0c37.11354,0 67.2,30.08646 67.2,67.2v0c0,37.11354 -30.08646,67.2 -67.2,67.2z" fill="none"/><path d="M112,224c-61.85589,0 -112,-50.14411 -112,-112v0c0,-61.85589 50.14411,-112 112,-112v0c61.85589,0 112,50.14411 112,112v0c0,61.85589 -50.14411,112 -112,112z" fill="none"/><path d="M112,179.2c-37.11354,0 -67.2,-30.08646 -67.2,-67.2v0c0,-37.11354 30.08646,-67.2 67.2,-67.2v0c37.11354,0 67.2,30.08646 67.2,67.2v0c0,37.11354 -30.08646,67.2 -67.2,67.2z" fill="none"/><path d="M112,224c-61.85589,0 -112,-50.14411 -112,-112v0c0,-61.85589 50.14411,-112 112,-112v0c61.85589,0 112,50.14411 112,112v0c0,61.85589 -50.14411,112 -112,112z" fill="none"/><path d="M112,179.2c-37.11354,0 -67.2,-30.08646 -67.2,-67.2v0c0,-37.11354 30.08646,-67.2 67.2,-67.2v0c37.11354,0 67.2,30.08646 67.2,67.2v0c0,37.11354 -30.08646,67.2 -67.2,67.2z" fill="none"/><path d="M112,224c-61.85589,0 -112,-50.14411 -112,-112v0c0,-61.85589 50.14411,-112 112,-112v0c61.85589,0 112,50.14411 112,112v0c0,61.85589 -50.14411,112 -112,112z" fill="none"/><path d="M112,179.2c-37.11354,0 -67.2,-30.08646 -67.2,-67.2v0c0,-37.11354 30.08646,-67.2 67.2,-67.2v0c37.11354,0 67.2,30.08646 67.2,67.2v0c0,37.11354 -30.08646,67.2 -67.2,67.2z" fill="none"/><path d="M112,224c-61.85589,0 -112,-50.14411 -112,-112v0c0,-61.85589 50.14411,-112 112,-112v0c61.85589,0 112,50.14411 112,112v0c0,61.85589 -50.14411,112 -112,112z" fill="none"/><path d="M112,179.2c-37.11354,0 -67.2,-30.08646 -67.2,-67.2v0c0,-37.11354 30.08646,-67.2 67.2,-67.2v0c37.11354,0 67.2,30.08646 67.2,67.2v0c0,37.11354 -30.08646,67.2 -67.2,67.2z" fill="none"/><path d="M112,224c-61.85589,0 -112,-50.14411 -112,-112v0c0,-61.85589 50.14411,-112 112,-112v0c61.85589,0 112,50.14411 112,112v0c0,61.85589 -50.14411,112 -112,112z" fill="none"/><path d="M112,179.2c-37.11354,0 -67.2,-30.08646 -67.2,-67.2v0c0,-37.11354 30.08646,-67.2 67.2,-67.2v0c37.11354,0 67.2,30.08646 67.2,67.2v0c0,37.11354 -30.08646,67.2 -67.2,67.2z" fill="none"/><path d="M112,224c-61.85589,0 -112,-50.14411 -112,-112v0c0,-61.85589 50.14411,-112 112,-112v0c61.85589,0 112,50.14411 112,112v0c0,61.85589 -50.14411,112 -112,112z" fill="none"/><path d="M112,179.2c-37.11354,0 -67.2,-30.08646 -67.2,-67.2v0c0,-37.11354 30.08646,-67.2 67.2,-67.2v0c37.11354,0 67.2,30.08646 67.2,67.2v0c0,37.11354 -30.08646,67.2 -67.2,67.2z" fill="none"/><path d="M112,224c-61.85589,0 -112,-50.14411 -112,-112v0c0,-61.85589 50.14411,-112 112,-112v0c61.85589,0 112,50.14411 112,112v0c0,61.85589 -50.14411,112 -112,112z" fill="none"/><path d="M112,179.2c-37.11354,0 -67.2,-30.08646 -67.2,-67.2v0c0,-37.11354 30.08646,-67.2 67.2,-67.2v0c37.11354,0 67.2,30.08646 67.2,67.2v0c0,37.11354 -30.08646,67.2 -67.2,67.2z" fill="none"/><path d="M112,224c-61.85589,0 -112,-50.14411 -112,-112v0c0,-61.85589 50.14411,-112 112,-112v0c61.85589,0 112,50.14411 112,112v0c0,61.85589 -50.14411,112 -112,112z" fill="none"/><path d="M112,179.2c-37.11354,0 -67.2,-30.08646 -67.2,-67.2v0c0,-37.11354 30.08646,-67.2 67.2,-67.2v0c37.11354,0 67.2,30.08646 67.2,67.2v0c0,37.11354 -30.08646,67.2 -67.2,67.2z" fill="none"/><path d="M112,224c-61.85589,0 -112,-50.14411 -112,-112v0c0,-61.85589 50.14411,-112 112,-112v0c61.85589,0 112,50.14411 112,112v0c0,61.85589 -50.14411,112 -112,112z" fill="none"/><path d="M112,179.2c-37.11354,0 -67.2,-30.08646 -67.2,-67.2v0c0,-37.11354 30.08646,-67.2 67.2,-67.2v0c37.11354,0 67.2,30.08646 67.2,67.2v0c0,37.11354 -30.08646,67.2 -67.2,67.2z" fill="none"/><path d="M112,224c-61.85589,0 -112,-50.14411 -112,-112v0c0,-61.85589 50.14411,-112 112,-112v0c61.85589,0 112,50.14411 112,112v0c0,61.85589 -50.14411,112 -112,112z" fill="none"/><path d="M112,179.2c-37.11354,0 -67.2,-30.08646 -67.2,-67.2v0c0,-37.11354 30.08646,-67.2 67.2,-67.2v0c37.11354,0 67.2,30.08646 67.2,67.2v0c0,37.11354 -30.08646,67.2 -67.2,67.2z" fill="none"/><path d="M112,224c-61.85589,0 -112,-50.14411 -112,-112v0c0,-61.85589 50.14411,-112 112,-112v0c61.85589,0 112,50.14411 112,112v0c0,61.85589 -50.14411,112 -112,112z" fill="none"/><path d="M112,179.2c-37.11354,0 -67.2,-30.08646 -67.2,-67.2v0c0,-37.11354 30.08646,-67.2 67.2,-67.2v0c37.11354,0 67.2,30.08646 67.2,67.2v0c0,37.11354 -30.08646,67.2 -67.2,67.2z" fill="none"/><path d="M112,224c-61.85589,0 -112,-50.14411 -112,-112v0c0,-61.85589 50.14411,-112 112,-112v0c61.85589,0 112,50.14411 112,112v0c0,61.85589 -50.14411,112 -112,112z" fill="none"/><path d="M112,179.2c-37.11354,0 -67.2,-30.08646 -67.2,-67.2v0c0,-37.11354 30.08646,-67.2 67.2,-67.2v0c37.11354,0 67.2,30.08646 67.2,67.2v0c0,37.11354 -30.08646,67.2 -67.2,67.2z" fill="none"/><path d="M112,224c-61.85589,0 -112,-50.14411 -112,-112v0c0,-61.85589 50.14411,-112 112,-112v0c61.85589,0 112,50.14411 112,112v0c0,61.85589 -50.14411,112 -112,112z" fill="none"/><path d="M112,179.2c-37.11354,0 -67.2,-30.08646 -67.2,-67.2v0c0,-37.11354 30.08646,-67.2 67.2,-67.2v0c37.11354,0 67.2,30.08646 67.2,67.2v0c0,37.11354 -30.08646,67.2 -67.2,67.2z" fill="none"/><path d="M112,224c-61.85589,0 -112,-50.14411 -112,-112v0c0,-61.85589 50.14411,-112 112,-112v0c61.85589,0 112,50.14411 112,112v0c0,61.85589 -50.14411,112 -112,112z" fill="none"/><path d="M112,179.2c-37.11354,0 -67.2,-30.08646 -67.2,-67.2v0c0,-37.11354 30.08646,-67.2 67.2,-67.2v0c37.11354,0 67.2,30.08646 67.2,67.2v0c0,37.11354 -30.08646,67.2 -67.2,67.2z" fill="none"/><path d="M112,224c-61.85589,0 -112,-50.14411 -112,-112v0c0,-61.85589 50.14411,-112 112,-112v0c61.85589,0 112,50.14411 112,112v0c0,61.85589 -50.14411,112 -112,112z" fill="none"/><path d="M112,179.2c-37.11354,0 -67.2,-30.08646 -67.2,-67.2v0c0,-37.11354 30.08646,-67.2 67.2,-67.2v0c37.11354,0 67.2,30.08646 67.2,67.2v0c0,37.11354 -30.08646,67.2 -67.2,67.2z" fill="none"/><path d="M112,224c-61.85589,0 -112,-50.14411 -112,-112v0c0,-61.85589 50.14411,-112 112,-112v0c61.85589,0 112,50.14411 112,112v0c0,61.85589 -50.14411,112 -112,112z" fill="none"/><path d="M112,179.2c-37.11354,0 -67.2,-30.08646 -67.2,-67.2v0c0,-37.11354 30.08646,-67.2 67.2,-67.2v0c37.11354,0 67.2,30.08646 67.2,67.2v0c0,37.11354 -30.08646,67.2 -67.2,67.2z" fill="none"/><path d="M112,224c-61.85589,0 -112,-50.14411 -112,-112v0c0,-61.85589 50.14411,-112 112,-112v0c61.85589,0 112,50.14411 112,112v0c0,61.85589 -50.14411,112 -112,112z" fill="none"/><path d="M112,179.2c-37.11354,0 -67.2,-30.08646 -67.2,-67.2v0c0,-37.11354 30.08646,-67.2 67.2,-67.2v0c37.11354,0 67.2,30.08646 67.2,67.2v0c0,37.11354 -30.08646,67.2 -67.2,67.2z" fill="none"/><path d="M112,224c-61.85589,0 -112,-50.14411 -112,-112v0c0,-61.85589 50.14411,-112 112,-112v0c61.85589,0 112,50.14411 112,112v0c0,61.85589 -50.14411,112 -112,112z" fill="none"/><path d="M112,179.2c-37.11354,0 -67.2,-30.08646 -67.2,-67.2v0c0,-37.11354 30.08646,-67.2 67.2,-67.2v0c37.11354,0 67.2,30.08646 67.2,67.2v0c0,37.11354 -30.08646,67.2 -67.2,67.2z" fill="none"/></g></svg>
