<svg xmlns="http://www.w3.org/2000/svg" width="44.832" height="35.866" viewBox="0 0 44.832 35.866"><defs><style>.a{fill:active ? #2d6dcd : #2d6dcd}</style></defs><g transform="translate(0 -0.904)"><g transform="translate(0 0.904)"><path class="a" d="M17.615,50.483H5.989A2.989,2.989,0,0,1,3,47.494v-.747a.747.747,0,0,1,1.494,0v.747a1.494,1.494,0,0,0,1.494,1.494H17.615a.747.747,0,0,1,0,1.494Z" transform="translate(-2.253 -15.365)"/><path class="a" d="M19.018,36.9H8a.747.747,0,0,1-.747-.747v-25.4a.747.747,0,1,1,1.494,0V35.4H19.018a.747.747,0,1,1,0,1.494Z" transform="translate(-3.327 -6.264)"/><path class="a" d="M52.208,39.933H41.747a.747.747,0,0,1,0-1.494h9.714V22.747a.747.747,0,0,1,1.494,0V39.186A.747.747,0,0,1,52.208,39.933Z" transform="translate(-11.859 -9.298)"/><rect class="a" width="8.966" height="2.242" transform="translate(17.933 30.635)"/><path class="a" d="M44.107,37.646H6.747A.747.747,0,0,1,6,36.9V10.747A.747.747,0,0,1,6.747,10H34.961a.747.747,0,1,1,0,1.494H7.494V36.152H43.36V18.75a.747.747,0,1,1,1.494,0V36.9A.747.747,0,0,1,44.107,37.646Z" transform="translate(-3.011 -6.264)"/><path class="a" d="M43.843,50.978H4.989A2.989,2.989,0,0,1,2,47.989V45.747A.747.747,0,0,1,2.747,45H46.085a.747.747,0,0,1,.747.747v2.242A2.989,2.989,0,0,1,43.843,50.978ZM3.494,46.494v1.494a1.494,1.494,0,0,0,1.494,1.494H43.843a1.494,1.494,0,0,0,1.494-1.494V46.494Z" transform="translate(-2 -15.112)"/><path class="a" d="M50.1,19.2a7.1,7.1,0,1,1,7.1-7.1A7.1,7.1,0,0,1,50.1,19.2Zm0-12.7a5.6,5.6,0,1,0,5.6,5.6A5.6,5.6,0,0,0,50.1,6.494Z" transform="translate(-12.365 -5)"/><path class="a" d="M51.314,16.885v-.852a3.736,3.736,0,0,1-1.494-.389l.269-1.046a3.258,3.258,0,0,0,1.494.4c.508,0,.859-.2.859-.56s-.291-.553-.949-.747c-.964-.321-1.614-.747-1.614-1.644a1.651,1.651,0,0,1,1.494-1.592V9.57h.882v.747a3.325,3.325,0,0,1,1.3.3l-.262,1.016a2.869,2.869,0,0,0-1.308-.247c-.583,0-.747.247-.747.5s.314.486,1.076.747c1.068.374,1.494.867,1.494,1.674A1.711,1.711,0,0,1,52.2,15.966v.919Z" transform="translate(-14.089 -6.155)"/><rect class="a" width="3.295" height="6.725" transform="translate(12.702 18.68)"/><rect class="a" width="3.295" height="9.714" transform="translate(20.391 15.691)"/><rect class="a" width="3.295" height="13.45" transform="translate(28.087 11.955)"/></g></g></svg>