<svg xmlns="http://www.w3.org/2000/svg" width="45" height="30.208" viewBox="0 0 45 30.208"><defs><style>.a{fill:#2d6dcd;}</style></defs><g transform="translate(0 -84)"><path class="a" d="M41.11,84H3.889A3.894,3.894,0,0,0,0,87.89v22.429a3.894,3.894,0,0,0,3.889,3.89H41.11a3.894,3.894,0,0,0,3.89-3.89V87.89A3.894,3.894,0,0,0,41.11,84Zm2.553,26.318a2.556,2.556,0,0,1-2.553,2.553H3.889a2.556,2.556,0,0,1-2.553-2.553V87.89a2.556,2.556,0,0,1,2.553-2.553H41.11a2.556,2.556,0,0,1,2.553,2.553Z"/><path class="a" d="M58.963,144.832H44.233a.663.663,0,0,0-.635.688v1.651a.637.637,0,1,0,1.27,0v-.963H58.329V163H44.868V149.924a.637.637,0,1,0-1.27,0v13.761a.663.663,0,0,0,.635.688h14.73a.663.663,0,0,0,.635-.688V145.52A.663.663,0,0,0,58.963,144.832Z" transform="translate(-39.958 -55.753)"/><path class="a" d="M281.172,162.465H265.256a.635.635,0,1,0,0,1.27h15.916a.635.635,0,0,0,0-1.27Z" transform="translate(-240.277 -71.553)"/><path class="a" d="M416.838,217.625h-3.556a.635.635,0,0,0,0,1.27h3.556a.635.635,0,0,0,0-1.27Z" transform="translate(-375.944 -121.853)"/><path class="a" d="M265.256,218.895h9.82a.635.635,0,1,0,0-1.27h-9.82a.635.635,0,1,0,0,1.27Z" transform="translate(-240.956 -121.853)"/><path class="a" d="M281.172,272.785H265.256a.635.635,0,1,0,0,1.27h15.916a.635.635,0,0,0,0-1.27Z" transform="translate(-240.277 -172.154)"/><path class="a" d="M273.891,327.945h-8.635a.635.635,0,1,0,0,1.27h8.635a.635.635,0,0,0,0-1.27Z" transform="translate(-241.013 -222.455)"/><path class="a" d="M86.18,196.435a.635.635,0,0,0,1.27,0,3.175,3.175,0,1,1,6.349,0,.635.635,0,0,0,1.27,0,4.446,4.446,0,0,0-2.158-3.81,4.445,4.445,0,1,0-4.573,0A4.446,4.446,0,0,0,86.18,196.435Zm1.27-7.619a3.175,3.175,0,1,1,3.175,3.175A3.178,3.178,0,0,1,87.45,188.815Z" transform="translate(-78.506 -91.2)"/></g></svg>