<svg xmlns="http://www.w3.org/2000/svg" width="38.016" height="38.016" viewBox="0 0 38.016 38.016"><defs><style>.a{fill:#2d6dcd;}</style></defs><g transform="translate(-1 -1)"><path class="a" d="M44.247,37.735a5.536,5.536,0,0,0,1.76-2.472h.322A2.445,2.445,0,0,0,47.555,30.7V27.905A4.911,4.911,0,0,0,42.65,23H38.971a4.911,4.911,0,0,0-4.905,4.905V30.7a2.445,2.445,0,0,0,1.226,4.564h.322a5.539,5.539,0,0,0,1.76,2.472A6.747,6.747,0,0,0,31,44.46v2.453a.613.613,0,0,0,.613.613H50.008a.613.613,0,0,0,.613-.613V44.46A6.747,6.747,0,0,0,44.247,37.735Zm-6.184,1.207,1.926,2.407-1.868,1.868-.85-4.251c.157-.013.314-.024.474-.024Zm3.924,0L40.81,40.413l-1.177-1.471Zm1.571,0h.318c.16,0,.317.01.473.024l-.85,4.251-1.868-1.868Zm2.771-4.905h-.036a5.478,5.478,0,0,0,.036-.613V31.584a1.226,1.226,0,1,1,0,2.453ZM35.292,27.905a3.683,3.683,0,0,1,3.679-3.679H42.65a3.683,3.683,0,0,1,3.679,3.679v2.453H43.876a1.228,1.228,0,0,1-1.226-1.226V26.679H41.424v.613a3.069,3.069,0,0,1-3.066,3.066H35.292Zm0,6.132a1.226,1.226,0,1,1,0-2.453v1.839a5.479,5.479,0,0,0,.036.613Zm1.226-.613V31.584h1.839a4.282,4.282,0,0,0,3.257-1.5,2.456,2.456,0,0,0,2.261,1.5H45.1v1.839a4.292,4.292,0,0,1-8.584,0ZM49.395,46.3H32.226V44.46A5.527,5.527,0,0,1,36.068,39.2l1.075,5.377a.614.614,0,0,0,.424.467.626.626,0,0,0,.177.026.614.614,0,0,0,.434-.18l2.632-2.632,2.632,2.632a.613.613,0,0,0,1.035-.313L45.553,39.2a5.529,5.529,0,0,1,3.841,5.257Z" transform="translate(-11.605 -8.511)"/><path class="a" d="M20.621,24.913V22.46a6.747,6.747,0,0,0-6.374-6.726,5.536,5.536,0,0,0,1.76-2.472h.322A2.445,2.445,0,0,0,17.555,8.7V5.905A4.911,4.911,0,0,0,12.65,1H8.971A4.911,4.911,0,0,0,4.066,5.905V8.7a2.445,2.445,0,0,0,1.226,4.564h.322a5.539,5.539,0,0,0,1.76,2.472A6.747,6.747,0,0,0,1,22.46v2.453a.613.613,0,0,0,.613.613H20.008A.613.613,0,0,0,20.621,24.913ZM8.063,16.942l1.926,2.407L8.121,21.217l-.85-4.251c.157-.013.314-.024.474-.024Zm3.924,0L10.81,18.413,9.634,16.942Zm1.571,0h.318c.16,0,.317.01.473.024l-.85,4.251-1.868-1.868Zm2.771-4.905h-.036a5.479,5.479,0,0,0,.036-.613V9.584a1.226,1.226,0,0,1,0,2.453ZM5.292,5.905A3.683,3.683,0,0,1,8.971,2.226H12.65a3.683,3.683,0,0,1,3.679,3.679V8.358H13.876A1.228,1.228,0,0,1,12.65,7.132V4.679H11.424v.613A3.069,3.069,0,0,1,8.358,8.358H5.292Zm0,6.132a1.226,1.226,0,0,1,0-2.453v1.839a5.478,5.478,0,0,0,.036.613Zm1.226-.613V9.584H8.358a4.282,4.282,0,0,0,3.257-1.5,2.456,2.456,0,0,0,2.261,1.5H15.1v1.839a4.292,4.292,0,1,1-8.584,0ZM19.395,24.3H2.226V22.46A5.527,5.527,0,0,1,6.068,17.2l1.075,5.377a.614.614,0,0,0,.424.467.626.626,0,0,0,.177.026.614.614,0,0,0,.434-.18l2.632-2.632,2.632,2.632a.613.613,0,0,0,1.035-.313L15.553,17.2a5.529,5.529,0,0,1,3.841,5.257Z"/><path class="a" d="M20.489,54.037a6.14,6.14,0,0,1-6.1-5.518H16.2a.613.613,0,0,0,.434-1.047L12.339,43.18a.612.612,0,0,0-.867,0L7.18,47.472a.613.613,0,0,0,.434,1.047H9.478a7.368,7.368,0,0,0,7.332,6.745h3.679a.613.613,0,0,0,0-1.226Zm-9.81-6.132a.613.613,0,0,0-.613-.613H9.093l2.812-2.812,2.812,2.812h-.972a.613.613,0,0,0-.613.613,7.358,7.358,0,0,0,3.275,6.119A6.14,6.14,0,0,1,10.679,47.905Z" transform="translate(-2.321 -16.247)"/></g></svg>