<svg xmlns="http://www.w3.org/2000/svg" xmlns:xlink="http://www.w3.org/1999/xlink" width="119" height="148" viewBox="0 0 119 148"><defs><style>.a{fill:#fff;}.b{clip-path:url(#a);}.c{fill:#e9e9e9;}.d{fill:#2d6dcd;}.e{fill:#cee2fe;}.f{opacity:0.1;}</style><clipPath id="a"><rect class="a" width="119" height="148" transform="translate(1119 767)"/></clipPath></defs><g class="b" transform="translate(-1119 -767)"><g transform="translate(1105.376 789.965)"><path class="c" d="M128.324,55.338l-4.89,13.88-3.969,11.27-5.2,14.741-9.99-3.521-12.12-4.269L97.344,72.7l3.98-11.28,4.891-13.87,10.229,3.6c.271.1.54.2.82.3a2.194,2.194,0,0,0,.25.08l.3.111Z"/><path class="d" d="M101.324,61.418,97.344,72.7l-6.93-2.45,3.971-11.27Z"/><path class="c" d="M95.684,55.289l-1.3,3.69-3.971,11.27-1.3,3.69-42.49-14.97,6.57-18.65Z"/><rect class="d" width="11.952" height="7.355" transform="matrix(0.332, -0.943, 0.943, 0.332, 119.461, 80.487)"/><rect class="c" width="19.767" height="45.049" rx="1" transform="translate(125.098 86.616) rotate(-70.589)"/><path class="e" d="M140.674,45.189c-2.47,7.009-12.63,9.83-22.86,6.439-.1-.029-.2-.06-.3-.1a2.194,2.194,0,0,1-.25-.08c-.28-.1-.549-.2-.82-.3-9.93-3.839-15.93-12.31-13.49-19.25l17.13,6.041,2.1.739h.01l1.34.47Z"/><path class="c" d="M128.264,23.579l-1.02,3.36-3.71,12.21v.01l-1.34-.48h-.011l-2.1-.74,4.65-11.9.09-.23,1.189-3.03Z"/><path class="d" d="M130.625,24.63a3.448,3.448,0,1,1-2.106-4.4A3.448,3.448,0,0,1,130.625,24.63Z"/><path class="f" d="M126.225,26.738l-4.031,11.94h-.01l-4.37,12.95v.011l-13.54,40.069-12.12-4.269L97.344,72.7l-6.93-2.45-1.3,3.691L46.624,58.968l6.57-18.65,42.49,14.971-1.3,3.69,6.939,2.439,4.891-13.87,10.229,3.6c-9.93-3.839-15.93-12.31-13.49-19.25l17.13,6.041,4.65-11.9.85.4Z"/></g></g></svg>