<svg xmlns="http://www.w3.org/2000/svg" width="35.042" height="45" viewBox="0 0 35.042 45"><defs><style>.a{fill:#2d6dcd;}</style></defs><g transform="translate(-41.096)"><path class="a" d="M75.692,9.111,58.779.1a.84.84,0,0,0-.8,0L41.533,9.116a.842.842,0,0,0-.437.739V21.627a24.375,24.375,0,0,0,14.61,22.308l2.283.995a.841.841,0,0,0,.67,0L61.23,43.82A24.327,24.327,0,0,0,76.138,21.393V9.855A.842.842,0,0,0,75.692,9.111ZM74.454,21.393A22.647,22.647,0,0,1,60.571,42.271l-.006,0-2.24.967-1.946-.849a22.689,22.689,0,0,1-13.6-20.765V10.353L58.388,1.8l16.065,8.561Z" transform="translate(0 0)"/><path class="a" d="M123.06,151.211a1.249,1.249,0,0,0-1.9,1.622l6.6,7.727a1.248,1.248,0,0,0,1.738.158l15.367-12.5a1.249,1.249,0,0,0-1.577-1.938l-14.42,11.731Z" transform="translate(-74.771 -130.516)"/></g></svg>