<svg xmlns="http://www.w3.org/2000/svg" width="45" height="45" viewBox="0 0 45 45"><defs><style>.a{fill:#2d6dcd;}</style></defs><g transform="translate(0 -0.001)"><g transform="translate(0 0.001)"><path class="a" d="M44.743,12.508a.879.879,0,0,0,0-1.243L33.736.258a.879.879,0,0,0-1.243,0,2.831,2.831,0,0,1-4,0,.879.879,0,0,0-1.243,0L.258,27.252a.879.879,0,0,0,0,1.243,2.831,2.831,0,0,1,0,4,.879.879,0,0,0,0,1.243L11.265,44.744a.879.879,0,0,0,1.243,0,2.831,2.831,0,0,1,4,0,.879.879,0,0,0,1.243,0l10.7-10.7A.879.879,0,0,0,27.206,32.8L17.068,42.939a4.6,4.6,0,0,0-5.122,0L2.062,33.055a4.6,4.6,0,0,0,0-5.122l25.87-25.87a4.6,4.6,0,0,0,5.122,0l9.884,9.884a4.6,4.6,0,0,0,0,5.122L32.8,27.207a.879.879,0,1,0,1.243,1.243l10.7-10.7a.879.879,0,0,0,0-1.243,2.831,2.831,0,0,1,0-4Z" transform="translate(0 -0.001)"/><path class="a" d="M90.443,67.958a1.558,1.558,0,0,0-.459-1.108L82.794,59.66a1.567,1.567,0,0,0-2.217,0L59.661,80.577a1.567,1.567,0,0,0,0,2.217l7.189,7.189a1.567,1.567,0,0,0,2.217,0L89.984,69.066a1.558,1.558,0,0,0,.459-1.108ZM67.959,88.846,60.8,81.685,81.686,60.8l7.161,7.161Z" transform="translate(-52.323 -52.322)"/><path class="a" d="M160.971,289.3l-.477.128.128-.477a.714.714,0,0,0-1.379-.369l-.128.477-.35-.35a.714.714,0,1,0-1.009,1.009l.35.35-.477.128a.714.714,0,1,0,.369,1.379l.477-.128-.128.477a.714.714,0,1,0,1.378.369l.128-.477.35.349a.714.714,0,0,0,1.009-1.009l-.35-.35.477-.128a.714.714,0,0,0-.369-1.378Z" transform="translate(-142.96 -261.963)"/><path class="a" d="M226.449,223.823l-.477.128.128-.477a.714.714,0,0,0-1.378-.369l-.128.477-.349-.35a.714.714,0,0,0-1.009,1.009l.35.35-.477.128a.714.714,0,1,0,.369,1.378l.477-.128-.128.477a.714.714,0,1,0,1.378.369l.128-.477.35.349a.714.714,0,0,0,1.009-1.009l-.35-.35.477-.128a.714.714,0,0,0-.369-1.379Z" transform="translate(-202.961 -201.96)"/><path class="a" d="M291.45,158.474l.128-.477a.714.714,0,1,0-1.378-.369l-.128.477-.349-.349a.714.714,0,0,0-1.009,1.009l.35.35-.477.128a.714.714,0,1,0,.369,1.378l.477-.128-.128.477a.714.714,0,1,0,1.378.369l.128-.477.35.35a.714.714,0,0,0,1.009-1.009l-.349-.349.477-.128a.714.714,0,0,0-.369-1.378Z" transform="translate(-262.963 -141.959)"/><path class="a" d="M339.6,338.44a1.161,1.161,0,1,0,.822.339A1.174,1.174,0,0,0,339.6,338.44Z" transform="translate(-309.084 -309.084)"/></g></g></svg>