<svg xmlns="http://www.w3.org/2000/svg" width="38.836" height="33.075" viewBox="0 0 38.836 33.075"><defs><style>.a{fill:#2d6dcd;}</style></defs><g transform="translate(0 -37.627)"><g transform="translate(0 37.627)"><g transform="translate(0 0)"><path class="a" d="M131.561,375.691l-1.849,1.637a16.99,16.99,0,0,0,1.913,1.84l1.563-1.91A14.243,14.243,0,0,1,131.561,375.691Z" transform="translate(-119.788 -349.855)"/><path class="a" d="M95.033,326.187l-2.265.972a16.424,16.424,0,0,0,1.244,2.351l2.079-1.321A14.136,14.136,0,0,1,95.033,326.187Z" transform="translate(-85.67 -304.111)"/><path class="a" d="M30.591,39.858A16.517,16.517,0,0,0,5.927,51.98l-4.2-4.2L0,49.517l6.99,6.99,6.99-6.99-1.732-1.732L8.46,51.569a14.072,14.072,0,1,1,6.774,14.782L14,68.468A16.536,16.536,0,0,0,30.591,39.858Z" transform="translate(0 -37.627)"/><path class="a" d="M267.312,109.627v13.557l5.423,4.067,1.479-1.972-4.437-3.328V109.627Z" transform="translate(-246.875 -104.153)"/></g></g></g></svg>